<?xml version="1.0" encoding="UTF-8" standalone="no"?>
<!-- Created with Inkscape (http://www.inkscape.org/) -->

<svg
   width="144"
   height="166.00012"
   viewBox="0 0 38.099997 43.920865"
   version="1.1"
   id="svg1"
   inkscape:version="1.3.2 (091e20ef0f, 2023-11-25, custom)"
   sodipodi:docname="isometric_blocks.svg"
   inkscape:export-filename="base_blocks.png"
   inkscape:export-xdpi="96"
   inkscape:export-ydpi="96"
   xml:space="preserve"
   xmlns:inkscape="http://www.inkscape.org/namespaces/inkscape"
   xmlns:sodipodi="http://sodipodi.sourceforge.net/DTD/sodipodi-0.dtd"
   xmlns="http://www.w3.org/2000/svg"
   xmlns:svg="http://www.w3.org/2000/svg"><sodipodi:namedview
     id="namedview1"
     pagecolor="#ffffff"
     bordercolor="#000000"
     borderopacity="0.25"
     inkscape:showpageshadow="2"
     inkscape:pageopacity="0.0"
     inkscape:pagecheckerboard="0"
     inkscape:deskcolor="#d1d1d1"
     inkscape:document-units="px"
     showgrid="true"
     inkscape:zoom="2.4"
     inkscape:cx="157.29167"
     inkscape:cy="55.208333"
     inkscape:window-width="1920"
     inkscape:window-height="1003"
     inkscape:window-x="0"
     inkscape:window-y="40"
     inkscape:window-maximized="1"
     inkscape:current-layer="svg1"><inkscape:grid
       id="grid1"
       units="px"
       originx="-0.0002092059"
       originy="0.018277829"
       spacingx="0.26458333"
       spacingy="0.26458333"
       empcolor="#0099e5"
       empopacity="0.30196078"
       color="#0099e5"
       opacity="0.14901961"
       empspacing="5"
       dotted="false"
       gridanglex="30"
       gridanglez="30"
       visible="true" /></sodipodi:namedview><defs
     id="defs1"><inkscape:path-effect
       effect="perspective-envelope"
       up_left_point="11.526761,-27.970424"
       up_right_point="32.261208,-15.986492"
       down_left_point="-9.2076867,-15.986492"
       down_right_point="11.526761,-4.0025602"
       id="path-effect5"
       is_visible="true"
       lpeversion="1"
       deform_type="perspective"
       horizontal_mirror="false"
       vertical_mirror="false"
       overflow_perspective="false" /><inkscape:path-effect
       effect="perspective-envelope"
       up_left_point="11.526761,-27.970424"
       up_right_point="32.261208,-15.986492"
       down_left_point="-9.2076867,-15.986492"
       down_right_point="11.526761,-4.0025602"
       id="path-effect4"
       is_visible="true"
       lpeversion="1"
       deform_type="perspective"
       horizontal_mirror="false"
       vertical_mirror="false"
       overflow_perspective="false" /><inkscape:path-effect
       effect="perspective-envelope"
       up_left_point="-3.074305,43.680585"
       up_right_point="7.3819834,37.658487"
       down_left_point="7.3819834,49.702684"
       down_right_point="17.964878,43.635453"
       id="path-effect64"
       is_visible="true"
       lpeversion="1"
       deform_type="envelope_deformation"
       horizontal_mirror="false"
       vertical_mirror="false"
       overflow_perspective="false" /><inkscape:path-effect
       effect="envelope"
       id="path-effect63"
       is_visible="true"
       lpeversion="1"
       yy="true"
       xx="true"
       bendpath1="M 26.449759,39.040167 H 38.364244"
       bendpath2="M 38.364244,39.040167 V 50.954653"
       bendpath3="M 26.449759,50.954653 H 38.364244"
       bendpath4="M 26.449759,39.040167 V 50.954653" /><inkscape:path-effect
       effect="perspective-envelope"
       up_left_point="26.449759,39.040167"
       up_right_point="38.364244,39.040167"
       down_left_point="26.449759,50.954653"
       down_right_point="38.364244,50.954653"
       id="path-effect62"
       is_visible="true"
       lpeversion="1"
       deform_type="perspective"
       horizontal_mirror="false"
       vertical_mirror="false"
       overflow_perspective="false" /><inkscape:path-effect
       effect="envelope"
       id="path-effect61"
       is_visible="true"
       lpeversion="1"
       yy="true"
       xx="true"
       bendpath1="M 26.449759,39.040167 H 38.364244"
       bendpath2="M 38.364244,39.040167 V 50.954653"
       bendpath3="M 26.449759,50.954653 H 38.364244"
       bendpath4="M 26.449759,39.040167 V 50.954653" /><inkscape:path-effect
       effect="bounding_box"
       linkedpath=""
       id="path-effect60"
       is_visible="true"
       lpeversion="1.3"
       visualbounds="true" /><path
       id="SVGID_1_"
       d="m 541.331,17.071 c 7.113,0.013 8.363,5.01 8.238,8.225 -0.125,3.215 -0.854,6.27 -2.834,7.355 -1.987,1.09 -3.249,2.881 -6.416,2.964 -3.167,0.083 -4.329,-1.718 -4.995,-2.761 -0.666,-1.043 -0.88,-1.589 -0.88,-3.259 0,-1.669 -0.75,-5.923 -0.083,-7.343 0.973,-2.069 2.291,-5.189 6.97,-5.181 z" /><path
       id="SVGID_3_"
       d="m 106.669,17.071 c -7.113,0.013 -8.363,5.01 -8.238,8.225 0.125,3.215 0.854,6.27 2.834,7.355 1.987,1.09 3.249,2.881 6.416,2.964 3.167,0.083 4.329,-1.718 4.995,-2.761 0.666,-1.043 0.88,-1.589 0.88,-3.259 0,-1.669 0.75,-5.923 0.083,-7.343 -0.973,-2.069 -2.291,-5.189 -6.97,-5.181 z" /></defs><g
     inkscape:groupmode="layer"
     id="layer3"
     inkscape:label="character"
     style="display:none"
     transform="translate(1.3003906e-4,3.2178337e-5)"><path
       id="Torso"
       style="clip-rule:evenodd;fill:#f6c1b1;fill-rule:evenodd"
       d="M 45.304,38.56 C 44.741,37.904 40.023,36.092 40.023,36.092 V 33.44 L 36,33.562 31.977,33.439 v 2.652 c 0,0 -4.719,1.812 -5.281,2.468 -0.562,0.656 0.75,1.255 1.439,1.875 1.025,0.922 0.87,0.74 1.146,0.978 0.205,0.176 0.535,0.289 0.618,1.309 0.054,0.654 -0.078,1.526 0.109,2.776 0.187,1.25 -0.094,2.594 0,3.969 0.094,1.375 -0.719,2.219 -1.031,3.656 -0.312,1.437 -0.281,1.129 0.802,2.879 1.083,1.75 2.115,2.177 3.042,3.001 0.952,0.848 1.083,0.936 1.938,1.166 0.368,0.098 0.817,0.129 1.233,0.135 v 0.001 c 0.003,0 0.006,-0.001 0.008,-0.001 0.003,0 0.005,0.001 0.008,0.001 v -0.001 c 0.416,-0.006 0.865,-0.037 1.233,-0.135 0.854,-0.23 0.985,-0.318 1.938,-1.166 0.927,-0.824 1.958,-1.251 3.041,-3.001 1.084,-1.75 1.115,-1.441 0.803,-2.879 -0.312,-1.438 -1.125,-2.281 -1.031,-3.656 0.094,-1.375 -0.188,-2.719 0,-3.969 0.188,-1.25 0.056,-2.122 0.109,-2.776 0.084,-1.021 0.413,-1.133 0.618,-1.309 0.276,-0.238 0.121,-0.056 1.146,-0.978 0.689,-0.62 2.002,-1.218 1.439,-1.874 z"
       transform="matrix(0.26458332,0,0,0.26458332,9.7203189,17.498747)" /><g
       id="Leg_x28_sl_x29_"
       transform="matrix(0.26458332,0,0,0.26458332,9.7203189,17.498747)">
				<path
   style="clip-rule:evenodd;fill:#f6c1b1;fill-rule:evenodd"
   d="m 27.29,61.768 c -0.366,4.125 -1.696,9.196 1.687,9.321 3.383,0.125 5.249,0.366 5.515,-4.134 0.266,-4.5 1.517,-6.625 1.517,-7.75 0,-1.125 -5.879,-10.385 -7.036,-6 0,0 -1.317,4.438 -1.683,8.563 z"
   id="path108" />
				<path
   style="clip-rule:evenodd;fill:#f6c1b1;fill-rule:evenodd"
   d="m 26.711,67.633 c 0,2.898 -0.185,4.302 -0.279,6.271 -0.083,1.729 0.079,2.931 0.053,4.188 -0.07,3.313 -0.188,6.885 0.531,7.385 0.719,0.5 2.25,0.469 3.125,0.25 0.875,-0.219 1.441,-1.063 1.438,-2.688 -0.01,-5.094 0.916,-5.771 1.198,-7.158 0.274,-1.352 1.562,-7.941 1.333,-9.084 -0.356,-1.779 -7.399,-5.291 -7.399,0.836 z"
   id="path109" />
				<path
   style="clip-rule:evenodd;fill:#f6c1b1;fill-rule:evenodd"
   d="m 26.686,84.526 c -0.08,0.766 -1.721,3.643 -3.055,5.965 -1.905,3.319 2.848,1.511 3.107,1.864 0,0 0.195,0.458 1.094,0.302 0.939,-0.162 2.327,-1.721 2.978,-3.164 0.809,-1.785 1.032,-1.857 1.032,-3.186 -10e-4,-0.941 -0.353,-2.249 -0.233,-3.269"
   id="path110" />
			</g><g
       id="Arm_x28_screenleft_x29_"
       transform="matrix(0.26458332,0,0,0.26458332,9.7203189,17.498747)">
				<path
   style="clip-rule:evenodd;fill:#f6c1b1;fill-rule:evenodd"
   d="m 27.577,37.99 c -1.673,0.757 -3.194,2.934 -3.35,5.043 -0.1,1.346 -1.413,4.237 -0.781,5.464 0.309,0.601 1.126,1.318 1.656,1.489 0.587,0.19 1.99,-0.302 2.25,-0.719 0.243,-0.389 0.746,-1.864 1.156,-3.281 0.41,-1.417 1.521,-4.198 1.521,-4.198"
   id="path111" />
				<path
   style="clip-rule:evenodd;fill:#f6c1b1;fill-rule:evenodd"
   d="m 23.34,46.872 c 0,0 -1.175,2.771 -1.332,4.271 -0.157,1.5 -0.25,3.875 -0.25,3.875 0,0 0.998,1.372 1.517,1.48 0.634,0.131 2.421,-0.918 2.421,-0.918 0,0 0.695,-1.812 0.863,-3.093 0.168,-1.281 0.98,-3.969 0.949,-4.563 -0.031,-0.594 -0.656,-1.5 -1.594,-1.719 -0.938,-0.219 -2.211,0.239 -2.574,0.667 z"
   id="path112" />
				<path
   style="clip-rule:evenodd;fill:#f6c1b1;fill-rule:evenodd"
   d="m 21.82,53.735 c 0,0.372 -1.261,2.123 -1.386,2.679 -0.364,1.623 -0.215,4.242 1.072,4.271 0.939,0.021 0.908,0.583 1.564,0.458 0.656,-0.125 0.906,0.246 1.25,0.045 0.344,-0.201 1.063,0.387 1.281,0.062 0.218,-0.325 -0.156,-1.606 0.281,-1.106 0.437,0.5 0.572,0.481 0.769,0.324 0.501,-0.402 -0.019,-2.012 0.106,-2.678 0.066,-0.35 0.078,-1.279 -0.199,-1.834 -0.336,-0.672 -0.754,-0.65 -0.634,-1.017"
   id="path113" />
			</g><g
       id="Arm_x28_sr_x29_"
       transform="matrix(0.26458332,0,0,0.26458332,9.7203189,17.498747)">
				<path
   style="clip-rule:evenodd;fill:#f6c1b1;fill-rule:evenodd"
   d="m 44.423,37.99 c 1.672,0.757 3.193,2.934 3.35,5.043 0.1,1.346 1.412,4.237 0.781,5.464 -0.309,0.601 -1.127,1.318 -1.656,1.489 -0.588,0.19 -1.99,-0.302 -2.25,-0.719 -0.243,-0.389 -0.746,-1.864 -1.156,-3.281 -0.41,-1.417 -1.521,-4.198 -1.521,-4.198"
   id="path114" />
				<path
   style="clip-rule:evenodd;fill:#f6c1b1;fill-rule:evenodd"
   d="m 48.66,46.872 c 0,0 1.176,2.771 1.332,4.271 0.156,1.5 0.25,3.875 0.25,3.875 0,0 -0.998,1.372 -1.517,1.48 -0.634,0.131 -2.421,-0.918 -2.421,-0.918 0,0 -0.695,-1.812 -0.863,-3.093 -0.168,-1.281 -0.98,-3.969 -0.949,-4.563 0.031,-0.594 0.656,-1.5 1.594,-1.719 0.938,-0.219 2.211,0.239 2.574,0.667 z"
   id="path115" />
				<path
   style="clip-rule:evenodd;fill:#f6c1b1;fill-rule:evenodd"
   d="m 48.66,46.872 c 0,0 1.176,2.771 1.332,4.271 0.156,1.5 0.25,3.875 0.25,3.875 0,0 -0.998,1.372 -1.517,1.48 -0.634,0.131 -2.421,-0.918 -2.421,-0.918 0,0 -0.695,-1.812 -0.863,-3.093 -0.168,-1.281 -0.98,-3.969 -0.949,-4.563 0.031,-0.594 0.656,-1.5 1.594,-1.719 0.938,-0.219 2.211,0.239 2.574,0.667 z"
   id="path116" />
				<path
   style="clip-rule:evenodd;fill:#f6c1b1;fill-rule:evenodd"
   d="m 50.18,53.735 c 0,0.372 1.261,2.123 1.386,2.679 0.364,1.623 0.215,4.242 -1.072,4.271 -0.939,0.021 -0.908,0.583 -1.564,0.458 -0.656,-0.125 -0.906,0.246 -1.25,0.045 -0.344,-0.201 -1.063,0.387 -1.281,0.062 -0.218,-0.325 0.156,-1.606 -0.281,-1.106 -0.437,0.5 -0.572,0.481 -0.769,0.324 -0.501,-0.402 0.019,-2.012 -0.106,-2.678 -0.066,-0.35 -0.078,-1.279 0.199,-1.834 0.336,-0.672 0.754,-0.65 0.634,-1.017"
   id="path117" />
			</g><g
       id="Leg_x28_screenright_x29_"
       transform="matrix(0.26458332,0,0,0.26458332,9.7203189,17.498747)">
				<path
   style="clip-rule:evenodd;fill:#f6c1b1;fill-rule:evenodd"
   d="m 43.529,62.721 c 0.366,4.125 0.815,8.281 -2.568,8.406 -3.383,0.125 -4.367,1.281 -4.634,-3.219 -0.267,-4.5 -0.335,-7.578 -0.335,-8.703 0,-1.125 5.879,-10.385 7.035,-6 0,0 0.136,5.391 0.502,9.516 z"
   id="path118" />
				<path
   style="clip-rule:evenodd;fill:#f6c1b1;fill-rule:evenodd"
   d="m 43.73,69.229 c 0,2.9 -0.318,2.744 -0.224,4.713 0.082,1.73 -0.079,2.931 -0.053,4.189 0.07,3.313 0.188,6.884 -0.531,7.384 -0.719,0.5 -2.25,0.469 -3.125,0.25 -0.875,-0.219 -1.441,-1.062 -1.438,-2.688 0.01,-5.094 -0.916,-5.771 -1.197,-7.158 -0.275,-1.351 -1.138,-8.175 -0.909,-9.315 0.355,-1.781 7.477,-3.501 7.477,2.625 z"
   id="path119" />
				<path
   style="clip-rule:evenodd;fill:#f6c1b1;fill-rule:evenodd"
   d="m 43.282,84.564 c 0.08,0.766 1.721,3.644 3.055,5.965 1.905,3.32 -2.848,1.512 -3.107,1.865 0,0 -0.195,0.457 -1.094,0.301 -0.939,-0.162 -2.327,-1.721 -2.978,-3.164 -0.809,-1.785 -1.032,-1.857 -1.032,-3.186 0.001,-0.941 0.353,-2.249 0.233,-3.269"
   id="path120" />
			</g><g
       id="Head"
       transform="matrix(0.26458332,0,0,0.26458332,9.7203189,17.498747)">
				<path
   style="clip-rule:evenodd;fill:#fbc3b3;fill-rule:evenodd"
   d="M 29.54,28.393"
   id="path121" />
				<path
   style="clip-rule:evenodd;fill:#fbc3b3;fill-rule:evenodd"
   d="m 30.092,28.478 c 0,0 -0.584,-0.274 -1.542,-0.085 -0.958,0.189 -0.875,2.189 -0.667,3.46 0.208,1.271 2.354,1.5 2.917,1.375"
   id="path122" />
				<path
   style="clip-rule:evenodd;fill:#f6c1b1;fill-rule:evenodd"
   d="m 30.784,28.107 c -0.426,0.606 -0.541,1.495 -0.222,2.358 0.471,1.273 1.691,1.995 2.725,1.613 0.85,-0.314 1.299,-1.278 1.175,-2.317 z"
   id="path123" />
				<path
   style="clip-rule:evenodd;fill:#fbc3b3;fill-rule:evenodd"
   d="M 42.46,28.393"
   id="path124" />
				<path
   style="clip-rule:evenodd;fill:#fbc3b3;fill-rule:evenodd"
   d="m 41.909,28.478 c 0,0 0.584,-0.274 1.541,-0.085 0.959,0.189 0.875,2.189 0.667,3.46 -0.208,1.271 -2.354,1.5 -2.917,1.375"
   id="path125" />
				<path
   style="clip-rule:evenodd;fill:#fbc3b3;fill-rule:evenodd"
   d="m 42.827,24.159 c 0,-5.823 -5.48,-6.293 -6.818,-6.296 v 0 c -0.002,0 -0.006,0 -0.008,0 -0.002,0 -0.006,0 -0.008,0 v 0 c -1.337,0.003 -6.818,0.473 -6.818,6.296 l 0.038,4.234 c 0,0 -0.313,2.032 1.172,4.563 1.478,2.521 4.533,3.195 5.608,3.216 v 0.001 c 0.002,0 0.006,0 0.008,0 0.002,0 0.006,0 0.008,0 v -0.001 c 1.075,-0.021 4.131,-0.696 5.608,-3.216 1.484,-2.531 1.172,-4.563 1.172,-4.563 z"
   id="path126" />
				<path
   style="clip-rule:evenodd;fill:#f5f2df;fill-rule:evenodd"
   d="m 41.216,28.107 c 0.426,0.606 0.541,1.495 0.222,2.358 -0.471,1.273 -1.691,1.995 -2.725,1.613 -0.85,-0.314 -1.299,-1.278 -1.175,-2.317 z"
   id="path127" />
				<path
   style="clip-rule:evenodd;fill:#f5f2df;fill-rule:evenodd"
   d="m 30.784,28.107 c -0.426,0.606 -0.541,1.495 -0.222,2.358 0.471,1.273 1.691,1.995 2.725,1.613 0.85,-0.314 1.299,-1.278 1.175,-2.317 z"
   id="path128" />
			</g></g><g
     inkscape:label="edges"
     inkscape:groupmode="layer"
     id="layer1"
     transform="matrix(0.91259694,0,0,0.91162751,8.5309988,25.609256)"
     style="display:inline"><g
       id="g150"
       style="stroke-width:0.290078;stroke-dasharray:none"><path
         style="fill:none;stroke:#72080d;stroke-width:0.290078;stroke-dasharray:none"
         d="m 11.526832,19.965182 7.1e-5,-23.9677422"
         id="path147"
         inkscape:label="0"
         sodipodi:nodetypes="cc" /><path
         style="fill:none;stroke:#72080d;stroke-width:0.290078;stroke-dasharray:none"
         d="M -9.2077572,7.98125 11.526832,19.965182"
         id="path148"
         inkscape:label="1"
         sodipodi:nodetypes="cc" /><path
         style="fill:none;stroke:#72080d;stroke-width:0.290078;stroke-dasharray:none"
         d="m -9.2077572,7.98125 7.1e-5,-23.967742"
         id="path149"
         inkscape:label="3"
         sodipodi:nodetypes="cc" /><path
         style="fill:none;stroke:#72080d;stroke-width:0.290078;stroke-dasharray:none"
         d="M -9.2076862,-15.986492 11.526903,-4.0025597"
         id="path150"
         inkscape:label="5"
         sodipodi:nodetypes="cc" /></g><g
       id="g154"
       style="stroke-width:0.290078;stroke-dasharray:none"><path
         style="fill:none;stroke:#72080d;stroke-width:0.290078;stroke-dasharray:none"
         d="m 11.526832,19.965182 7.1e-5,-23.9677422"
         id="path151"
         inkscape:label="0"
         sodipodi:nodetypes="cc" /><path
         style="fill:none;stroke:#72080d;stroke-width:0.290078;stroke-dasharray:none"
         d="M 32.261421,7.9812497 11.526832,19.965182"
         id="path152"
         inkscape:label="2"
         sodipodi:nodetypes="cc" /><path
         style="fill:none;stroke:#72080d;stroke-width:0.290078;stroke-dasharray:none"
         d="m 32.261421,7.9812497 7.1e-5,-23.9677417"
         id="path153"
         inkscape:label="4"
         sodipodi:nodetypes="cc" /><path
         style="fill:none;stroke:#72080d;stroke-width:0.290078;stroke-dasharray:none"
         d="M 32.261492,-15.986493 11.526903,-4.0025602"
         id="path154"
         inkscape:label="6"
         sodipodi:nodetypes="cc" /></g><g
       id="g158"
       style="stroke-width:0.290078;stroke-dasharray:none"><path
         style="fill:none;stroke:#72080d;stroke-width:0.290078;stroke-dasharray:none"
         d="M -9.2076862,-15.986492 11.526903,-4.0025597"
         id="path155"
         inkscape:label="5"
         sodipodi:nodetypes="cc" /><path
         style="fill:none;stroke:#72080d;stroke-width:0.290078;stroke-dasharray:none"
         d="M 32.261492,-15.986493 11.526903,-4.0025602"
         id="path156"
         inkscape:label="6"
         sodipodi:nodetypes="cc" /><path
         style="fill:none;stroke:#72080d;stroke-width:0.290078;stroke-dasharray:none"
         d="M -9.2076862,-15.986492 11.526903,-27.970425"
         id="path157"
         inkscape:label="7"
         sodipodi:nodetypes="cc" /><path
         style="fill:none;stroke:#72080d;stroke-width:0.290078;stroke-dasharray:none"
         d="M 32.261492,-15.986491 11.526903,-27.970424"
         id="path158"
         inkscape:label="3"
         sodipodi:nodetypes="cc" /></g></g><g
     inkscape:label="cube"
     inkscape:groupmode="layer"
     id="g171"
     transform="matrix(0.9123733,0,0,0.91073281,8.5333227,25.605753)"
     style="display:inline"><path
       id="path162"
       style="display:inline;fill:#808080;fill-opacity:1;stroke:#000000;stroke-width:0.290255;stroke-linecap:round;stroke-linejoin:round;stroke-dasharray:none;stroke-opacity:1"
       inkscape:label="left"
       d="m -9.2076867,-15.986492 -7.1e-5,23.9677422 20.7344477,11.9839318 7.1e-5,-23.9677419 z"
       sodipodi:nodetypes="ccccc" /><path
       id="path166"
       style="display:inline;fill:#262626;fill-opacity:1;stroke:#000000;stroke-width:0.290255;stroke-linecap:round;stroke-linejoin:round;stroke-dasharray:none;stroke-opacity:1"
       inkscape:label="right"
       d="M 11.526761,-4.0025602 11.52669,19.965182 32.261137,7.9812499 32.261208,-15.986492 Z"
       sodipodi:nodetypes="ccccc" /><path
       id="path170"
       style="display:inline;fill:#cccccc;fill-opacity:1;stroke:#000000;stroke-width:0.290255;stroke-linecap:round;stroke-linejoin:round;stroke-dasharray:none;stroke-opacity:1"
       inkscape:label="up"
       d="M 11.526761,-27.970424 -9.2076867,-15.986492 11.526761,-4.0025599 32.261208,-15.986492 Z"
       sodipodi:nodetypes="ccccc" /></g><g
     inkscape:label="cube copy"
     inkscape:groupmode="layer"
     id="g3"
     transform="matrix(0.9123733,0,0,0.91073281,47.956238,25.605753)"
     style="display:inline"><path
       id="path1"
       style="display:inline;fill:#808080;fill-opacity:1;stroke:#000000;stroke-width:0.290255;stroke-linecap:round;stroke-linejoin:round;stroke-dasharray:none;stroke-opacity:1"
       inkscape:label="left"
       d="m -9.2076867,-15.986492 -7.1e-5,23.9677422 20.7344477,11.9839318 7.1e-5,-23.9677419 z"
       sodipodi:nodetypes="ccccc" /><path
       id="path2"
       style="display:inline;fill:#262626;fill-opacity:1;stroke:#000000;stroke-width:0.290255;stroke-linecap:round;stroke-linejoin:round;stroke-dasharray:none;stroke-opacity:1"
       inkscape:label="right"
       d="M 11.526761,-4.0025602 11.52669,19.965182 32.261137,7.9812499 32.261208,-15.986492 Z"
       sodipodi:nodetypes="ccccc" /><path
       id="path3"
       style="display:inline;fill:#cccccc;fill-opacity:1;stroke:#000000;stroke-width:0.290255;stroke-linecap:round;stroke-linejoin:round;stroke-dasharray:none;stroke-opacity:1"
       inkscape:label="up"
       d="M 11.526761,-27.970424 -9.2076867,-15.986492 11.526761,-4.0025599 32.261208,-15.986492 Z"
       sodipodi:nodetypes="ccccc" /></g><path
     style="display:inline;fill:none;stroke:#72080d;stroke-width:0.264518;stroke-dasharray:none"
     d="m 44.808235,-5.2733233 10.924777,-1.302e-4"
     id="path6"
     inkscape:label="7"
     sodipodi:nodetypes="cc" /><path
     style="display:inline;fill:none;stroke:#72080d;stroke-width:0.264583;stroke-dasharray:none"
     d="M 67.936491,16.514133 49.014169,5.5892502"
     id="path5"
     inkscape:label="3"
     sodipodi:nodetypes="cc" /><circle
     style="fill:#cccccc;fill-opacity:1;stroke:#000000;stroke-width:0.283515;stroke-linecap:round;stroke-linejoin:round;stroke-dasharray:none"
     id="path7"
     cx="66.116592"
     cy="-7.9192214"
     r="5.3206973" /></svg>
