<?xml version="1.0" encoding="UTF-8" standalone="no"?>
<!-- Created with Inkscape (http://www.inkscape.org/) -->

<svg
   version="1.1"
   id="svg2"
   width="1412.399"
   height="532"
   viewBox="0 0 1412.399 532"
   sodipodi:docname="main_menu.svg"
   inkscape:version="1.3.2 (091e20ef0f, 2023-11-25, custom)"
   xml:space="preserve"
   inkscape:export-filename="menu.png"
   inkscape:export-xdpi="100"
   inkscape:export-ydpi="100"
   xmlns:inkscape="http://www.inkscape.org/namespaces/inkscape"
   xmlns:sodipodi="http://sodipodi.sourceforge.net/DTD/sodipodi-0.dtd"
   xmlns:xlink="http://www.w3.org/1999/xlink"
   xmlns="http://www.w3.org/2000/svg"
   xmlns:svg="http://www.w3.org/2000/svg"><defs
     id="defs6"><inkscape:path-effect
       effect="mirror_symmetry"
       start_point="208.099,46.64"
       end_point="287.74021,46.64"
       center_point="247.9196,46.64"
       id="path-effect7"
       is_visible="true"
       lpeversion="1.2"
       lpesatellites=""
       mode="free"
       discard_orig_path="false"
       fuse_paths="false"
       oposite_fuse="false"
       split_items="false"
       split_open="false"
       link_styles="false" /><inkscape:path-effect
       effect="mirror_symmetry"
       start_point="208.099,0"
       end_point="287.74021,0"
       center_point="247.9196,0"
       id="path-effect6"
       is_visible="true"
       lpeversion="1.2"
       lpesatellites=""
       mode="free"
       discard_orig_path="false"
       fuse_paths="false"
       oposite_fuse="false"
       split_items="false"
       split_open="false"
       link_styles="false" /><inkscape:path-effect
       effect="mirror_symmetry"
       start_point="208.099,40.240351"
       end_point="287.74021,40.240351"
       center_point="247.91961,40.240351"
       id="path-effect2"
       is_visible="true"
       lpeversion="1.2"
       lpesatellites=""
       mode="Y"
       discard_orig_path="false"
       fuse_paths="false"
       oposite_fuse="false"
       split_items="false"
       split_open="false"
       link_styles="false" /><linearGradient
       id="linearGradient1"
       inkscape:collect="always"><stop
         style="stop-color:#000000;stop-opacity:1;"
         offset="0"
         id="stop1" /><stop
         style="stop-color:#000000;stop-opacity:0;"
         offset="1"
         id="stop2" /></linearGradient><inkscape:path-effect
       effect="mirror_symmetry"
       start_point="0,83.4"
       end_point="448,83.4"
       center_point="224,83.4"
       id="path-effect5"
       is_visible="true"
       lpeversion="1.2"
       lpesatellites=""
       mode="free"
       discard_orig_path="false"
       fuse_paths="false"
       oposite_fuse="false"
       split_items="false"
       split_open="false"
       link_styles="false" /><inkscape:path-effect
       effect="mirror_symmetry"
       start_point="-10,83.3"
       end_point="458,83.3"
       center_point="224,83.3"
       id="path-effect17"
       is_visible="true"
       lpeversion="1.2"
       lpesatellites=""
       mode="free"
       discard_orig_path="false"
       fuse_paths="false"
       oposite_fuse="false"
       split_items="false"
       split_open="false"
       link_styles="false" /><inkscape:path-effect
       effect="mirror_symmetry"
       start_point="213,131.30227"
       end_point="213,147.84953"
       center_point="213,139.5759"
       id="path-effect16"
       is_visible="true"
       lpeversion="1.2"
       lpesatellites=""
       mode="free"
       discard_orig_path="false"
       fuse_paths="false"
       oposite_fuse="false"
       split_items="false"
       split_open="false"
       link_styles="false" /><inkscape:path-effect
       effect="mirror_symmetry"
       start_point="213,131.32635"
       end_point="213,147.87375"
       center_point="213,139.60005"
       id="path-effect14"
       is_visible="true"
       lpeversion="1.2"
       lpesatellites=""
       mode="free"
       discard_orig_path="false"
       fuse_paths="false"
       oposite_fuse="false"
       split_items="false"
       split_open="false"
       link_styles="false" /><inkscape:path-effect
       effect="mirror_symmetry"
       start_point="213,131.99356"
       end_point="213,140.97192"
       center_point="213,136.48274"
       id="path-effect12"
       is_visible="true"
       lpeversion="1.2"
       lpesatellites=""
       mode="free"
       discard_orig_path="false"
       fuse_paths="false"
       oposite_fuse="false"
       split_items="false"
       split_open="false"
       link_styles="false" /><inkscape:path-effect
       effect="mirror_symmetry"
       start_point="213,131.32635"
       end_point="213,147.87375"
       center_point="213,139.60005"
       id="path-effect4"
       is_visible="true"
       lpeversion="1.2"
       lpesatellites=""
       mode="free"
       discard_orig_path="false"
       fuse_paths="false"
       oposite_fuse="false"
       split_items="false"
       split_open="false"
       link_styles="false" /><inkscape:path-effect
       effect="mirror_symmetry"
       start_point="213,131.30227"
       end_point="213,147.84953"
       center_point="213,139.5759"
       id="path-effect3"
       is_visible="true"
       lpeversion="1.2"
       lpesatellites=""
       mode="free"
       discard_orig_path="false"
       fuse_paths="false"
       oposite_fuse="false"
       split_items="false"
       split_open="false"
       link_styles="false" /><inkscape:path-effect
       effect="mirror_symmetry"
       start_point="213,131.99356"
       end_point="213,140.97193"
       center_point="213,136.48274"
       id="path-effect1"
       is_visible="true"
       lpeversion="1.2"
       lpesatellites=""
       mode="free"
       discard_orig_path="false"
       fuse_paths="false"
       oposite_fuse="false"
       split_items="false"
       split_open="false"
       link_styles="false" /><linearGradient
       inkscape:collect="always"
       xlink:href="#linearGradient1"
       id="linearGradient2"
       x1="0.80000001"
       y1="-31.280001"
       x2="406.7998"
       y2="-31.280001"
       gradientUnits="userSpaceOnUse" /></defs><sodipodi:namedview
     id="namedview4"
     pagecolor="#ffffff"
     bordercolor="#111111"
     borderopacity="1"
     inkscape:showpageshadow="0"
     inkscape:pageopacity="0"
     inkscape:pagecheckerboard="1"
     inkscape:deskcolor="#d1d1d1"
     showgrid="false"
     inkscape:zoom="0.4427462"
     inkscape:cx="578.20936"
     inkscape:cy="90.345213"
     inkscape:window-width="1920"
     inkscape:window-height="1008"
     inkscape:window-x="0"
     inkscape:window-y="0"
     inkscape:window-maximized="1"
     inkscape:current-layer="g13"><inkscape:grid
       type="xygrid"
       id="grid3115"
       originx="398.34287"
       originy="-42.61235"
       spacingy="1"
       spacingx="1"
       units="px"
       visible="false" /></sodipodi:namedview><g
     inkscape:groupmode="layer"
     id="g11"
     inkscape:label="new_game_pressed"
     transform="translate(952.99921)"
     style="display:inline"><rect
       style="display:inline;fill:#000000;fill-opacity:0;stroke:none;stroke-width:7.72608;stroke-linecap:round;stroke-linejoin:round"
       id="rect11"
       width="470.79968"
       height="133"
       x="-11.399847"
       y="-133"
       inkscape:label="background"
       transform="scale(1,-1)" /><text
       xml:space="preserve"
       style="font-style:normal;font-variant:normal;font-weight:300;font-stretch:semi-condensed;font-size:80px;line-height:1.25;font-family:DAVeau;-inkscape-font-specification:'DAVeau, Light Semi-Condensed';font-variant-ligatures:normal;font-variant-caps:normal;font-variant-numeric:normal;font-variant-east-asian:normal;display:inline;fill:#4b080d;fill-opacity:1"
       x="20.200094"
       y="79.639999"
       id="text11"
       inkscape:label="text"><tspan
         sodipodi:role="line"
         id="tspan11"
         x="20.200094"
         y="79.639999"
         style="fill:#4b080d;fill-opacity:1">New Game</tspan></text><path
       id="path11"
       style="display:inline;fill:#72080d;fill-opacity:1;stroke:none;stroke-width:1.00002px;stroke-linecap:butt;stroke-linejoin:miter;stroke-opacity:1"
       d="m 224,96.720003 c -6.23178,4.324197 -8.38768,5.440297 -15.54688,8.072267 -19.06496,-6.342045 -50.86428,-10.507694 -62.50195,0.0918 -9.75694,-0.61426 -19.50989,-1.34653 -29.19922,-2.61719 -6.95336,-0.91187 -20.710937,-3.703124 -20.710937,-3.703124 0,0 -13.757585,2.791254 -20.710935,3.703124 -12.06133,1.58174 -24.22198,2.33577 -36.36523,3.05664 -11.82736,0.70211 -35.5234314,1.23437 -35.5234414,1.23437 1e-5,0 23.6960814,0.53228 35.5234414,1.23438 12.14325,0.72085 24.3039,1.47492 36.36523,3.05664 6.95335,0.91186 20.710935,3.70313 20.710935,3.70313 0,0 13.757577,-2.79127 20.710937,-3.70313 9.68933,-1.27065 19.44228,-2.00292 29.19922,-2.61719 11.63767,10.59949 43.43699,6.43384 62.50195,0.0918 7.1592,2.63197 9.3151,3.74808 15.54688,8.07227 6.23177,-4.32419 8.38767,-5.4403 15.54687,-8.07227 19.06496,6.34204 50.86428,10.50769 62.50195,-0.0918 9.75694,0.61427 19.50989,1.34654 29.19922,2.61719 6.95337,0.91186 20.71094,3.70313 20.71094,3.70313 0,0 13.75759,-2.79127 20.71094,-3.70313 12.06134,-1.58172 24.22198,-2.33579 36.36523,-3.05664 11.82736,-0.7021 35.52343,-1.23438 35.52344,-1.23438 -10e-6,0 -23.69608,-0.53226 -35.52344,-1.23437 -12.14325,-0.72087 -24.30389,-1.4749 -36.36523,-3.05664 -6.95335,-0.91187 -20.71094,-3.703127 -20.71094,-3.703127 0,0 -13.75757,2.791257 -20.71094,3.703127 -9.68933,1.27066 -19.44228,2.00293 -29.19922,2.61719 -11.63767,-10.599494 -43.43699,-6.433845 -62.50195,-0.0918 C 232.38767,102.1603 230.23177,101.0442 224,96.72 Z m -52.51172,4.755857 c 8.45053,-0.0639 18.80184,1.18552 30.47265,5.08203 -25.90661,8.64942 -45.2576,4.25988 -51.8164,1.41602 0.99083,-0.0597 1.98199,-0.12284 2.97265,-0.18164 11.8274,-0.7021 35.52343,-1.23438 35.52344,-1.23438 -1e-5,0 -23.69604,-0.53226 -35.52344,-1.23437 -0.99654,-0.0592 -1.99352,-0.12359 -2.99023,-0.18359 3.60847,-1.56208 11.0654,-3.58627 21.36133,-3.66407 z m 52.51172,0 11.17578,5.08203 L 224,111.63992 212.82421,106.55789 Z m 52.51171,0 c 10.29593,0.0778 17.75286,2.10199 21.36133,3.66407 -0.99671,0.06 -1.99369,0.12443 -2.99023,0.18359 -11.8274,0.70211 -35.52343,1.23437 -35.52344,1.23437 10e-6,0 23.69604,0.53228 35.52344,1.23438 0.99066,0.0588 1.98182,0.12196 2.97265,0.18164 -6.5588,2.84386 -25.90979,7.2334 -51.8164,-1.41602 11.67081,-3.89651 22.02212,-5.14589 30.47265,-5.08203 z m -180.470697,0.55469 c 0,0 2.9944,1.05575 4.544917,1.37305 2.02796,0.415 4.11165,0.48468 6.17188,0.68554 6.52975,0.63663 13.0675,1.20219 19.61328,1.64454 5.3439,0.36114 16.04687,0.82421 16.04687,0.82421 0,0 -10.70297,0.46114 -16.04687,0.82227 -6.54578,0.44235 -13.08353,1.00987 -19.61328,1.64648 -2.06023,0.20086 -4.14392,0.27055 -6.17188,0.68555 -1.550517,0.31729 -4.544917,1.37109 -4.544917,1.37109 0,0 -2.99441,-1.0538 -4.54492,-1.37109 -2.02796,-0.415 -4.11166,-0.48469 -6.17188,-0.68555 -6.529735,-0.63661 -13.067505,-1.20413 -19.613275,-1.64648 -5.34388,-0.36113 -16.04687,-0.82227 -16.04687,-0.82227 0,0 10.70299,-0.46307 16.04687,-0.82421 6.54577,-0.44235 13.08354,-1.00791 19.613275,-1.64454 2.06022,-0.20086 4.14392,-0.27054 6.17188,-0.68554 1.55051,-0.3173 4.54492,-1.37305 4.54492,-1.37305 z m 255.917967,0 c 0,0 2.99441,1.05575 4.54492,1.37305 2.02796,0.415 4.11166,0.48468 6.17188,0.68554 6.52974,0.63663 13.06751,1.20219 19.61328,1.64454 5.34388,0.36114 16.04687,0.82421 16.04687,0.82421 0,0 -10.70299,0.46114 -16.04687,0.82227 -6.54577,0.44235 -13.08354,1.00987 -19.61328,1.64648 -2.06022,0.20086 -4.14392,0.27055 -6.17188,0.68555 -1.55051,0.31729 -4.54492,1.37109 -4.54492,1.37109 0,0 -2.9944,-1.0538 -4.54492,-1.37109 -2.02796,-0.415 -4.11165,-0.48469 -6.17188,-0.68555 -6.52975,-0.63661 -13.0675,-1.20413 -19.61328,-1.64648 -5.3439,-0.36113 -16.04687,-0.82227 -16.04687,-0.82227 0,0 10.70297,-0.46307 16.04687,-0.82421 6.54578,-0.44235 13.08353,-1.00791 19.61328,-1.64454 2.06023,-0.20086 4.14392,-0.27054 6.17188,-0.68554 1.55052,-0.3173 4.54492,-1.37305 4.54492,-1.37305 z"
       inkscape:label="underline" /></g><g
     inkscape:groupmode="layer"
     id="layer1"
     inkscape:label="new_game_selected"
     transform="translate(482.19953)"
     style="display:inline"><rect
       style="display:inline;fill:#000000;fill-opacity:0;stroke:none;stroke-width:7.72608;stroke-linecap:round;stroke-linejoin:round"
       id="rect1"
       width="470.79968"
       height="133"
       x="-11.399847"
       y="-133"
       inkscape:label="background"
       transform="scale(1,-1)" /><text
       xml:space="preserve"
       style="font-style:normal;font-variant:normal;font-weight:300;font-stretch:semi-condensed;font-size:80px;line-height:1.25;font-family:DAVeau;-inkscape-font-specification:'DAVeau, Light Semi-Condensed';font-variant-ligatures:normal;font-variant-caps:normal;font-variant-numeric:normal;font-variant-east-asian:normal;display:inline;fill:#72080d;fill-opacity:1"
       x="20.200094"
       y="79.639999"
       id="text1"
       inkscape:label="text"><tspan
         sodipodi:role="line"
         id="tspan1"
         x="20.200094"
         y="79.639999"
         style="fill:#72080d;fill-opacity:1">New Game</tspan></text><path
       id="path9"
       style="fill:#72080d;fill-opacity:1;stroke:none;stroke-width:1.00002px;stroke-linecap:butt;stroke-linejoin:miter;stroke-opacity:1"
       d="m 224,96.720003 c -6.23178,4.324197 -8.38768,5.440297 -15.54688,8.072267 -19.06496,-6.342045 -50.86428,-10.507694 -62.50195,0.0918 -9.75694,-0.61426 -19.50989,-1.34653 -29.19922,-2.61719 -6.95336,-0.91187 -20.710937,-3.703124 -20.710937,-3.703124 0,0 -13.757585,2.791254 -20.710935,3.703124 -12.06133,1.58174 -24.22198,2.33577 -36.36523,3.05664 -11.82736,0.70211 -35.5234314,1.23437 -35.5234414,1.23437 1e-5,0 23.6960814,0.53228 35.5234414,1.23438 12.14325,0.72085 24.3039,1.47492 36.36523,3.05664 6.95335,0.91186 20.710935,3.70313 20.710935,3.70313 0,0 13.757577,-2.79127 20.710937,-3.70313 9.68933,-1.27065 19.44228,-2.00292 29.19922,-2.61719 11.63767,10.59949 43.43699,6.43384 62.50195,0.0918 7.1592,2.63197 9.3151,3.74808 15.54688,8.07227 6.23177,-4.32419 8.38767,-5.4403 15.54687,-8.07227 19.06496,6.34204 50.86428,10.50769 62.50195,-0.0918 9.75694,0.61427 19.50989,1.34654 29.19922,2.61719 6.95337,0.91186 20.71094,3.70313 20.71094,3.70313 0,0 13.75759,-2.79127 20.71094,-3.70313 12.06134,-1.58172 24.22198,-2.33579 36.36523,-3.05664 11.82736,-0.7021 35.52343,-1.23438 35.52344,-1.23438 -10e-6,0 -23.69608,-0.53226 -35.52344,-1.23437 -12.14325,-0.72087 -24.30389,-1.4749 -36.36523,-3.05664 -6.95335,-0.91187 -20.71094,-3.703127 -20.71094,-3.703127 0,0 -13.75757,2.791257 -20.71094,3.703127 -9.68933,1.27066 -19.44228,2.00293 -29.19922,2.61719 -11.63767,-10.599494 -43.43699,-6.433845 -62.50195,-0.0918 C 232.38767,102.1603 230.23177,101.0442 224,96.72 Z m -52.51172,4.755857 c 8.45053,-0.0639 18.80184,1.18552 30.47265,5.08203 -25.90661,8.64942 -45.2576,4.25988 -51.8164,1.41602 0.99083,-0.0597 1.98199,-0.12284 2.97265,-0.18164 11.8274,-0.7021 35.52343,-1.23438 35.52344,-1.23438 -1e-5,0 -23.69604,-0.53226 -35.52344,-1.23437 -0.99654,-0.0592 -1.99352,-0.12359 -2.99023,-0.18359 3.60847,-1.56208 11.0654,-3.58627 21.36133,-3.66407 z m 52.51172,0 11.17578,5.08203 L 224,111.63992 212.82421,106.55789 Z m 52.51171,0 c 10.29593,0.0778 17.75286,2.10199 21.36133,3.66407 -0.99671,0.06 -1.99369,0.12443 -2.99023,0.18359 -11.8274,0.70211 -35.52343,1.23437 -35.52344,1.23437 10e-6,0 23.69604,0.53228 35.52344,1.23438 0.99066,0.0588 1.98182,0.12196 2.97265,0.18164 -6.5588,2.84386 -25.90979,7.2334 -51.8164,-1.41602 11.67081,-3.89651 22.02212,-5.14589 30.47265,-5.08203 z m -180.470697,0.55469 c 0,0 2.9944,1.05575 4.544917,1.37305 2.02796,0.415 4.11165,0.48468 6.17188,0.68554 6.52975,0.63663 13.0675,1.20219 19.61328,1.64454 5.3439,0.36114 16.04687,0.82421 16.04687,0.82421 0,0 -10.70297,0.46114 -16.04687,0.82227 -6.54578,0.44235 -13.08353,1.00987 -19.61328,1.64648 -2.06023,0.20086 -4.14392,0.27055 -6.17188,0.68555 -1.550517,0.31729 -4.544917,1.37109 -4.544917,1.37109 0,0 -2.99441,-1.0538 -4.54492,-1.37109 -2.02796,-0.415 -4.11166,-0.48469 -6.17188,-0.68555 -6.529735,-0.63661 -13.067505,-1.20413 -19.613275,-1.64648 -5.34388,-0.36113 -16.04687,-0.82227 -16.04687,-0.82227 0,0 10.70299,-0.46307 16.04687,-0.82421 6.54577,-0.44235 13.08354,-1.00791 19.613275,-1.64454 2.06022,-0.20086 4.14392,-0.27054 6.17188,-0.68554 1.55051,-0.3173 4.54492,-1.37305 4.54492,-1.37305 z m 255.917967,0 c 0,0 2.99441,1.05575 4.54492,1.37305 2.02796,0.415 4.11166,0.48468 6.17188,0.68554 6.52974,0.63663 13.06751,1.20219 19.61328,1.64454 5.34388,0.36114 16.04687,0.82421 16.04687,0.82421 0,0 -10.70299,0.46114 -16.04687,0.82227 -6.54577,0.44235 -13.08354,1.00987 -19.61328,1.64648 -2.06022,0.20086 -4.14392,0.27055 -6.17188,0.68555 -1.55051,0.31729 -4.54492,1.37109 -4.54492,1.37109 0,0 -2.9944,-1.0538 -4.54492,-1.37109 -2.02796,-0.415 -4.11165,-0.48469 -6.17188,-0.68555 -6.52975,-0.63661 -13.0675,-1.20413 -19.61328,-1.64648 -5.3439,-0.36113 -16.04687,-0.82227 -16.04687,-0.82227 0,0 10.70297,-0.46307 16.04687,-0.82421 6.54578,-0.44235 13.08353,-1.00791 19.61328,-1.64454 2.06023,-0.20086 4.14392,-0.27054 6.17188,-0.68554 1.55052,-0.3173 4.54492,-1.37305 4.54492,-1.37305 z"
       inkscape:label="underline" /></g><g
     inkscape:groupmode="layer"
     id="g10"
     inkscape:label="new_game_released"
     transform="translate(11.399847)"
     style="display:inline"><rect
       style="display:inline;fill:#000000;fill-opacity:0;stroke:none;stroke-width:7.72608;stroke-linecap:round;stroke-linejoin:round"
       id="rect9"
       width="470.79968"
       height="133"
       x="-11.399847"
       y="-133"
       inkscape:label="background"
       transform="scale(1,-1)" /><text
       xml:space="preserve"
       style="font-style:normal;font-variant:normal;font-weight:300;font-stretch:semi-condensed;font-size:80px;line-height:1.25;font-family:DAVeau;-inkscape-font-specification:'DAVeau, Light Semi-Condensed';font-variant-ligatures:normal;font-variant-caps:normal;font-variant-numeric:normal;font-variant-east-asian:normal;display:inline;fill:#72080d;fill-opacity:1"
       x="20.200094"
       y="79.639999"
       id="text9"
       inkscape:label="text"><tspan
         sodipodi:role="line"
         id="tspan9"
         x="20.200094"
         y="79.639999"
         style="fill:#72080d;fill-opacity:1">New Game</tspan></text></g><g
     inkscape:groupmode="layer"
     id="g2"
     inkscape:label="load_game_released"
     transform="translate(11.399847,133)"
     style="display:inline"><rect
       style="display:inline;fill:#000000;fill-opacity:0;stroke:none;stroke-width:7.72608;stroke-linecap:round;stroke-linejoin:round"
       id="rect2"
       width="470.79968"
       height="133"
       x="-11.399847"
       y="-133"
       inkscape:label="background"
       transform="scale(1,-1)" /><text
       xml:space="preserve"
       style="font-style:normal;font-variant:normal;font-weight:300;font-stretch:semi-condensed;font-size:80px;line-height:1.25;font-family:DAVeau;-inkscape-font-specification:'DAVeau, Light Semi-Condensed';font-variant-ligatures:normal;font-variant-caps:normal;font-variant-numeric:normal;font-variant-east-asian:normal;display:inline;fill:#72080d;fill-opacity:1"
       x="11.320084"
       y="79.639999"
       id="text2"
       inkscape:label="text"><tspan
         sodipodi:role="line"
         id="tspan2"
         x="11.320084"
         y="79.639999"
         style="fill:#72080d;fill-opacity:1">Load Game</tspan></text></g><g
     inkscape:groupmode="layer"
     id="g3"
     inkscape:label="load_game_selected"
     transform="translate(482.19953,133)"
     style="display:inline"><rect
       style="display:inline;fill:#000000;fill-opacity:0;stroke:none;stroke-width:7.72608;stroke-linecap:round;stroke-linejoin:round"
       id="rect3"
       width="470.79968"
       height="133"
       x="-11.399847"
       y="-133"
       inkscape:label="background"
       transform="scale(1,-1)" /><text
       xml:space="preserve"
       style="font-style:normal;font-variant:normal;font-weight:300;font-stretch:semi-condensed;font-size:80px;line-height:1.25;font-family:DAVeau;-inkscape-font-specification:'DAVeau, Light Semi-Condensed';font-variant-ligatures:normal;font-variant-caps:normal;font-variant-numeric:normal;font-variant-east-asian:normal;display:inline;fill:#72080d;fill-opacity:1"
       x="11.320084"
       y="79.639999"
       id="text3"
       inkscape:label="text"><tspan
         sodipodi:role="line"
         id="tspan3"
         x="11.320084"
         y="79.639999"
         style="fill:#72080d;fill-opacity:1">Load Game</tspan></text><path
       id="path3"
       style="fill:#72080d;fill-opacity:1;stroke:none;stroke-width:1.00002px;stroke-linecap:butt;stroke-linejoin:miter;stroke-opacity:1"
       d="m 224,96.720003 c -6.23178,4.324197 -8.38768,5.440297 -15.54688,8.072267 -19.06496,-6.342045 -50.86428,-10.507694 -62.50195,0.0918 -9.75694,-0.61426 -19.50989,-1.34653 -29.19922,-2.61719 -6.95336,-0.91187 -20.710937,-3.703124 -20.710937,-3.703124 0,0 -13.757585,2.791254 -20.710935,3.703124 -12.06133,1.58174 -24.22198,2.33577 -36.36523,3.05664 -11.82736,0.70211 -35.5234314,1.23437 -35.5234414,1.23437 1e-5,0 23.6960814,0.53228 35.5234414,1.23438 12.14325,0.72085 24.3039,1.47492 36.36523,3.05664 6.95335,0.91186 20.710935,3.70313 20.710935,3.70313 0,0 13.757577,-2.79127 20.710937,-3.70313 9.68933,-1.27065 19.44228,-2.00292 29.19922,-2.61719 11.63767,10.59949 43.43699,6.43384 62.50195,0.0918 7.1592,2.63197 9.3151,3.74808 15.54688,8.07227 6.23177,-4.32419 8.38767,-5.4403 15.54687,-8.07227 19.06496,6.34204 50.86428,10.50769 62.50195,-0.0918 9.75694,0.61427 19.50989,1.34654 29.19922,2.61719 6.95337,0.91186 20.71094,3.70313 20.71094,3.70313 0,0 13.75759,-2.79127 20.71094,-3.70313 12.06134,-1.58172 24.22198,-2.33579 36.36523,-3.05664 11.82736,-0.7021 35.52343,-1.23438 35.52344,-1.23438 -10e-6,0 -23.69608,-0.53226 -35.52344,-1.23437 -12.14325,-0.72087 -24.30389,-1.4749 -36.36523,-3.05664 -6.95335,-0.91187 -20.71094,-3.703127 -20.71094,-3.703127 0,0 -13.75757,2.791257 -20.71094,3.703127 -9.68933,1.27066 -19.44228,2.00293 -29.19922,2.61719 -11.63767,-10.599494 -43.43699,-6.433845 -62.50195,-0.0918 C 232.38767,102.1603 230.23177,101.0442 224,96.72 Z m -52.51172,4.755857 c 8.45053,-0.0639 18.80184,1.18552 30.47265,5.08203 -25.90661,8.64942 -45.2576,4.25988 -51.8164,1.41602 0.99083,-0.0597 1.98199,-0.12284 2.97265,-0.18164 11.8274,-0.7021 35.52343,-1.23438 35.52344,-1.23438 -1e-5,0 -23.69604,-0.53226 -35.52344,-1.23437 -0.99654,-0.0592 -1.99352,-0.12359 -2.99023,-0.18359 3.60847,-1.56208 11.0654,-3.58627 21.36133,-3.66407 z m 52.51172,0 11.17578,5.08203 L 224,111.63992 212.82421,106.55789 Z m 52.51171,0 c 10.29593,0.0778 17.75286,2.10199 21.36133,3.66407 -0.99671,0.06 -1.99369,0.12443 -2.99023,0.18359 -11.8274,0.70211 -35.52343,1.23437 -35.52344,1.23437 10e-6,0 23.69604,0.53228 35.52344,1.23438 0.99066,0.0588 1.98182,0.12196 2.97265,0.18164 -6.5588,2.84386 -25.90979,7.2334 -51.8164,-1.41602 11.67081,-3.89651 22.02212,-5.14589 30.47265,-5.08203 z m -180.470697,0.55469 c 0,0 2.9944,1.05575 4.544917,1.37305 2.02796,0.415 4.11165,0.48468 6.17188,0.68554 6.52975,0.63663 13.0675,1.20219 19.61328,1.64454 5.3439,0.36114 16.04687,0.82421 16.04687,0.82421 0,0 -10.70297,0.46114 -16.04687,0.82227 -6.54578,0.44235 -13.08353,1.00987 -19.61328,1.64648 -2.06023,0.20086 -4.14392,0.27055 -6.17188,0.68555 -1.550517,0.31729 -4.544917,1.37109 -4.544917,1.37109 0,0 -2.99441,-1.0538 -4.54492,-1.37109 -2.02796,-0.415 -4.11166,-0.48469 -6.17188,-0.68555 -6.529735,-0.63661 -13.067505,-1.20413 -19.613275,-1.64648 -5.34388,-0.36113 -16.04687,-0.82227 -16.04687,-0.82227 0,0 10.70299,-0.46307 16.04687,-0.82421 6.54577,-0.44235 13.08354,-1.00791 19.613275,-1.64454 2.06022,-0.20086 4.14392,-0.27054 6.17188,-0.68554 1.55051,-0.3173 4.54492,-1.37305 4.54492,-1.37305 z m 255.917967,0 c 0,0 2.99441,1.05575 4.54492,1.37305 2.02796,0.415 4.11166,0.48468 6.17188,0.68554 6.52974,0.63663 13.06751,1.20219 19.61328,1.64454 5.34388,0.36114 16.04687,0.82421 16.04687,0.82421 0,0 -10.70299,0.46114 -16.04687,0.82227 -6.54577,0.44235 -13.08354,1.00987 -19.61328,1.64648 -2.06022,0.20086 -4.14392,0.27055 -6.17188,0.68555 -1.55051,0.31729 -4.54492,1.37109 -4.54492,1.37109 0,0 -2.9944,-1.0538 -4.54492,-1.37109 -2.02796,-0.415 -4.11165,-0.48469 -6.17188,-0.68555 -6.52975,-0.63661 -13.0675,-1.20413 -19.61328,-1.64648 -5.3439,-0.36113 -16.04687,-0.82227 -16.04687,-0.82227 0,0 10.70297,-0.46307 16.04687,-0.82421 6.54578,-0.44235 13.08353,-1.00791 19.61328,-1.64454 2.06023,-0.20086 4.14392,-0.27054 6.17188,-0.68554 1.55052,-0.3173 4.54492,-1.37305 4.54492,-1.37305 z"
       inkscape:label="underline" /></g><g
     inkscape:groupmode="layer"
     id="g4"
     inkscape:label="load_game_pressed"
     transform="translate(952.99921,133)"
     style="display:inline"><rect
       style="display:inline;fill:#000000;fill-opacity:0;stroke:none;stroke-width:7.72608;stroke-linecap:round;stroke-linejoin:round"
       id="rect4"
       width="470.79968"
       height="133"
       x="-11.399847"
       y="-133"
       inkscape:label="background"
       transform="scale(1,-1)" /><text
       xml:space="preserve"
       style="font-style:normal;font-variant:normal;font-weight:300;font-stretch:semi-condensed;font-size:80px;line-height:1.25;font-family:DAVeau;-inkscape-font-specification:'DAVeau, Light Semi-Condensed';font-variant-ligatures:normal;font-variant-caps:normal;font-variant-numeric:normal;font-variant-east-asian:normal;display:inline;fill:#4b080d;fill-opacity:1"
       x="11.320084"
       y="79.639999"
       id="text4"
       inkscape:label="text"><tspan
         sodipodi:role="line"
         id="tspan4"
         x="11.320084"
         y="79.639999"
         style="fill:#4b080d;fill-opacity:1">Load Game</tspan></text><path
       id="path4"
       style="fill:#72080d;fill-opacity:1;stroke:none;stroke-width:1.00002px;stroke-linecap:butt;stroke-linejoin:miter;stroke-opacity:1"
       d="m 224,96.720003 c -6.23178,4.324197 -8.38768,5.440297 -15.54688,8.072267 -19.06496,-6.342045 -50.86428,-10.507694 -62.50195,0.0918 -9.75694,-0.61426 -19.50989,-1.34653 -29.19922,-2.61719 -6.95336,-0.91187 -20.710937,-3.703124 -20.710937,-3.703124 0,0 -13.757585,2.791254 -20.710935,3.703124 -12.06133,1.58174 -24.22198,2.33577 -36.36523,3.05664 -11.82736,0.70211 -35.5234314,1.23437 -35.5234414,1.23437 1e-5,0 23.6960814,0.53228 35.5234414,1.23438 12.14325,0.72085 24.3039,1.47492 36.36523,3.05664 6.95335,0.91186 20.710935,3.70313 20.710935,3.70313 0,0 13.757577,-2.79127 20.710937,-3.70313 9.68933,-1.27065 19.44228,-2.00292 29.19922,-2.61719 11.63767,10.59949 43.43699,6.43384 62.50195,0.0918 7.1592,2.63197 9.3151,3.74808 15.54688,8.07227 6.23177,-4.32419 8.38767,-5.4403 15.54687,-8.07227 19.06496,6.34204 50.86428,10.50769 62.50195,-0.0918 9.75694,0.61427 19.50989,1.34654 29.19922,2.61719 6.95337,0.91186 20.71094,3.70313 20.71094,3.70313 0,0 13.75759,-2.79127 20.71094,-3.70313 12.06134,-1.58172 24.22198,-2.33579 36.36523,-3.05664 11.82736,-0.7021 35.52343,-1.23438 35.52344,-1.23438 -10e-6,0 -23.69608,-0.53226 -35.52344,-1.23437 -12.14325,-0.72087 -24.30389,-1.4749 -36.36523,-3.05664 -6.95335,-0.91187 -20.71094,-3.703127 -20.71094,-3.703127 0,0 -13.75757,2.791257 -20.71094,3.703127 -9.68933,1.27066 -19.44228,2.00293 -29.19922,2.61719 -11.63767,-10.599494 -43.43699,-6.433845 -62.50195,-0.0918 C 232.38767,102.1603 230.23177,101.0442 224,96.72 Z m -52.51172,4.755857 c 8.45053,-0.0639 18.80184,1.18552 30.47265,5.08203 -25.90661,8.64942 -45.2576,4.25988 -51.8164,1.41602 0.99083,-0.0597 1.98199,-0.12284 2.97265,-0.18164 11.8274,-0.7021 35.52343,-1.23438 35.52344,-1.23438 -1e-5,0 -23.69604,-0.53226 -35.52344,-1.23437 -0.99654,-0.0592 -1.99352,-0.12359 -2.99023,-0.18359 3.60847,-1.56208 11.0654,-3.58627 21.36133,-3.66407 z m 52.51172,0 11.17578,5.08203 L 224,111.63992 212.82421,106.55789 Z m 52.51171,0 c 10.29593,0.0778 17.75286,2.10199 21.36133,3.66407 -0.99671,0.06 -1.99369,0.12443 -2.99023,0.18359 -11.8274,0.70211 -35.52343,1.23437 -35.52344,1.23437 10e-6,0 23.69604,0.53228 35.52344,1.23438 0.99066,0.0588 1.98182,0.12196 2.97265,0.18164 -6.5588,2.84386 -25.90979,7.2334 -51.8164,-1.41602 11.67081,-3.89651 22.02212,-5.14589 30.47265,-5.08203 z m -180.470697,0.55469 c 0,0 2.9944,1.05575 4.544917,1.37305 2.02796,0.415 4.11165,0.48468 6.17188,0.68554 6.52975,0.63663 13.0675,1.20219 19.61328,1.64454 5.3439,0.36114 16.04687,0.82421 16.04687,0.82421 0,0 -10.70297,0.46114 -16.04687,0.82227 -6.54578,0.44235 -13.08353,1.00987 -19.61328,1.64648 -2.06023,0.20086 -4.14392,0.27055 -6.17188,0.68555 -1.550517,0.31729 -4.544917,1.37109 -4.544917,1.37109 0,0 -2.99441,-1.0538 -4.54492,-1.37109 -2.02796,-0.415 -4.11166,-0.48469 -6.17188,-0.68555 -6.529735,-0.63661 -13.067505,-1.20413 -19.613275,-1.64648 -5.34388,-0.36113 -16.04687,-0.82227 -16.04687,-0.82227 0,0 10.70299,-0.46307 16.04687,-0.82421 6.54577,-0.44235 13.08354,-1.00791 19.613275,-1.64454 2.06022,-0.20086 4.14392,-0.27054 6.17188,-0.68554 1.55051,-0.3173 4.54492,-1.37305 4.54492,-1.37305 z m 255.917967,0 c 0,0 2.99441,1.05575 4.54492,1.37305 2.02796,0.415 4.11166,0.48468 6.17188,0.68554 6.52974,0.63663 13.06751,1.20219 19.61328,1.64454 5.34388,0.36114 16.04687,0.82421 16.04687,0.82421 0,0 -10.70299,0.46114 -16.04687,0.82227 -6.54577,0.44235 -13.08354,1.00987 -19.61328,1.64648 -2.06022,0.20086 -4.14392,0.27055 -6.17188,0.68555 -1.55051,0.31729 -4.54492,1.37109 -4.54492,1.37109 0,0 -2.9944,-1.0538 -4.54492,-1.37109 -2.02796,-0.415 -4.11165,-0.48469 -6.17188,-0.68555 -6.52975,-0.63661 -13.0675,-1.20413 -19.61328,-1.64648 -5.3439,-0.36113 -16.04687,-0.82227 -16.04687,-0.82227 0,0 10.70297,-0.46307 16.04687,-0.82421 6.54578,-0.44235 13.08353,-1.00791 19.61328,-1.64454 2.06023,-0.20086 4.14392,-0.27054 6.17188,-0.68554 1.55052,-0.3173 4.54492,-1.37305 4.54492,-1.37305 z"
       inkscape:label="underline" /></g><g
     inkscape:groupmode="layer"
     id="g5"
     inkscape:label="options_released"
     transform="translate(11.399847,266)"
     style="display:inline"><rect
       style="display:inline;fill:#000000;fill-opacity:0;stroke:none;stroke-width:7.72608;stroke-linecap:round;stroke-linejoin:round"
       id="rect5"
       width="470.79968"
       height="133"
       x="-11.399847"
       y="-133"
       inkscape:label="background"
       transform="scale(1,-1)" /><text
       xml:space="preserve"
       style="font-style:normal;font-variant:normal;font-weight:300;font-stretch:semi-condensed;font-size:80px;line-height:1.25;font-family:DAVeau;-inkscape-font-specification:'DAVeau, Light Semi-Condensed';font-variant-ligatures:normal;font-variant-caps:normal;font-variant-numeric:normal;font-variant-east-asian:normal;display:inline;fill:#72080d;fill-opacity:1"
       x="77.520126"
       y="79.639999"
       id="text5"
       inkscape:label="text"><tspan
         sodipodi:role="line"
         id="tspan5"
         x="77.520126"
         y="79.639999"
         style="fill:#72080d;fill-opacity:1">Options</tspan></text></g><g
     inkscape:groupmode="layer"
     id="g6"
     inkscape:label="options_selected"
     transform="translate(482.19953,266)"
     style="display:inline"><rect
       style="display:inline;fill:#000000;fill-opacity:0;stroke:none;stroke-width:7.72608;stroke-linecap:round;stroke-linejoin:round"
       id="rect6"
       width="470.79968"
       height="133"
       x="-11.399847"
       y="-133"
       inkscape:label="background"
       transform="scale(1,-1)" /><text
       xml:space="preserve"
       style="font-style:normal;font-variant:normal;font-weight:300;font-stretch:semi-condensed;font-size:80px;line-height:1.25;font-family:DAVeau;-inkscape-font-specification:'DAVeau, Light Semi-Condensed';font-variant-ligatures:normal;font-variant-caps:normal;font-variant-numeric:normal;font-variant-east-asian:normal;display:inline;fill:#72080d;fill-opacity:1"
       x="77.520126"
       y="79.639999"
       id="text6"
       inkscape:label="text"><tspan
         sodipodi:role="line"
         id="tspan6"
         x="77.520126"
         y="79.639999"
         style="fill:#72080d;fill-opacity:1">Options</tspan></text><path
       id="path6"
       style="fill:#72080d;fill-opacity:1;stroke:none;stroke-width:1.00002px;stroke-linecap:butt;stroke-linejoin:miter;stroke-opacity:1"
       d="m 224,96.720003 c -6.23178,4.324197 -8.38768,5.440297 -15.54688,8.072267 -19.06496,-6.342045 -50.86428,-10.507694 -62.50195,0.0918 -9.75694,-0.61426 -19.50989,-1.34653 -29.19922,-2.61719 -6.95336,-0.91187 -20.710937,-3.703124 -20.710937,-3.703124 0,0 -13.757585,2.791254 -20.710935,3.703124 -12.06133,1.58174 -24.22198,2.33577 -36.36523,3.05664 -11.82736,0.70211 -35.5234314,1.23437 -35.5234414,1.23437 1e-5,0 23.6960814,0.53228 35.5234414,1.23438 12.14325,0.72085 24.3039,1.47492 36.36523,3.05664 6.95335,0.91186 20.710935,3.70313 20.710935,3.70313 0,0 13.757577,-2.79127 20.710937,-3.70313 9.68933,-1.27065 19.44228,-2.00292 29.19922,-2.61719 11.63767,10.59949 43.43699,6.43384 62.50195,0.0918 7.1592,2.63197 9.3151,3.74808 15.54688,8.07227 6.23177,-4.32419 8.38767,-5.4403 15.54687,-8.07227 19.06496,6.34204 50.86428,10.50769 62.50195,-0.0918 9.75694,0.61427 19.50989,1.34654 29.19922,2.61719 6.95337,0.91186 20.71094,3.70313 20.71094,3.70313 0,0 13.75759,-2.79127 20.71094,-3.70313 12.06134,-1.58172 24.22198,-2.33579 36.36523,-3.05664 11.82736,-0.7021 35.52343,-1.23438 35.52344,-1.23438 -10e-6,0 -23.69608,-0.53226 -35.52344,-1.23437 -12.14325,-0.72087 -24.30389,-1.4749 -36.36523,-3.05664 -6.95335,-0.91187 -20.71094,-3.703127 -20.71094,-3.703127 0,0 -13.75757,2.791257 -20.71094,3.703127 -9.68933,1.27066 -19.44228,2.00293 -29.19922,2.61719 -11.63767,-10.599494 -43.43699,-6.433845 -62.50195,-0.0918 C 232.38767,102.1603 230.23177,101.0442 224,96.72 Z m -52.51172,4.755857 c 8.45053,-0.0639 18.80184,1.18552 30.47265,5.08203 -25.90661,8.64942 -45.2576,4.25988 -51.8164,1.41602 0.99083,-0.0597 1.98199,-0.12284 2.97265,-0.18164 11.8274,-0.7021 35.52343,-1.23438 35.52344,-1.23438 -1e-5,0 -23.69604,-0.53226 -35.52344,-1.23437 -0.99654,-0.0592 -1.99352,-0.12359 -2.99023,-0.18359 3.60847,-1.56208 11.0654,-3.58627 21.36133,-3.66407 z m 52.51172,0 11.17578,5.08203 L 224,111.63992 212.82421,106.55789 Z m 52.51171,0 c 10.29593,0.0778 17.75286,2.10199 21.36133,3.66407 -0.99671,0.06 -1.99369,0.12443 -2.99023,0.18359 -11.8274,0.70211 -35.52343,1.23437 -35.52344,1.23437 10e-6,0 23.69604,0.53228 35.52344,1.23438 0.99066,0.0588 1.98182,0.12196 2.97265,0.18164 -6.5588,2.84386 -25.90979,7.2334 -51.8164,-1.41602 11.67081,-3.89651 22.02212,-5.14589 30.47265,-5.08203 z m -180.470697,0.55469 c 0,0 2.9944,1.05575 4.544917,1.37305 2.02796,0.415 4.11165,0.48468 6.17188,0.68554 6.52975,0.63663 13.0675,1.20219 19.61328,1.64454 5.3439,0.36114 16.04687,0.82421 16.04687,0.82421 0,0 -10.70297,0.46114 -16.04687,0.82227 -6.54578,0.44235 -13.08353,1.00987 -19.61328,1.64648 -2.06023,0.20086 -4.14392,0.27055 -6.17188,0.68555 -1.550517,0.31729 -4.544917,1.37109 -4.544917,1.37109 0,0 -2.99441,-1.0538 -4.54492,-1.37109 -2.02796,-0.415 -4.11166,-0.48469 -6.17188,-0.68555 -6.529735,-0.63661 -13.067505,-1.20413 -19.613275,-1.64648 -5.34388,-0.36113 -16.04687,-0.82227 -16.04687,-0.82227 0,0 10.70299,-0.46307 16.04687,-0.82421 6.54577,-0.44235 13.08354,-1.00791 19.613275,-1.64454 2.06022,-0.20086 4.14392,-0.27054 6.17188,-0.68554 1.55051,-0.3173 4.54492,-1.37305 4.54492,-1.37305 z m 255.917967,0 c 0,0 2.99441,1.05575 4.54492,1.37305 2.02796,0.415 4.11166,0.48468 6.17188,0.68554 6.52974,0.63663 13.06751,1.20219 19.61328,1.64454 5.34388,0.36114 16.04687,0.82421 16.04687,0.82421 0,0 -10.70299,0.46114 -16.04687,0.82227 -6.54577,0.44235 -13.08354,1.00987 -19.61328,1.64648 -2.06022,0.20086 -4.14392,0.27055 -6.17188,0.68555 -1.55051,0.31729 -4.54492,1.37109 -4.54492,1.37109 0,0 -2.9944,-1.0538 -4.54492,-1.37109 -2.02796,-0.415 -4.11165,-0.48469 -6.17188,-0.68555 -6.52975,-0.63661 -13.0675,-1.20413 -19.61328,-1.64648 -5.3439,-0.36113 -16.04687,-0.82227 -16.04687,-0.82227 0,0 10.70297,-0.46307 16.04687,-0.82421 6.54578,-0.44235 13.08353,-1.00791 19.61328,-1.64454 2.06023,-0.20086 4.14392,-0.27054 6.17188,-0.68554 1.55052,-0.3173 4.54492,-1.37305 4.54492,-1.37305 z"
       inkscape:label="underline" /></g><g
     inkscape:groupmode="layer"
     id="g7"
     inkscape:label="options_pressed"
     transform="translate(952.99921,266)"
     style="display:inline"><rect
       style="display:inline;fill:#000000;fill-opacity:0;stroke:none;stroke-width:7.72608;stroke-linecap:round;stroke-linejoin:round"
       id="rect7"
       width="470.79968"
       height="133"
       x="-11.399847"
       y="-133"
       inkscape:label="background"
       transform="scale(1,-1)" /><text
       xml:space="preserve"
       style="font-style:normal;font-variant:normal;font-weight:300;font-stretch:semi-condensed;font-size:80px;line-height:1.25;font-family:DAVeau;-inkscape-font-specification:'DAVeau, Light Semi-Condensed';font-variant-ligatures:normal;font-variant-caps:normal;font-variant-numeric:normal;font-variant-east-asian:normal;display:inline;fill:#4b080d;fill-opacity:1"
       x="77.520126"
       y="79.639999"
       id="text7"
       inkscape:label="text"><tspan
         sodipodi:role="line"
         id="tspan7"
         x="77.520126"
         y="79.639999"
         style="fill:#4b080d;fill-opacity:1">Options</tspan></text><path
       id="path7"
       style="fill:#72080d;fill-opacity:1;stroke:none;stroke-width:1.00002px;stroke-linecap:butt;stroke-linejoin:miter;stroke-opacity:1"
       d="m 224,96.720003 c -6.23178,4.324197 -8.38768,5.440297 -15.54688,8.072267 -19.06496,-6.342045 -50.86428,-10.507694 -62.50195,0.0918 -9.75694,-0.61426 -19.50989,-1.34653 -29.19922,-2.61719 -6.95336,-0.91187 -20.710937,-3.703124 -20.710937,-3.703124 0,0 -13.757585,2.791254 -20.710935,3.703124 -12.06133,1.58174 -24.22198,2.33577 -36.36523,3.05664 -11.82736,0.70211 -35.5234314,1.23437 -35.5234414,1.23437 1e-5,0 23.6960814,0.53228 35.5234414,1.23438 12.14325,0.72085 24.3039,1.47492 36.36523,3.05664 6.95335,0.91186 20.710935,3.70313 20.710935,3.70313 0,0 13.757577,-2.79127 20.710937,-3.70313 9.68933,-1.27065 19.44228,-2.00292 29.19922,-2.61719 11.63767,10.59949 43.43699,6.43384 62.50195,0.0918 7.1592,2.63197 9.3151,3.74808 15.54688,8.07227 6.23177,-4.32419 8.38767,-5.4403 15.54687,-8.07227 19.06496,6.34204 50.86428,10.50769 62.50195,-0.0918 9.75694,0.61427 19.50989,1.34654 29.19922,2.61719 6.95337,0.91186 20.71094,3.70313 20.71094,3.70313 0,0 13.75759,-2.79127 20.71094,-3.70313 12.06134,-1.58172 24.22198,-2.33579 36.36523,-3.05664 11.82736,-0.7021 35.52343,-1.23438 35.52344,-1.23438 -10e-6,0 -23.69608,-0.53226 -35.52344,-1.23437 -12.14325,-0.72087 -24.30389,-1.4749 -36.36523,-3.05664 -6.95335,-0.91187 -20.71094,-3.703127 -20.71094,-3.703127 0,0 -13.75757,2.791257 -20.71094,3.703127 -9.68933,1.27066 -19.44228,2.00293 -29.19922,2.61719 -11.63767,-10.599494 -43.43699,-6.433845 -62.50195,-0.0918 C 232.38767,102.1603 230.23177,101.0442 224,96.72 Z m -52.51172,4.755857 c 8.45053,-0.0639 18.80184,1.18552 30.47265,5.08203 -25.90661,8.64942 -45.2576,4.25988 -51.8164,1.41602 0.99083,-0.0597 1.98199,-0.12284 2.97265,-0.18164 11.8274,-0.7021 35.52343,-1.23438 35.52344,-1.23438 -1e-5,0 -23.69604,-0.53226 -35.52344,-1.23437 -0.99654,-0.0592 -1.99352,-0.12359 -2.99023,-0.18359 3.60847,-1.56208 11.0654,-3.58627 21.36133,-3.66407 z m 52.51172,0 11.17578,5.08203 L 224,111.63992 212.82421,106.55789 Z m 52.51171,0 c 10.29593,0.0778 17.75286,2.10199 21.36133,3.66407 -0.99671,0.06 -1.99369,0.12443 -2.99023,0.18359 -11.8274,0.70211 -35.52343,1.23437 -35.52344,1.23437 10e-6,0 23.69604,0.53228 35.52344,1.23438 0.99066,0.0588 1.98182,0.12196 2.97265,0.18164 -6.5588,2.84386 -25.90979,7.2334 -51.8164,-1.41602 11.67081,-3.89651 22.02212,-5.14589 30.47265,-5.08203 z m -180.470697,0.55469 c 0,0 2.9944,1.05575 4.544917,1.37305 2.02796,0.415 4.11165,0.48468 6.17188,0.68554 6.52975,0.63663 13.0675,1.20219 19.61328,1.64454 5.3439,0.36114 16.04687,0.82421 16.04687,0.82421 0,0 -10.70297,0.46114 -16.04687,0.82227 -6.54578,0.44235 -13.08353,1.00987 -19.61328,1.64648 -2.06023,0.20086 -4.14392,0.27055 -6.17188,0.68555 -1.550517,0.31729 -4.544917,1.37109 -4.544917,1.37109 0,0 -2.99441,-1.0538 -4.54492,-1.37109 -2.02796,-0.415 -4.11166,-0.48469 -6.17188,-0.68555 -6.529735,-0.63661 -13.067505,-1.20413 -19.613275,-1.64648 -5.34388,-0.36113 -16.04687,-0.82227 -16.04687,-0.82227 0,0 10.70299,-0.46307 16.04687,-0.82421 6.54577,-0.44235 13.08354,-1.00791 19.613275,-1.64454 2.06022,-0.20086 4.14392,-0.27054 6.17188,-0.68554 1.55051,-0.3173 4.54492,-1.37305 4.54492,-1.37305 z m 255.917967,0 c 0,0 2.99441,1.05575 4.54492,1.37305 2.02796,0.415 4.11166,0.48468 6.17188,0.68554 6.52974,0.63663 13.06751,1.20219 19.61328,1.64454 5.34388,0.36114 16.04687,0.82421 16.04687,0.82421 0,0 -10.70299,0.46114 -16.04687,0.82227 -6.54577,0.44235 -13.08354,1.00987 -19.61328,1.64648 -2.06022,0.20086 -4.14392,0.27055 -6.17188,0.68555 -1.55051,0.31729 -4.54492,1.37109 -4.54492,1.37109 0,0 -2.9944,-1.0538 -4.54492,-1.37109 -2.02796,-0.415 -4.11165,-0.48469 -6.17188,-0.68555 -6.52975,-0.63661 -13.0675,-1.20413 -19.61328,-1.64648 -5.3439,-0.36113 -16.04687,-0.82227 -16.04687,-0.82227 0,0 10.70297,-0.46307 16.04687,-0.82421 6.54578,-0.44235 13.08353,-1.00791 19.61328,-1.64454 2.06023,-0.20086 4.14392,-0.27054 6.17188,-0.68554 1.55052,-0.3173 4.54492,-1.37305 4.54492,-1.37305 z"
       inkscape:label="underline" /></g><g
     inkscape:groupmode="layer"
     id="g8"
     inkscape:label="exit_released"
     transform="translate(11.399847,399)"
     style="display:inline"><rect
       style="display:inline;fill:#000000;fill-opacity:0;stroke:none;stroke-width:7.72608;stroke-linecap:round;stroke-linejoin:round"
       id="rect8"
       width="470.79968"
       height="133"
       x="-11.399847"
       y="-133"
       inkscape:label="background"
       transform="scale(1,-1)" /><text
       xml:space="preserve"
       style="font-style:normal;font-variant:normal;font-weight:300;font-stretch:semi-condensed;font-size:80px;line-height:1.25;font-family:DAVeau;-inkscape-font-specification:'DAVeau, Light Semi-Condensed';font-variant-ligatures:normal;font-variant-caps:normal;font-variant-numeric:normal;font-variant-east-asian:normal;display:inline;fill:#72080d;fill-opacity:1"
       x="150.00002"
       y="79.639999"
       id="text8"
       inkscape:label="text"><tspan
         sodipodi:role="line"
         id="tspan8"
         x="150.00002"
         y="79.639999"
         style="fill:#72080d;fill-opacity:1">Exit</tspan></text></g><g
     inkscape:groupmode="layer"
     id="g12"
     inkscape:label="exit_selected"
     transform="translate(482.19953,399)"
     style="display:inline"><rect
       style="display:inline;fill:#000000;fill-opacity:0;stroke:none;stroke-width:7.72608;stroke-linecap:round;stroke-linejoin:round"
       id="rect10"
       width="470.79968"
       height="133"
       x="-11.399847"
       y="-133"
       inkscape:label="background"
       transform="scale(1,-1)" /><text
       xml:space="preserve"
       style="font-style:normal;font-variant:normal;font-weight:300;font-stretch:semi-condensed;font-size:80px;line-height:1.25;font-family:DAVeau;-inkscape-font-specification:'DAVeau, Light Semi-Condensed';font-variant-ligatures:normal;font-variant-caps:normal;font-variant-numeric:normal;font-variant-east-asian:normal;display:inline;fill:#72080d;fill-opacity:1"
       x="150.00002"
       y="79.639999"
       id="text10"
       inkscape:label="text"><tspan
         sodipodi:role="line"
         id="tspan10"
         x="150.00002"
         y="79.639999"
         style="fill:#72080d;fill-opacity:1">Exit</tspan></text><path
       id="path10"
       style="fill:#72080d;fill-opacity:1;stroke:none;stroke-width:1.00002px;stroke-linecap:butt;stroke-linejoin:miter;stroke-opacity:1"
       d="m 224,96.720003 c -6.23178,4.324197 -8.38768,5.440297 -15.54688,8.072267 -19.06496,-6.342045 -50.86428,-10.507694 -62.50195,0.0918 -9.75694,-0.61426 -19.50989,-1.34653 -29.19922,-2.61719 -6.95336,-0.91187 -20.710937,-3.703124 -20.710937,-3.703124 0,0 -13.757585,2.791254 -20.710935,3.703124 -12.06133,1.58174 -24.22198,2.33577 -36.36523,3.05664 -11.82736,0.70211 -35.5234314,1.23437 -35.5234414,1.23437 1e-5,0 23.6960814,0.53228 35.5234414,1.23438 12.14325,0.72085 24.3039,1.47492 36.36523,3.05664 6.95335,0.91186 20.710935,3.70313 20.710935,3.70313 0,0 13.757577,-2.79127 20.710937,-3.70313 9.68933,-1.27065 19.44228,-2.00292 29.19922,-2.61719 11.63767,10.59949 43.43699,6.43384 62.50195,0.0918 7.1592,2.63197 9.3151,3.74808 15.54688,8.07227 6.23177,-4.32419 8.38767,-5.4403 15.54687,-8.07227 19.06496,6.34204 50.86428,10.50769 62.50195,-0.0918 9.75694,0.61427 19.50989,1.34654 29.19922,2.61719 6.95337,0.91186 20.71094,3.70313 20.71094,3.70313 0,0 13.75759,-2.79127 20.71094,-3.70313 12.06134,-1.58172 24.22198,-2.33579 36.36523,-3.05664 11.82736,-0.7021 35.52343,-1.23438 35.52344,-1.23438 -10e-6,0 -23.69608,-0.53226 -35.52344,-1.23437 -12.14325,-0.72087 -24.30389,-1.4749 -36.36523,-3.05664 -6.95335,-0.91187 -20.71094,-3.703127 -20.71094,-3.703127 0,0 -13.75757,2.791257 -20.71094,3.703127 -9.68933,1.27066 -19.44228,2.00293 -29.19922,2.61719 -11.63767,-10.599494 -43.43699,-6.433845 -62.50195,-0.0918 C 232.38767,102.1603 230.23177,101.0442 224,96.72 Z m -52.51172,4.755857 c 8.45053,-0.0639 18.80184,1.18552 30.47265,5.08203 -25.90661,8.64942 -45.2576,4.25988 -51.8164,1.41602 0.99083,-0.0597 1.98199,-0.12284 2.97265,-0.18164 11.8274,-0.7021 35.52343,-1.23438 35.52344,-1.23438 -1e-5,0 -23.69604,-0.53226 -35.52344,-1.23437 -0.99654,-0.0592 -1.99352,-0.12359 -2.99023,-0.18359 3.60847,-1.56208 11.0654,-3.58627 21.36133,-3.66407 z m 52.51172,0 11.17578,5.08203 L 224,111.63992 212.82421,106.55789 Z m 52.51171,0 c 10.29593,0.0778 17.75286,2.10199 21.36133,3.66407 -0.99671,0.06 -1.99369,0.12443 -2.99023,0.18359 -11.8274,0.70211 -35.52343,1.23437 -35.52344,1.23437 10e-6,0 23.69604,0.53228 35.52344,1.23438 0.99066,0.0588 1.98182,0.12196 2.97265,0.18164 -6.5588,2.84386 -25.90979,7.2334 -51.8164,-1.41602 11.67081,-3.89651 22.02212,-5.14589 30.47265,-5.08203 z m -180.470697,0.55469 c 0,0 2.9944,1.05575 4.544917,1.37305 2.02796,0.415 4.11165,0.48468 6.17188,0.68554 6.52975,0.63663 13.0675,1.20219 19.61328,1.64454 5.3439,0.36114 16.04687,0.82421 16.04687,0.82421 0,0 -10.70297,0.46114 -16.04687,0.82227 -6.54578,0.44235 -13.08353,1.00987 -19.61328,1.64648 -2.06023,0.20086 -4.14392,0.27055 -6.17188,0.68555 -1.550517,0.31729 -4.544917,1.37109 -4.544917,1.37109 0,0 -2.99441,-1.0538 -4.54492,-1.37109 -2.02796,-0.415 -4.11166,-0.48469 -6.17188,-0.68555 -6.529735,-0.63661 -13.067505,-1.20413 -19.613275,-1.64648 -5.34388,-0.36113 -16.04687,-0.82227 -16.04687,-0.82227 0,0 10.70299,-0.46307 16.04687,-0.82421 6.54577,-0.44235 13.08354,-1.00791 19.613275,-1.64454 2.06022,-0.20086 4.14392,-0.27054 6.17188,-0.68554 1.55051,-0.3173 4.54492,-1.37305 4.54492,-1.37305 z m 255.917967,0 c 0,0 2.99441,1.05575 4.54492,1.37305 2.02796,0.415 4.11166,0.48468 6.17188,0.68554 6.52974,0.63663 13.06751,1.20219 19.61328,1.64454 5.34388,0.36114 16.04687,0.82421 16.04687,0.82421 0,0 -10.70299,0.46114 -16.04687,0.82227 -6.54577,0.44235 -13.08354,1.00987 -19.61328,1.64648 -2.06022,0.20086 -4.14392,0.27055 -6.17188,0.68555 -1.55051,0.31729 -4.54492,1.37109 -4.54492,1.37109 0,0 -2.9944,-1.0538 -4.54492,-1.37109 -2.02796,-0.415 -4.11165,-0.48469 -6.17188,-0.68555 -6.52975,-0.63661 -13.0675,-1.20413 -19.61328,-1.64648 -5.3439,-0.36113 -16.04687,-0.82227 -16.04687,-0.82227 0,0 10.70297,-0.46307 16.04687,-0.82421 6.54578,-0.44235 13.08353,-1.00791 19.61328,-1.64454 2.06023,-0.20086 4.14392,-0.27054 6.17188,-0.68554 1.55052,-0.3173 4.54492,-1.37305 4.54492,-1.37305 z"
       inkscape:label="underline" /></g><g
     inkscape:groupmode="layer"
     id="g13"
     inkscape:label="exit_pressed"
     transform="translate(952.99921,399)"
     style="display:inline"><rect
       style="display:inline;fill:#000000;fill-opacity:0;stroke:none;stroke-width:7.72608;stroke-linecap:round;stroke-linejoin:round"
       id="rect12"
       width="470.79968"
       height="133"
       x="-11.399847"
       y="-133"
       inkscape:label="background"
       transform="scale(1,-1)" /><text
       xml:space="preserve"
       style="font-style:normal;font-variant:normal;font-weight:300;font-stretch:semi-condensed;font-size:80px;line-height:1.25;font-family:DAVeau;-inkscape-font-specification:'DAVeau, Light Semi-Condensed';font-variant-ligatures:normal;font-variant-caps:normal;font-variant-numeric:normal;font-variant-east-asian:normal;display:inline;fill:#4b080d;fill-opacity:1"
       x="150.00002"
       y="79.639999"
       id="text12"
       inkscape:label="text"><tspan
         sodipodi:role="line"
         id="tspan12"
         x="150.00002"
         y="79.639999"
         style="fill:#4b080d;fill-opacity:1">Exit</tspan></text><path
       id="path12"
       style="fill:#72080d;fill-opacity:1;stroke:none;stroke-width:1.00002px;stroke-linecap:butt;stroke-linejoin:miter;stroke-opacity:1"
       d="m 224,96.720003 c -6.23178,4.324197 -8.38768,5.440297 -15.54688,8.072267 -19.06496,-6.342045 -50.86428,-10.507694 -62.50195,0.0918 -9.75694,-0.61426 -19.50989,-1.34653 -29.19922,-2.61719 -6.95336,-0.91187 -20.710937,-3.703124 -20.710937,-3.703124 0,0 -13.757585,2.791254 -20.710935,3.703124 -12.06133,1.58174 -24.22198,2.33577 -36.36523,3.05664 -11.82736,0.70211 -35.5234314,1.23437 -35.5234414,1.23437 1e-5,0 23.6960814,0.53228 35.5234414,1.23438 12.14325,0.72085 24.3039,1.47492 36.36523,3.05664 6.95335,0.91186 20.710935,3.70313 20.710935,3.70313 0,0 13.757577,-2.79127 20.710937,-3.70313 9.68933,-1.27065 19.44228,-2.00292 29.19922,-2.61719 11.63767,10.59949 43.43699,6.43384 62.50195,0.0918 7.1592,2.63197 9.3151,3.74808 15.54688,8.07227 6.23177,-4.32419 8.38767,-5.4403 15.54687,-8.07227 19.06496,6.34204 50.86428,10.50769 62.50195,-0.0918 9.75694,0.61427 19.50989,1.34654 29.19922,2.61719 6.95337,0.91186 20.71094,3.70313 20.71094,3.70313 0,0 13.75759,-2.79127 20.71094,-3.70313 12.06134,-1.58172 24.22198,-2.33579 36.36523,-3.05664 11.82736,-0.7021 35.52343,-1.23438 35.52344,-1.23438 -10e-6,0 -23.69608,-0.53226 -35.52344,-1.23437 -12.14325,-0.72087 -24.30389,-1.4749 -36.36523,-3.05664 -6.95335,-0.91187 -20.71094,-3.703127 -20.71094,-3.703127 0,0 -13.75757,2.791257 -20.71094,3.703127 -9.68933,1.27066 -19.44228,2.00293 -29.19922,2.61719 -11.63767,-10.599494 -43.43699,-6.433845 -62.50195,-0.0918 C 232.38767,102.1603 230.23177,101.0442 224,96.72 Z m -52.51172,4.755857 c 8.45053,-0.0639 18.80184,1.18552 30.47265,5.08203 -25.90661,8.64942 -45.2576,4.25988 -51.8164,1.41602 0.99083,-0.0597 1.98199,-0.12284 2.97265,-0.18164 11.8274,-0.7021 35.52343,-1.23438 35.52344,-1.23438 -1e-5,0 -23.69604,-0.53226 -35.52344,-1.23437 -0.99654,-0.0592 -1.99352,-0.12359 -2.99023,-0.18359 3.60847,-1.56208 11.0654,-3.58627 21.36133,-3.66407 z m 52.51172,0 11.17578,5.08203 L 224,111.63992 212.82421,106.55789 Z m 52.51171,0 c 10.29593,0.0778 17.75286,2.10199 21.36133,3.66407 -0.99671,0.06 -1.99369,0.12443 -2.99023,0.18359 -11.8274,0.70211 -35.52343,1.23437 -35.52344,1.23437 10e-6,0 23.69604,0.53228 35.52344,1.23438 0.99066,0.0588 1.98182,0.12196 2.97265,0.18164 -6.5588,2.84386 -25.90979,7.2334 -51.8164,-1.41602 11.67081,-3.89651 22.02212,-5.14589 30.47265,-5.08203 z m -180.470697,0.55469 c 0,0 2.9944,1.05575 4.544917,1.37305 2.02796,0.415 4.11165,0.48468 6.17188,0.68554 6.52975,0.63663 13.0675,1.20219 19.61328,1.64454 5.3439,0.36114 16.04687,0.82421 16.04687,0.82421 0,0 -10.70297,0.46114 -16.04687,0.82227 -6.54578,0.44235 -13.08353,1.00987 -19.61328,1.64648 -2.06023,0.20086 -4.14392,0.27055 -6.17188,0.68555 -1.550517,0.31729 -4.544917,1.37109 -4.544917,1.37109 0,0 -2.99441,-1.0538 -4.54492,-1.37109 -2.02796,-0.415 -4.11166,-0.48469 -6.17188,-0.68555 -6.529735,-0.63661 -13.067505,-1.20413 -19.613275,-1.64648 -5.34388,-0.36113 -16.04687,-0.82227 -16.04687,-0.82227 0,0 10.70299,-0.46307 16.04687,-0.82421 6.54577,-0.44235 13.08354,-1.00791 19.613275,-1.64454 2.06022,-0.20086 4.14392,-0.27054 6.17188,-0.68554 1.55051,-0.3173 4.54492,-1.37305 4.54492,-1.37305 z m 255.917967,0 c 0,0 2.99441,1.05575 4.54492,1.37305 2.02796,0.415 4.11166,0.48468 6.17188,0.68554 6.52974,0.63663 13.06751,1.20219 19.61328,1.64454 5.34388,0.36114 16.04687,0.82421 16.04687,0.82421 0,0 -10.70299,0.46114 -16.04687,0.82227 -6.54577,0.44235 -13.08354,1.00987 -19.61328,1.64648 -2.06022,0.20086 -4.14392,0.27055 -6.17188,0.68555 -1.55051,0.31729 -4.54492,1.37109 -4.54492,1.37109 0,0 -2.9944,-1.0538 -4.54492,-1.37109 -2.02796,-0.415 -4.11165,-0.48469 -6.17188,-0.68555 -6.52975,-0.63661 -13.0675,-1.20413 -19.61328,-1.64648 -5.3439,-0.36113 -16.04687,-0.82227 -16.04687,-0.82227 0,0 10.70297,-0.46307 16.04687,-0.82421 6.54578,-0.44235 13.08353,-1.00791 19.61328,-1.64454 2.06023,-0.20086 4.14392,-0.27054 6.17188,-0.68554 1.55052,-0.3173 4.54492,-1.37305 4.54492,-1.37305 z"
       inkscape:label="underline" /></g></svg>
