<?xml version="1.0" encoding="UTF-8" standalone="no"?>
<!-- Created with Inkscape (http://www.inkscape.org/) -->

<svg
   version="1.1"
   id="svg2"
   width="2240"
   height="133"
   viewBox="0 0 2240 133"
   sodipodi:docname="menu.svg"
   inkscape:version="1.3.2 (091e20ef0f, 2023-11-25, custom)"
   xml:space="preserve"
   inkscape:export-filename="menu.png"
   inkscape:export-xdpi="100"
   inkscape:export-ydpi="100"
   xmlns:inkscape="http://www.inkscape.org/namespaces/inkscape"
   xmlns:sodipodi="http://sodipodi.sourceforge.net/DTD/sodipodi-0.dtd"
   xmlns="http://www.w3.org/2000/svg"
   xmlns:svg="http://www.w3.org/2000/svg"><defs
     id="defs6"><inkscape:path-effect
       effect="mirror_symmetry"
       start_point="0,83.4"
       end_point="448,83.4"
       center_point="224,83.4"
       id="path-effect5"
       is_visible="true"
       lpeversion="1.2"
       lpesatellites=""
       mode="free"
       discard_orig_path="false"
       fuse_paths="false"
       oposite_fuse="false"
       split_items="false"
       split_open="false"
       link_styles="false" /><inkscape:path-effect
       effect="mirror_symmetry"
       start_point="-10,83.3"
       end_point="458,83.3"
       center_point="224,83.3"
       id="path-effect17"
       is_visible="true"
       lpeversion="1.2"
       lpesatellites=""
       mode="free"
       discard_orig_path="false"
       fuse_paths="false"
       oposite_fuse="false"
       split_items="false"
       split_open="false"
       link_styles="false" /><inkscape:path-effect
       effect="mirror_symmetry"
       start_point="213,131.30227"
       end_point="213,147.84953"
       center_point="213,139.5759"
       id="path-effect16"
       is_visible="true"
       lpeversion="1.2"
       lpesatellites=""
       mode="free"
       discard_orig_path="false"
       fuse_paths="false"
       oposite_fuse="false"
       split_items="false"
       split_open="false"
       link_styles="false" /><inkscape:path-effect
       effect="mirror_symmetry"
       start_point="213,131.32635"
       end_point="213,147.87375"
       center_point="213,139.60005"
       id="path-effect14"
       is_visible="true"
       lpeversion="1.2"
       lpesatellites=""
       mode="free"
       discard_orig_path="false"
       fuse_paths="false"
       oposite_fuse="false"
       split_items="false"
       split_open="false"
       link_styles="false" /><inkscape:path-effect
       effect="mirror_symmetry"
       start_point="213,131.99356"
       end_point="213,140.97192"
       center_point="213,136.48274"
       id="path-effect12"
       is_visible="true"
       lpeversion="1.2"
       lpesatellites=""
       mode="free"
       discard_orig_path="false"
       fuse_paths="false"
       oposite_fuse="false"
       split_items="false"
       split_open="false"
       link_styles="false" /><inkscape:path-effect
       effect="mirror_symmetry"
       start_point="213,131.32635"
       end_point="213,147.87375"
       center_point="213,139.60005"
       id="path-effect4"
       is_visible="true"
       lpeversion="1.2"
       lpesatellites=""
       mode="free"
       discard_orig_path="false"
       fuse_paths="false"
       oposite_fuse="false"
       split_items="false"
       split_open="false"
       link_styles="false" /><inkscape:path-effect
       effect="mirror_symmetry"
       start_point="213,131.30227"
       end_point="213,147.84953"
       center_point="213,139.5759"
       id="path-effect3"
       is_visible="true"
       lpeversion="1.2"
       lpesatellites=""
       mode="free"
       discard_orig_path="false"
       fuse_paths="false"
       oposite_fuse="false"
       split_items="false"
       split_open="false"
       link_styles="false" /><inkscape:path-effect
       effect="mirror_symmetry"
       start_point="213,131.99356"
       end_point="213,140.97193"
       center_point="213,136.48274"
       id="path-effect1"
       is_visible="true"
       lpeversion="1.2"
       lpesatellites=""
       mode="free"
       discard_orig_path="false"
       fuse_paths="false"
       oposite_fuse="false"
       split_items="false"
       split_open="false"
       link_styles="false" /></defs><sodipodi:namedview
     id="namedview4"
     pagecolor="#ffffff"
     bordercolor="#111111"
     borderopacity="1"
     inkscape:showpageshadow="0"
     inkscape:pageopacity="0"
     inkscape:pagecheckerboard="1"
     inkscape:deskcolor="#d1d1d1"
     showgrid="false"
     inkscape:zoom="0.35121228"
     inkscape:cx="1157.4197"
     inkscape:cy="111.04395"
     inkscape:window-width="1920"
     inkscape:window-height="1008"
     inkscape:window-x="0"
     inkscape:window-y="0"
     inkscape:window-maximized="1"
     inkscape:current-layer="layer5"><inkscape:grid
       type="xygrid"
       id="grid3115"
       originx="386.943"
       originy="-42.61235"
       spacingy="1"
       spacingx="1"
       units="px"
       visible="false" /></sodipodi:namedview><g
     inkscape:groupmode="layer"
     id="layer1"
     inkscape:label="new_game"><rect
       style="display:inline;fill:#000000;fill-opacity:0;stroke:none;stroke-width:7.53668;stroke-linecap:round;stroke-linejoin:round"
       id="rect1"
       width="448"
       height="133"
       x="0"
       y="-133"
       inkscape:label="background"
       transform="scale(1,-1)" /><path
       style="font-weight:500;font-size:80px;line-height:1.25;font-family:'ITC Benguiat Book';-inkscape-font-specification:'ITC Benguiat Book, Medium';display:inline;fill:#72080d;fill-opacity:1;stroke-width:1.07994"
       d="m 21.05854,45.246873 29.28785,27.473554 v 11.576907 c 0,6.479612 -0.43198,9.676221 -5.44288,10.0218 v 1.209527 h 16.41502 v -1.209527 c -5.0109,-0.345579 -5.44288,-3.542188 -5.44288,-10.0218 V 49.134638 c 0,-6.47961 0.43198,-9.676218 5.44288,-10.021798 V 37.903312 H 45.68106 v 1.209528 c 4.57893,1.209528 4.66533,2.246266 4.66533,5.18369 V 59.847598 L 31.59871,42.309449 c -0.86395,-0.777554 -1.55511,-1.295923 -1.55511,-1.987081 0,-0.518369 0.25918,-0.950343 0.86395,-1.209527 V 37.903312 H 10 v 1.209528 c 5.0109,0.34558 5.44287,3.542188 5.44287,10.021799 v 35.162695 c 0,6.479612 -0.43197,9.676221 -5.44287,10.0218 v 1.209528 h 16.41502 v -1.209528 c -5.0109,-0.345579 -5.35648,-3.542188 -5.35648,-10.0218 z m 88.81394,35.421878 c -3.283,7.34356 -8.20751,10.799354 -15.37828,10.799354 -9.41703,0 -15.72386,-5.615665 -17.53815,-16.069438 l 32.91643,-9.330642 C 106.67587,56.219016 99.67789,51.12172 89.39691,51.12172 c -13.3912,0 -23.06742,9.762616 -23.06742,22.030682 0,13.477594 10.79935,23.672182 26.43682,23.672182 3.97416,0 7.68913,-0.863948 11.40411,-0.863948 0.69116,0 1.38232,0 2.07348,0.0864 l 4.40613,-15.119099 z M 99.5051,64.685707 76.52408,71.16532 c 0,-0.345579 0,-0.604763 0,-0.863948 0,-9.157853 5.09729,-14.687122 11.92248,-14.687122 5.27009,0 8.81228,3.023819 11.05854,9.071457 z m 36.89054,30.065401 c -0.51836,-0.604764 -0.86394,-1.123131 -0.86394,-1.641502 0,-0.777554 0.60476,-2.332661 1.46871,-4.924506 l 5.70206,-16.501411 6.22042,16.846992 c 0.25919,0.691158 1.03674,1.900686 1.03674,4.060557 0,0.863948 -0.34558,1.468712 -1.20953,2.15987 v 0.777553 h 12.95923 v -0.777553 c -1.03674,-0.431974 -1.55511,-0.950343 -1.55511,-1.814291 0,-1.123133 0.60477,-2.937424 1.55511,-5.788454 l 8.20751,-25.140894 c 1.6415,-5.010901 3.11021,-7.86193 6.22043,-8.898668 v -0.777553 h -13.04562 v 0.777553 c 1.98708,0.691159 2.93742,1.900686 2.93742,3.628583 0,0.950343 -0.51837,2.591845 -1.20953,5.0109 l -7.77553,25.400079 -12.52725,-34.039562 -12.00888,33.607588 -6.30683,-25.486474 c -0.77755,-3.023819 -0.86394,-4.83811 -0.86394,-5.097295 0,-1.641502 0.86394,-2.678239 2.67824,-3.023819 v -0.777553 h -16.6742 v 0.777553 c 3.19661,0.950343 3.97416,3.628583 5.18369,7.68914 l 7.86192,26.782398 c 0.60477,2.15987 1.12314,3.974161 1.12314,5.356479 0,0.863947 -0.17279,1.295922 -1.20953,1.814291 v 0.777552 h 12.09527 z m 125.61815,0.777553 v -1.209527 c -5.0109,-0.345579 -5.35648,-3.542188 -5.35648,-10.0218 V 68.055107 c 0,-6.479613 0.34558,-9.676221 5.35648,-10.0218 V 56.823778 H 241.7974 v 1.209529 c 5.0109,0.345579 5.44287,3.542187 5.44287,10.0218 v 16.760595 c 0,5.18369 -1.6415,6.911586 -8.63948,6.911586 -15.11909,0 -25.91845,-12.872828 -25.91845,-28.769476 0,-12.959225 7.77554,-21.425917 19.52523,-21.425917 8.20751,0 14.16876,3.887768 18.05652,11.749695 h 1.20953 l -3.88777,-17.106174 c -1.6415,0.950343 -3.02382,1.468712 -4.49253,1.468712 -2.85103,0 -6.99798,-0.950343 -12.61364,-0.950343 -17.71094,0 -27.73274,9.84901 -27.73274,26.696001 0,20.389179 12.18167,32.57085 34.55793,32.57085 3.3694,0 6.73879,-0.431974 10.10819,-0.431974 z m 32.48439,-25.227289 v 3.714977 c 0,5.183689 -0.43197,9.157852 -2.85103,12.268065 -2.41905,3.110214 -6.39322,5.0109 -10.62656,5.0109 -4.75172,0 -7.60275,-2.678238 -7.60275,-6.738796 0,-6.393218 7.08438,-11.490512 21.08034,-14.255146 z m 14.77352,25.313684 v -0.863948 c -4.75172,-1.555106 -5.44288,-4.060556 -5.44288,-9.330641 v -20.21639 c 0,-4.66532 0,-7.948324 -3.11021,-10.799353 -1.90069,-1.727898 -6.47961,-3.283004 -12.61365,-3.283004 -7.86193,0 -13.21841,2.67824 -15.81025,2.67824 -0.60476,0 -1.6415,-0.259185 -3.11021,-0.863948 l -2.07348,14.16875 h 0.77755 c 3.3694,-7.429954 9.67622,-11.404117 17.79734,-11.404117 6.04764,0 8.81227,2.33266 8.81227,7.084376 v 3.714978 c -20.64836,3.542188 -30.67016,8.985062 -30.67016,19.006862 0,6.825191 5.09729,11.317723 13.90956,11.317723 7.34356,0 12.35446,-2.246265 16.7606,-7.948324 0.43197,2.764635 1.03674,4.924505 2.41905,6.738797 z m 46.56686,-34.471537 c -1.20953,-6.306822 -4.83811,-9.417036 -11.05854,-9.417036 -6.47961,0 -12.52725,3.110214 -18.3157,9.417036 -0.25918,-3.628583 -0.86395,-6.652402 -2.24627,-8.812272 l -11.5769,1.209527 v 0.950343 c 0.17279,0 0.25918,0 0.34558,0 2.93742,0 4.49253,2.85103 4.49253,8.121114 v 25.313685 c 0,4.751715 -1.12313,6.825192 -4.40614,6.825192 v 0.777553 h 18.31571 v -0.777553 c -4.14696,-0.518369 -4.92451,-3.110213 -4.92451,-8.985062 V 74.707507 c 0,-4.83811 0,-8.812272 3.45579,-12.52725 2.93743,-3.110214 6.7388,-4.83811 9.93541,-4.83811 5.87485,0 6.99798,3.283003 6.99798,10.19459 V 86.02523 c 0,5.788453 -0.69116,8.380298 -4.92451,8.725877 v 0.777554 h 19.09326 v -0.777554 c -4.9245,-1.123132 -5.18369,-3.628582 -5.18369,-10.194589 v -9.849011 c 0,-4.83811 0,-8.812272 3.45579,-12.52725 2.85103,-3.110214 6.56601,-4.83811 9.67623,-4.83811 5.78845,0 6.91158,3.455793 6.91158,10.19459 V 86.02523 c 0,5.702058 -0.69116,8.380298 -4.83811,8.725877 v 0.777554 h 18.66128 v -0.777554 c -4.83811,-1.123132 -5.0109,-3.714977 -5.0109,-10.194589 v -17.53815 c 0,-10.108195 -1.90068,-15.291885 -11.05853,-15.291885 -6.04764,0 -12.09528,3.110214 -17.79734,9.417036 z m 81.38389,19.525232 c -3.28301,7.343561 -8.20751,10.799354 -15.37828,10.799354 -9.41704,0 -15.72386,-5.615665 -17.53815,-16.069438 l 32.91643,-9.330642 c -3.19661,-9.84901 -10.19459,-14.946305 -20.47558,-14.946305 -13.3912,0 -23.06742,9.762616 -23.06742,22.030681 0,13.477594 10.79936,23.672183 26.43682,23.672183 3.97416,0 7.68914,-0.863949 11.40412,-0.863949 0.69116,0 1.38232,0 2.07347,0.08639 L 438,80.927935 Z M 426.85507,64.685707 403.87404,71.16532 c 0,-0.345579 0,-0.604763 0,-0.863948 0,-9.157853 5.0973,-14.687122 11.92249,-14.687122 5.27008,0 8.81227,3.023819 11.05854,9.071457 z"
       id="text1-7"
       inkscape:label="text"
       aria-label="New Game" /></g><g
     inkscape:groupmode="layer"
     id="layer2"
     inkscape:label="load_game"><rect
       style="display:inline;fill:#000000;fill-opacity:0;stroke:none;stroke-width:7.53668;stroke-linecap:round;stroke-linejoin:round"
       id="rect4"
       width="448"
       height="133"
       x="448"
       y="-133"
       inkscape:label="background"
       transform="scale(1,-1)" /><path
       style="font-weight:500;font-size:80px;line-height:1.25;font-family:'ITC Benguiat Book';-inkscape-font-specification:'ITC Benguiat Book, Medium';display:inline;fill:#72080d;fill-opacity:1;stroke-width:0.999627"
       d="m 498.54486,74.217118 c -5.75785,11.115848 -11.59567,16.313906 -20.6323,16.313906 -5.51793,0 -5.83782,-2.559044 -5.83782,-8.476833 v -30.86847 c 0,-5.997761 0.31989,-8.956656 4.95815,-9.276536 V 40.789603 H 458 v 1.119582 c 4.63827,0.31988 4.95815,3.278775 4.95815,9.276536 v 32.547843 c 0,5.99776 -0.31988,8.956654 -4.95815,9.276536 v 1.119581 h 29.58895 c 1.5994,0 3.11883,0 4.63827,0.879672 l 7.43722,-20.792235 z M 525.0149,56.783629 c 7.59716,0 13.03513,6.397611 13.03513,17.91331 0,10.955908 -5.03812,16.633788 -12.15546,16.633788 -7.83707,0 -13.1151,-6.397611 -13.1151,-18.07325 0,-10.715998 5.11809,-16.473847 12.23543,-16.473848 z m -21.432,17.35352 c 0,11.755609 9.1166,21.112113 21.83185,21.112113 12.79522,0 21.83185,-9.356505 21.83185,-21.112114 0,-11.75561 -9.1166,-21.112115 -21.83185,-21.112115 -12.71525,0 -21.83185,9.356505 -21.83185,21.112116 z m 75.17187,-3.358746 v 3.438716 c 0,4.798208 -0.39985,8.476834 -2.63902,11.355758 -2.23916,2.878925 -5.91779,4.638268 -9.83632,4.638268 -4.39836,0 -7.03737,-2.479074 -7.03737,-6.23767 0,-5.91779 6.55755,-10.636028 19.51271,-13.195072 z m 13.67489,23.431248 V 93.40995 c -4.39836,-1.439462 -5.03812,-3.758596 -5.03812,-8.636775 V 66.060164 c 0,-4.318387 0,-7.357252 -2.87892,-9.996266 -1.75935,-1.599402 -5.99776,-3.038865 -11.67564,-3.038865 -7.27728,0 -12.23543,2.479074 -14.63454,2.479074 -0.55978,0 -1.51943,-0.239909 -2.87892,-0.799701 l -1.91928,13.115101 h 0.71973 c 3.11883,-6.877431 8.95665,-10.556057 16.47384,-10.556057 5.59791,0 8.15696,2.159194 8.15696,6.557552 v 3.438715 c -19.11286,3.278776 -28.3894,8.316893 -28.3894,17.593429 0,6.317639 4.71824,10.476086 12.87519,10.476086 6.79746,0 11.43573,-2.079223 15.51421,-7.357252 0.39985,2.559044 0.95964,4.558298 2.23916,6.23767 z m 43.10395,-7.597163 v -48.94172 l -12.39537,2.479074 v 0.799701 c 3.83857,0.319881 4.07848,2.319134 4.07848,6.797462 v 6.397611 h -5.19806 c -7.51719,0 -13.43498,0.31988 -18.39313,3.918536 -5.03812,3.678626 -7.83707,9.436476 -7.83707,16.313907 0,7.357252 3.11883,13.275042 8.63677,16.713757 4.07848,2.479074 9.11659,3.038865 15.67415,3.038865 h 19.51271 v -0.719732 c -3.83857,-0.31988 -4.07848,-2.319134 -4.07848,-6.797461 z m -8.31689,3.198805 c -1.83932,0.07997 -3.51869,0.159942 -4.95815,0.159942 -11.19582,0 -17.43349,-5.75785 -17.43349,-15.914057 0,-10.396117 5.43797,-16.233937 15.19432,-16.233937 6.39762,0 7.19732,2.718984 7.19732,8.236923 z m 95.88417,4.318388 V 93.0101 c -4.63826,-0.319882 -4.95814,-3.278776 -4.95814,-9.276536 V 68.699179 c 0,-5.99776 0.31988,-8.956654 4.95814,-9.276535 v -1.119582 h -18.71301 v 1.119582 c 4.63827,0.31988 5.03812,3.278775 5.03812,9.276535 v 15.514205 c 0,4.798208 -1.51943,6.397611 -7.99701,6.397611 -13.99477,0 -23.99104,-11.91555 -23.99104,-26.630054 0,-11.99552 7.19731,-19.832593 18.07325,-19.832593 7.59716,0 13.1151,3.598656 16.71376,10.875938 h 1.11958 L 709.74588,39.1902 c -1.51943,0.879672 -2.79895,1.359493 -4.15845,1.359493 -2.63901,0 -6.47758,-0.879672 -11.67563,-0.879672 -16.39388,0 -25.67042,9.116595 -25.67042,24.710771 0,18.872951 11.27579,30.148739 31.98806,30.148739 3.11883,0 6.23767,-0.39985 9.3565,-0.39985 z M 753.1696,70.778402 v 3.438716 c 0,4.798208 -0.39985,8.476835 -2.63901,11.355758 -2.23917,2.878926 -5.91779,4.638268 -9.83633,4.638268 -4.39835,0 -7.03737,-2.479074 -7.03737,-6.23767 0,-5.91779 6.55755,-10.636028 19.51271,-13.195072 z m 13.6749,23.431249 V 93.40995 c -4.39836,-1.439462 -5.03812,-3.758596 -5.03812,-8.636775 V 66.060164 c 0,-4.318387 0,-7.357252 -2.87893,-9.996266 -1.75934,-1.599402 -5.99776,-3.038865 -11.67564,-3.038865 -7.27728,0 -12.23543,2.479074 -14.63453,2.479074 -0.55979,0 -1.51943,-0.239909 -2.87893,-0.799701 l -1.91928,13.115101 h 0.71973 c 3.11884,-6.877431 8.95666,-10.556057 16.47385,-10.556057 5.59791,0 8.15695,2.159194 8.15695,6.557552 v 3.438715 c -19.11286,3.278776 -28.38939,8.316893 -28.38939,17.593429 0,6.317639 4.71823,10.476086 12.87519,10.476086 6.79746,0 11.43573,-2.079223 15.5142,-7.357252 0.39985,2.559044 0.95964,4.558298 2.23917,6.23767 z m 43.10395,-31.908082 c -1.11959,-5.837819 -4.47833,-8.716744 -10.23618,-8.716744 -5.99776,0 -11.59567,2.878925 -16.95367,8.716744 -0.23991,-3.358745 -0.7997,-6.1577 -2.07922,-8.156954 l -10.716,1.119583 v 0.87967 c 0.15994,0 0.23991,0 0.31988,0 2.71899,0 4.15845,2.639015 4.15845,7.517194 V 87.09231 c 0,4.398357 -1.03961,6.31764 -4.07848,6.31764 v 0.719731 h 16.95367 v -0.719732 c -3.83857,-0.479821 -4.5583,-2.878925 -4.5583,-8.316893 V 74.856879 c 0,-4.478328 0,-8.156954 3.19881,-11.595669 2.71898,-2.878925 6.23767,-4.478327 9.19656,-4.478327 5.43797,0 6.47758,3.038864 6.47758,9.436475 v 17.113608 c 0,5.357999 -0.63976,7.757103 -4.5583,8.076983 v 0.719732 h 17.6734 v -0.719732 c -4.55829,-1.039612 -4.7982,-3.358745 -4.7982,-9.436475 v -9.116595 c 0,-4.478328 0,-8.156954 3.1988,-11.595669 2.63902,-2.878925 6.07773,-4.478327 8.95666,-4.478327 5.35799,0 6.39761,3.198805 6.39761,9.436475 v 17.113608 c 0,5.278029 -0.63977,7.757103 -4.47833,8.076983 v 0.719732 h 17.27355 v -0.719732 c -4.47833,-1.039612 -4.63827,-3.438715 -4.63827,-9.436475 V 67.739537 c 0,-9.356505 -1.75934,-14.154713 -10.23618,-14.154713 -5.59791,0 -11.19582,2.878925 -16.47384,8.716745 z m 75.33182,18.07325 c -3.03887,6.797461 -7.59716,9.996266 -14.23468,9.996266 -8.71675,0 -14.55457,-5.198059 -16.23394,-14.874444 l 30.46862,-8.636774 c -2.9589,-9.116595 -9.43648,-13.834833 -18.95292,-13.834833 -12.39537,0 -21.35203,9.036624 -21.35203,20.392383 0,12.475341 9.99627,21.911815 24.47086,21.911815 3.67863,0 7.11734,-0.799701 10.55606,-0.799701 0.63976,0 1.27952,0 1.91928,0.07997 L 886,80.614728 Z m -9.59642,-14.794474 -21.27205,5.997759 c 0,-0.31988 0,-0.55979 0,-0.799701 0,-8.476834 4.71824,-13.594922 11.03588,-13.594922 4.87817,0 8.15695,2.798954 10.23617,8.396864 z"
       id="text1-7-1"
       inkscape:label="text"
       aria-label="Load Game" /></g><g
     inkscape:groupmode="layer"
     id="layer3"
     inkscape:label="options"><rect
       style="display:inline;fill:#000000;fill-opacity:0;stroke:none;stroke-width:7.53668;stroke-linecap:round;stroke-linejoin:round"
       id="rect2"
       width="448"
       height="133"
       x="896"
       y="-133"
       inkscape:label="background"
       transform="scale(1,-1)" /><path
       style="font-weight:500;font-size:80px;line-height:1.25;font-family:'ITC Benguiat Book';-inkscape-font-specification:'ITC Benguiat Book, Medium';display:inline;fill:#72080d;fill-opacity:1"
       d="m 975.44004,59.86 c 0,16 12.48,27.76 28.15996,27.76 15.68,0 28.16,-11.76 28.16,-27.76 0,-16 -12.48,-27.84 -28.16,-27.84 -15.67996,0 -28.15996,11.84 -28.15996,27.84 z m 9.6,-2.96 c 0,-12.32 7.36,-20.48 16.71996,-20.48 11.12,0 20.56,12 20.56,26.56 0,11.92 -7.44,20.08 -16.72,20.08 -5.6,0 -10.47996,-2.64 -14.47996,-7.92 -3.84,-4.96 -6.08,-11.68 -6.08,-18.24 z M 1040.88,54.02 v 41.92 c 0,4.4 -1.04,6.32 -4.08,6.32 v 0.72 h 16.96 v -0.72 c -3.84,-0.48 -4.56,-2.88 -4.56,-8.32 V 86.5 h 5.28 c 17.68,0 26.24,-5.12 26.24,-19.6 0,-7.2 -3.04,-13.12 -8.64,-16.88 -4.48,-2.96 -9.44,-3.52 -15.68,-3.52 h -20.16 v 0.96 c 3.52,0.72 4.64,2 4.64,6.56 z m 8.32,-3.6 c 1.68,-0.08 3.04,-0.16 4.16,-0.16 11.68,0 18.08,5.84 18.08,16.48 0,9.92 -5.44,15.84 -15.04,15.84 -6.24,0 -7.2,-2.88 -7.2,-9.04 z m 59.76,28.08 c -1.92,2.56 -4.08,3.84 -6.4,3.84 -4,0 -4.48,-3.04 -4.48,-8.96 V 51.3 h 3.12 c 1.28,0 2.64,0 4.08,0.64 l 2.08,-5.6 c -1.52,0.96 -2.64,1.12 -3.52,1.12 -0.48,0 -0.8,0 -1.2,0 h -4.56 V 32.42 l -7.2,3.84 c 0.24,1.68 0.4,2.96 0.4,4.08 0,4.96 -2.72,8.8 -7.44,10.24 v 0.72 h 5.92 v 23.68 c 0,8.56 2.48,12.64 9.12,12.64 2.16,0 4.8,-0.64 8.08,-1.76 l 2.8,-7.2 z m 3.0401,8 h 16.96 v -0.72 c -3.84,-0.48 -4.56,-2.88 -4.56,-8.32 V 46.5 l -12.4,2.48 v 0.8 c 3.04,0 4.08,1.84 4.08,6.24 v 23.44 c 0,4.4 -1.04,6.32 -4.08,6.32 z m 7.84,-56.48 c -2.8,0 -5.2,2.4 -5.2,5.6 0,3.12 2.32,5.52 5.2,5.52 2.88,0 5.2,-2.4 5.2,-5.52 0,-3.04 -2.4,-5.6 -5.2,-5.6 z m 34.72,19.12 c 7.6,0 13.04,6.4 13.04,17.92 0,10.96 -5.04,16.64 -12.16,16.64 -7.84,0 -13.12,-6.4 -13.12,-18.08 0,-10.72 5.12,-16.48 12.24,-16.48 z m -21.44,17.36 c 0,11.76 9.12,21.12 21.84,21.12 12.8,0 21.84,-9.36 21.84,-21.12 0,-11.76 -9.12,-21.12 -21.84,-21.12 -12.72,0 -21.84,9.36 -21.84,21.12 z m 48.3199,20 h 16.96 v -0.72 c -3.84,-0.48 -4.56,-2.88 -4.56,-8.32 V 67.22 c 0,-5.04 0.4,-8.64 3.2,-11.6 2.72,-2.88 6.24,-4.48 9.2,-4.48 5.44,0 6.48,3.04 6.48,9.44 V 77.7 c 0,5.36 -0.64,7.76 -4.56,8.08 v 0.72 h 17.68 v -0.72 c -4.56,-1.04 -4.8,-3.36 -4.8,-9.44 V 60.1 c 0,-9.44 -1.92,-14.16 -10.24,-14.16 -5.92,0 -11.6,2.88 -16.96,8.72 -0.24,-3.36 -0.8,-6.16 -2.08,-8.16 l -10.72,1.12 v 0.88 c 0.16,0 0.24,0 0.32,0 2.72,0 4.16,2.64 4.16,7.52 v 23.44 c 0,4.4 -1.04,6.32 -4.08,6.32 z m 48.48,-0.24 c 1.76,-0.64 2.96,-0.96 3.52,-0.96 2,0 5.92,2.32 12.24,2.32 11.92,0 18.88,-5.76 18.88,-13.84 0,-6.8 -4.4,-9.76 -13.52,-12.24 -7.36,-2 -12.24,-2.72 -12.24,-7.12 0,-3.04 2.48,-4.88 7.12,-4.88 7.68,0 12.8,3.52 14.32,9.68 l 0.8,-0.08 -0.8,-12.88 c -1.44,0.4 -2.4,0.64 -3.04,0.64 -2,0 -5.76,-1.6 -11.28,-1.6 -9.68,0 -15.12,4.8 -15.12,11.44 0,5.76 3.92,8.96 11.92,11.2 8.24,2.32 13.28,2.88 13.28,8.56 0,3.76 -3.76,6.72 -10,6.72 -8.32,0 -14.48,-5.04 -15.84,-13.44 l -0.8,0.08 z"
       id="text1-7-1-4"
       inkscape:label="text"
       aria-label="Options" /></g><g
     inkscape:groupmode="layer"
     id="layer4"
     inkscape:label="credits"><rect
       style="display:inline;fill:#000000;fill-opacity:0;stroke:none;stroke-width:7.53668;stroke-linecap:round;stroke-linejoin:round"
       id="rect3"
       width="448"
       height="133"
       x="1344"
       y="-133"
       inkscape:label="background"
       transform="scale(1,-1)" /><path
       style="font-weight:500;font-size:80px;line-height:1.25;font-family:'ITC Benguiat Book';-inkscape-font-specification:'ITC Benguiat Book, Medium';display:inline;fill:#72080d;fill-opacity:1"
       d="m 1487.5601,77.820001 c -4,8.72 -9.36,12.88 -16.8,12.88 -13.4401,0 -23.5201,-12 -23.5201,-26.72 0,-12 7.2001,-19.840002 17.7601,-19.840002 7.52,0 13.36,3.680002 16.72,10.880002 h 1.12 L 1479.24,39.179999 c -1.6,1.04 -2.88,1.36 -4.48,1.36 -3.0399,0 -6.88,-0.88 -11.6799,-0.88 -15.76,0 -24.96,9.200002 -24.96,25.120001 0,18.480001 11.28,30.560001 30.4799,30.560001 3.28,0 6.56,-0.560001 10.0801,-0.560001 0.72,0 1.9199,0 3.6,0.16 l 6.56,-17.12 z m 7.92,-14.16 v 23.44 c 0,4.399999 -1.04,6.319999 -4.08,6.319999 v 0.72 h 16.96 v -0.72 c -3.84,-0.479999 -4.56,-2.879999 -4.56,-8.319999 v -9.84 c 0,-10.32 2.88,-15.28 9.04,-15.28 1.76,0 3.36,0.48 5.2,1.36 l 1.76,-8 c -1.36,-0.16 -2.48,-0.32 -3.52,-0.32 -4.64,0 -9.2,2.8 -12.56,8.16 -0.08,-2.4 -0.64,-4.72 -2,-7.04 l -10.72,1.12 v 0.88 c 0.16,0 0.24,0 0.32,0 2.72,0 4.16,2.64 4.16,7.52 z m 66.64,16.719999 c -3.04,6.8 -7.6,10 -14.24,10 -8.72,0 -14.56,-5.2 -16.24,-14.88 l 30.48,-8.64 c -2.96,-9.12 -9.44,-13.84 -18.96,-13.84 -12.4001,0 -21.3601,9.04 -21.3601,20.4 0,12.48 10,21.92 24.48,21.92 3.6801,0 7.1201,-0.8 10.56,-0.8 0.64,0 1.2801,0 1.92,0.08 l 4.08,-14 z m -9.6,-14.8 -21.2801,6 c 0,-0.319999 0,-0.56 0,-0.8 0,-8.479999 4.7201,-13.599999 11.04,-13.599999 4.8801,0 8.1601,2.8 10.2401,8.399999 z M 1606.36,86.62 V 37.659999 l -12.4,2.48 v 0.8 c 3.84,0.32 4.08,2.32 4.08,6.800001 v 6.400001 h -5.2 c -7.52,0 -13.44,0.32 -18.4,3.92 -5.04,3.68 -7.84,9.439999 -7.84,16.32 0,7.36 3.12,13.28 8.64,16.72 4.08,2.479999 9.12,3.039999 15.68,3.039999 h 19.52 v -0.72 c -3.84,-0.319999 -4.08,-2.319999 -4.08,-6.8 z m -8.3201,3.2 c -1.8399,0.08 -3.52,0.16 -4.96,0.16 -11.1999,0 -17.44,-5.76 -17.44,-15.92 0,-10.4 5.44,-16.24 15.2001,-16.24 6.4,0 7.1999,2.72 7.1999,8.24 z m 17.2801,4.32 h 16.96 v -0.72 c -3.84,-0.48 -4.56,-2.88 -4.56,-8.32 V 54.14 l -12.4,2.48 v 0.8 c 3.04,0 4.08,1.84 4.08,6.24 V 87.1 c 0,4.4 -1.04,6.32 -4.08,6.32 z m 7.84,-56.480001 c -2.8,0 -5.2,2.4 -5.2,5.6 0,3.12 2.3199,5.520001 5.2,5.520001 2.88,0 5.2,-2.400001 5.2,-5.520001 0,-3.04 -2.4,-5.6 -5.2,-5.6 z M 1660.2799,86.14 c -1.92,2.560001 -4.0799,3.840001 -6.4,3.840001 -4,0 -4.48,-3.04 -4.48,-8.96 v -22.08 h 3.12 c 1.28,0 2.64,0 4.08,0.64 l 2.08,-5.6 c -1.52,0.96 -2.64,1.12 -3.52,1.12 -0.48,0 -0.8,0 -1.2,0 h -4.56 V 40.059999 l -7.2,3.84 c 0.24,1.68 0.4,2.96 0.4,4.080002 0,4.96 -2.72,8.8 -7.44,10.239999 v 0.72 h 5.92 v 23.680001 c 0,8.56 2.48,12.64 9.12,12.64 2.16,0 4.8,-0.64 8.08,-1.760001 l 2.8,-7.2 z m 2.9601,7.760001 c 1.76,-0.64 2.96,-0.960001 3.5199,-0.960001 2,0 5.9201,2.320001 12.2401,2.320001 11.92,0 18.88,-5.760001 18.88,-13.840001 0,-6.799999 -4.4,-9.759999 -13.52,-12.239999 -7.36,-2 -12.24,-2.72 -12.24,-7.120001 0,-3.039999 2.48,-4.879999 7.12,-4.879999 7.68,0 12.7999,3.52 14.3199,9.679999 l 0.8,-0.08 -0.8,-12.88 c -1.44,0.4 -2.4,0.640001 -3.04,0.640001 -2,0 -5.76,-1.6 -11.2799,-1.6 -9.6801,0 -15.12,4.799999 -15.12,11.44 0,5.759999 3.92,8.96 11.92,11.199999 8.24,2.320001 13.28,2.880001 13.28,8.56 0,3.760001 -3.76,6.72 -10,6.72 -8.32,0 -14.48,-5.039999 -15.84,-13.44 l -0.8,0.08 z"
       id="text1-7-1-4-8"
       inkscape:label="text"
       aria-label="Credits" /></g><g
     inkscape:groupmode="layer"
     id="layer5"
     inkscape:label="exit"><rect
       style="display:inline;fill:#000000;fill-opacity:0;stroke:none;stroke-width:7.53668;stroke-linecap:round;stroke-linejoin:round"
       id="rect5"
       width="448"
       height="133"
       x="1792"
       y="-133"
       inkscape:label="background"
       transform="scale(1,-1)" /><path
       style="font-weight:500;font-size:80px;line-height:1.25;font-family:'ITC Benguiat Book';-inkscape-font-specification:'ITC Benguiat Book, Medium';display:inline;fill:#72080d;fill-opacity:1"
       d="m 1949.12,94.180001 h 34.32 c 1.6,0 3.12,0 4.64,0.879999 l 6.64,-20.799999 h -1.04 C 1988.48,85.06 1980.8,90.5 1971.44,90.5 c -7.76,0 -8.24,-2.48 -8.24,-8.159999 V 59.78 h 4.56 c 7.2,0 10,2.16 12.56,9.36 h 1.12 l -2.96,-18.56 h -1.12 c -0.72,4.32 -2.8,5.04 -8.4,5.04 h -5.76 V 50.9 c 0,-4.960001 0.96,-6.160001 6.32,-6.160001 9.04,0 16.32,4.640002 19.52,11.920001 h 1.12 L 1986,39.219999 c -0.96,1.12 -2.56,1.6 -4.88,1.6 h -32 v 1.12 c 4.64,0.32 4.96,3.28 4.96,9.280001 v 32.56 c 0,6 -0.32,8.960001 -4.96,9.28 z m 56.2401,-0.72 c -1.6,-0.16 -2.24,-0.880001 -2.24,-2.240001 0,-1.2 0.96,-2.479999 2.32,-4.319999 l 7.44,-10.320001 5.68,8.64 c 1.84,2.880001 3.04,4.72 3.04,6.08 0,1.040001 -0.48,1.520001 -1.76,2.160001 v 0.72 h 16.24 v -0.72 c -2.96,-1.12 -4.96,-4.240001 -7.84,-8.56 l -10,-15.2 6.32,-8.240001 c 2.4,-3.04 4.64,-5.36 8.48,-6.56 v -0.72 h -13.12 v 0.72 c 1.52,0.24 2.16,0.72 2.16,2.08 0,1.44 -1.04,2.64 -2.32,4.32 l -3.76,5.040001 -3.2,-4.880001 c -1.12,-1.76 -1.92,-2.96 -1.92,-4 0,-1.52 0.64,-2.32 2.08,-2.56 v -0.719999 h -16.72 V 54.9 c 3.2,0.800001 4.88,3.280001 7.12,6.800001 l 7.2,11.2 -8.88,11.84 c -3.84,5.119999 -6.16,8.24 -8.96,8.72 v 0.72 h 12.64 z m 31.76,0.72 h 16.96 v -0.72 c -3.84,-0.48 -4.56,-2.880001 -4.56,-8.320001 V 54.180001 l -12.4,2.48 v 0.8 c 3.04,0 4.08,1.84 4.08,6.24 v 23.44 c 0,4.4 -1.04,6.32 -4.08,6.32 z M 2044.9601,37.7 c -2.8,0 -5.2,2.399999 -5.2,5.599999 0,3.12 2.32,5.520001 5.2,5.520001 2.88,0 5.2,-2.400001 5.2,-5.520001 0,-3.04 -2.4,-5.599999 -5.2,-5.599999 z m 37.12,48.480001 c -1.92,2.56 -4.08,3.84 -6.4,3.84 -4,0 -4.48,-3.04 -4.48,-8.960001 V 58.980001 h 3.1199 c 1.28,0 2.6401,0 4.08,0.64 l 2.08,-5.6 c -1.52,0.96 -2.64,1.12 -3.52,1.12 -0.48,0 -0.8,0 -1.2,0 h -4.56 V 40.099999 l -7.2,3.84 c 0.24,1.68 0.4,2.96 0.4,4.080002 0,4.96 -2.72,8.8 -7.44,10.239999 v 0.72 h 5.92 v 23.68 c 0,8.56 2.48,12.64 9.12,12.64 2.16,0 4.8,-0.64 8.08,-1.759999 l 2.8,-7.2 z"
       id="text1-7-1-4-8-2"
       inkscape:label="exit"
       aria-label="Exit" /></g></svg>
