<?xml version="1.0" encoding="UTF-8" standalone="no"?>
<!-- Created with Inkscape (http://www.inkscape.org/) -->

<svg
   version="1.1"
   id="svg2"
   width="448"
   height="133.00002"
   viewBox="0 0 448 133.00002"
   sodipodi:docname="menu_border.svg"
   inkscape:version="1.3.2 (091e20ef0f, 2023-11-25, custom)"
   xml:space="preserve"
   inkscape:export-filename="menu_border.png"
   inkscape:export-xdpi="100"
   inkscape:export-ydpi="100"
   xmlns:inkscape="http://www.inkscape.org/namespaces/inkscape"
   xmlns:sodipodi="http://sodipodi.sourceforge.net/DTD/sodipodi-0.dtd"
   xmlns="http://www.w3.org/2000/svg"
   xmlns:svg="http://www.w3.org/2000/svg"><defs
     id="defs6"><inkscape:path-effect
       effect="mirror_symmetry"
       start_point="0,83.4"
       end_point="448,83.4"
       center_point="224,83.4"
       id="path-effect5"
       is_visible="true"
       lpeversion="1.2"
       lpesatellites=""
       mode="free"
       discard_orig_path="false"
       fuse_paths="false"
       oposite_fuse="false"
       split_items="false"
       split_open="false"
       link_styles="false" /><inkscape:path-effect
       effect="mirror_symmetry"
       start_point="-10,83.3"
       end_point="458,83.3"
       center_point="224,83.3"
       id="path-effect17"
       is_visible="true"
       lpeversion="1.2"
       lpesatellites=""
       mode="free"
       discard_orig_path="false"
       fuse_paths="false"
       oposite_fuse="false"
       split_items="false"
       split_open="false"
       link_styles="false" /><inkscape:path-effect
       effect="mirror_symmetry"
       start_point="213,131.30227"
       end_point="213,147.84953"
       center_point="213,139.5759"
       id="path-effect16"
       is_visible="true"
       lpeversion="1.2"
       lpesatellites=""
       mode="free"
       discard_orig_path="false"
       fuse_paths="false"
       oposite_fuse="false"
       split_items="false"
       split_open="false"
       link_styles="false" /><inkscape:path-effect
       effect="mirror_symmetry"
       start_point="213,131.32635"
       end_point="213,147.87375"
       center_point="213,139.60005"
       id="path-effect14"
       is_visible="true"
       lpeversion="1.2"
       lpesatellites=""
       mode="free"
       discard_orig_path="false"
       fuse_paths="false"
       oposite_fuse="false"
       split_items="false"
       split_open="false"
       link_styles="false" /><inkscape:path-effect
       effect="mirror_symmetry"
       start_point="213,131.99356"
       end_point="213,140.97192"
       center_point="213,136.48274"
       id="path-effect12"
       is_visible="true"
       lpeversion="1.2"
       lpesatellites=""
       mode="free"
       discard_orig_path="false"
       fuse_paths="false"
       oposite_fuse="false"
       split_items="false"
       split_open="false"
       link_styles="false" /><inkscape:path-effect
       effect="mirror_symmetry"
       start_point="213,131.32635"
       end_point="213,147.87375"
       center_point="213,139.60005"
       id="path-effect4"
       is_visible="true"
       lpeversion="1.2"
       lpesatellites=""
       mode="free"
       discard_orig_path="false"
       fuse_paths="false"
       oposite_fuse="false"
       split_items="false"
       split_open="false"
       link_styles="false" /><inkscape:path-effect
       effect="mirror_symmetry"
       start_point="213,131.30227"
       end_point="213,147.84953"
       center_point="213,139.5759"
       id="path-effect3"
       is_visible="true"
       lpeversion="1.2"
       lpesatellites=""
       mode="free"
       discard_orig_path="false"
       fuse_paths="false"
       oposite_fuse="false"
       split_items="false"
       split_open="false"
       link_styles="false" /><inkscape:path-effect
       effect="mirror_symmetry"
       start_point="213,131.99356"
       end_point="213,140.97193"
       center_point="213,136.48274"
       id="path-effect1"
       is_visible="true"
       lpeversion="1.2"
       lpesatellites=""
       mode="free"
       discard_orig_path="false"
       fuse_paths="false"
       oposite_fuse="false"
       split_items="false"
       split_open="false"
       link_styles="false" /></defs><sodipodi:namedview
     id="namedview4"
     pagecolor="#ffffff"
     bordercolor="#111111"
     borderopacity="1"
     inkscape:showpageshadow="0"
     inkscape:pageopacity="0"
     inkscape:pagecheckerboard="1"
     inkscape:deskcolor="#d1d1d1"
     showgrid="false"
     inkscape:zoom="1.9867566"
     inkscape:cx="217.43982"
     inkscape:cy="61.909949"
     inkscape:window-width="1920"
     inkscape:window-height="1008"
     inkscape:window-x="0"
     inkscape:window-y="0"
     inkscape:window-maximized="1"
     inkscape:current-layer="layer1"><inkscape:grid
       type="xygrid"
       id="grid3115"
       originx="386.94299"
       originy="-42.612351"
       spacingy="1"
       spacingx="1"
       units="px"
       visible="false" /></sodipodi:namedview><g
     inkscape:groupmode="layer"
     id="layer1"
     inkscape:label="decoration"><path
       style="fill:#72080d;fill-opacity:1;stroke:none;stroke-width:1.05444px;stroke-linecap:butt;stroke-linejoin:miter;stroke-opacity:1"
       d="m 224,116.62074 c 0,0 -0.7814,0.0193 -1.11142,0.19264 -0.58772,0.30878 -0.95149,0.90865 -1.36473,1.41384 -0.50412,0.61628 -1.34979,1.96064 -1.34979,1.96064 0,0 -0.0938,-0.93351 -0.28022,-1.35961 -0.17555,-0.40122 -0.3698,-0.86857 -0.76809,-1.07825 -0.36313,-0.19117 -0.93959,-0.31033 -1.2427,-0.0398 -0.42166,0.37629 -0.17439,1.1128 -0.0625,1.65402 0.13561,0.65617 0.8678,1.82675 0.8678,1.82675 0,0 -1.11209,-0.058 -1.66224,-0.13561 -0.67282,-0.0949 -1.99644,-0.40245 -1.99644,-0.40245 0,0 -0.13824,1.14595 0.60399,2.27843 0.72172,1.10121 1.97638,1.88274 3.23519,2.37144 1.59584,0.61955 5.13117,0.57792 5.13117,0.57792 z m 0,0 c 0,0 0.78141,0.0193 1.11143,0.19264 0.58771,0.30878 0.95148,0.90865 1.36473,1.41384 0.50411,0.61628 1.34978,1.96064 1.34978,1.96064 0,0 0.0938,-0.93351 0.28022,-1.35961 0.17555,-0.40122 0.3698,-0.86857 0.76809,-1.07825 0.36313,-0.19117 0.9396,-0.31033 1.2427,-0.0398 0.42167,0.37629 0.1744,1.1128 0.0625,1.65402 -0.13561,0.65617 -0.86781,1.82675 -0.86781,1.82675 0,0 1.1121,-0.058 1.66224,-0.13561 0.67282,-0.0949 1.99645,-0.40245 1.99645,-0.40245 0,0 0.13824,1.14595 -0.60399,2.27843 -0.72173,1.10121 -1.97639,1.88274 -3.23519,2.37144 C 227.53533,125.92232 224,125.88069 224,125.88069 Z m 0,-100.241477 c 0,0 -0.7814,-0.01929 -1.11142,-0.19264 -0.58772,-0.308778 -0.95149,-0.908646 -1.36473,-1.41384 -0.50412,-0.616278 -1.34979,-1.96064 -1.34979,-1.96064 0,0 -0.0938,0.933514 -0.28022,1.359607 -0.17555,0.401225 -0.3698,0.868575 -0.76809,1.078254 -0.36313,0.191165 -0.93959,0.310326 -1.2427,0.03981 -0.42166,-0.376295 -0.17439,-1.112807 -0.0625,-1.654028 0.13561,-0.656163 0.8678,-1.826741 0.8678,-1.826741 0,0 -1.11209,0.05797 -1.66224,0.135602 -0.67282,0.09489 -1.99644,0.402453 -1.99644,0.402453 0,0 -0.13824,-1.145947 0.60399,-2.278434 0.72172,-1.1012036 1.97638,-1.8827369 3.23519,-2.3714376 C 220.46467,7.0776837 224,7.1193122 224,7.1193122 Z m 0,0 c 0,0 0.78141,-0.01929 1.11143,-0.19264 0.58771,-0.308778 0.95148,-0.908646 1.36473,-1.41384 0.50411,-0.616278 1.34978,-1.96064 1.34978,-1.96064 0,0 0.0938,0.933514 0.28022,1.359607 0.17555,0.401225 0.3698,0.868575 0.76809,1.078254 0.36313,0.191165 0.9396,0.310326 1.2427,0.03981 0.42167,-0.376295 0.1744,-1.112807 0.0625,-1.654028 -0.13561,-0.656163 -0.86781,-1.826741 -0.86781,-1.826741 0,0 1.1121,0.05797 1.66224,0.135602 0.67282,0.09489 1.99645,0.402453 1.99645,0.402453 0,0 0.13824,-1.145947 -0.60399,-2.278434 -0.7217,-1.1012006 -1.97636,-1.8827339 -3.23516,-2.3714346 C 227.53533,7.0776837 224,7.1193122 224,7.1193122 Z"
       id="path1"
       sodipodi:nodetypes="caacaaaacacsacc" /><path
       id="path2"
       style="fill:#72080d;fill-opacity:1;stroke:none;stroke-width:1.05444px;stroke-linecap:butt;stroke-linejoin:miter;stroke-opacity:1"
       d="m 186.14242,115.93641 c -3.17173,-0.0621 -8.98929,0.62621 -13.15613,2.11165 -2.55214,0.90982 -7.17609,3.85837 -6.97802,4.06684 0,0 -7.71097,-3.72873 -11.88089,-4.64344 -7.41438,-1.6264 -15.17253,-1.63754 -22.77434,-1.3759 -7.5618,0.26026 -15.03039,1.73402 -22.49433,2.92304 -10.368311,1.65169 -20.544092,4.3297 -30.934956,5.8461 -11.063389,1.61456 -22.196405,3.03836 -33.379351,3.45286 -12.214152,0.45273 -24.45254,-0.35125 -36.6532827,-1.06164 C 5.2551019,127.10244 3.437503e-8,126.56495 3.437503e-8,126.56495 c 0,0 4.99235056562497,1.73654 7.59215016562497,2.19178 7.6734228,1.34368 15.5479238,1.38396 23.3470188,1.54311 9.287442,0.18953 17.531525,0.40371 26.79858,-0.21456 8.53783,-0.56961 18.125089,-1.93453 26.571748,-3.25442 7.156447,-1.11827 14.130808,-3.15955 21.273183,-4.35738 8.46652,-1.41989 16.9605,-2.97374 25.54718,-3.3481 7.28104,-0.31746 14.68055,-0.34728 21.84375,0.94076 3.86101,0.69428 11.16295,3.61806 11.16295,3.61806 -0.94734,1.12001 -1.42157,2.2464 -1.5896,3.51195 -0.16452,1.23921 -0.133,2.6666 0.60847,3.702 0.82556,1.15285 2.33165,2.13218 3.79186,2.10114 1.57594,-0.0335 3.28361,-1.08811 3.98346,-2.43958 0.64145,-1.2387 0.19501,-2.85493 -0.35371,-4.13376 -0.46056,-1.07337 -2.33702,-2.66721 -2.33702,-2.66721 -0.29463,-0.4581 4.33404,-3.2002 6.88683,-3.99679 4.40478,-1.37448 9.22458,-1.39578 13.84947,-1.13214 4.15691,0.23695 8.26,1.23458 12.23461,2.42345 1.98883,0.59489 5.752,2.33883 5.752,2.33883 l 6.5605,3.90412 c 0,0 -4.09398,-4.43368 -6.66577,-6.00525 -3.41669,-2.08785 -7.30945,-3.58198 -11.28717,-4.33118 -3.07671,-0.57951 -6.25635,-0.96127 -9.42807,-1.02337 z m -19.59937,9.22443 c 0,0 1.7111,1.13007 2.09013,2.00041 0.33505,0.76932 0.5988,1.88484 0.0114,2.50027 -0.65377,0.68503 -2.12952,0.80588 -2.89774,0.23997 -0.92348,-0.6803 -0.92899,-2.22638 -0.59919,-3.29595 0.19391,-0.62892 1.39537,-1.4447 1.39537,-1.4447 z m 95.31454,-9.22443 c 3.17172,-0.0621 8.98929,0.62621 13.15613,2.11165 2.55214,0.90982 7.17608,3.85837 6.97802,4.06684 0,0 7.71096,-3.72873 11.88089,-4.64344 7.41438,-1.6264 15.17253,-1.63754 22.77434,-1.3759 7.56179,0.26026 15.03039,1.73402 22.49432,2.92304 10.36832,1.65169 20.5441,4.3297 30.93497,5.8461 11.06338,1.61456 22.1964,3.03836 33.37934,3.45286 12.21415,0.45273 24.45254,-0.35125 36.65328,-1.06164 2.63602,-0.15348 7.89112,-0.69097 7.89112,-0.69097 0,0 -4.99234,1.73654 -7.59214,2.19178 -7.67343,1.34368 -15.54793,1.38396 -23.34703,1.54311 -9.28744,0.18953 -17.53152,0.40371 -26.79857,-0.21456 -8.53783,-0.56961 -18.1251,-1.93453 -26.57175,-3.25442 -7.15644,-1.11827 -14.13081,-3.15955 -21.27318,-4.35738 -8.46652,-1.41989 -16.96051,-2.97374 -25.54719,-3.3481 -7.28104,-0.31746 -14.68054,-0.34728 -21.84375,0.94076 -3.861,0.69428 -11.16294,3.61806 -11.16294,3.61806 0.94733,1.12001 1.42157,2.2464 1.58959,3.51195 0.16452,1.23921 0.133,2.6666 -0.60846,3.702 -0.82557,1.15285 -2.33165,2.13218 -3.79187,2.10114 -1.57593,-0.0335 -3.28361,-1.08811 -3.98345,-2.43958 -0.64145,-1.2387 -0.19502,-2.85493 0.3537,-4.13376 0.46057,-1.07337 2.33702,-2.66721 2.33702,-2.66721 0.29463,-0.4581 -4.33403,-3.2002 -6.88683,-3.99679 -4.40477,-1.37448 -9.22457,-1.39578 -13.84947,-1.13214 -4.15691,0.23695 -8.26,1.23458 -12.2346,2.42345 -1.98883,0.59489 -5.752,2.33883 -5.752,2.33883 l -6.5605,3.90412 c 0,0 4.09398,-4.43368 6.66576,-6.00525 3.4167,-2.08785 7.30945,-3.58198 11.28717,-4.33118 3.07672,-0.57951 6.25636,-0.96127 9.42808,-1.02337 z m 19.59936,9.22443 c 0,0 -1.7111,1.13007 -2.09013,2.00041 -0.33504,0.76932 -0.59879,1.88484 -0.0114,2.50027 0.65377,0.68503 2.12952,0.80588 2.89774,0.23997 0.92348,-0.6803 0.92898,-2.22638 0.59919,-3.29595 -0.19392,-0.62892 -1.39538,-1.4447 -1.39538,-1.4447 z M 186.14242,17.063594 c -3.17173,0.06209 -8.98929,-0.62621 -13.15613,-2.111652 -2.55214,-0.909822 -7.17609,-3.858364 -6.97802,-4.066836 0,0 -7.71097,3.728724 -11.88089,4.643435 -7.41438,1.626407 -15.17253,1.637546 -22.77434,1.375904 -7.5618,-0.26026 -15.03039,-1.734026 -22.49433,-2.923045 C 98.490399,12.329713 88.314618,9.6517042 77.923754,8.1352993 66.860365,6.5207438 55.727349,5.0969405 44.544403,4.6824407 32.330251,4.2297162 20.091863,5.0336934 7.8911203,5.7440788 5.2551019,5.8975655 3.4375001e-8,6.4350528 3.4375001e-8,6.4350528 c 0,0 4.992350565625,-1.7365425 7.592150165625,-2.1917837 C 15.265573,2.8995975 23.140074,2.8593099 30.939169,2.7001606 c 9.287442,-0.1895248 17.531525,-0.4037111 26.79858,0.2145679 8.53783,0.5696059 18.125089,1.934525 26.571748,3.2544119 7.156447,1.1182738 14.130808,3.1595516 21.273183,4.3573796 8.46652,1.419894 16.9605,2.97374 25.54718,3.348107 7.28104,0.317452 14.68055,0.347281 21.84375,-0.940766 3.86101,-0.694274 11.16295,-3.6180619 11.16295,-3.6180619 -0.94734,-1.1200066 -1.42157,-2.2463977 -1.5896,-3.5119491 -0.16452,-1.2392087 -0.133,-2.6666013 0.60847,-3.7019999 0.82556,-1.15284727 2.33165,-2.13217746 3.79186,-2.10113148618 C 168.52323,0.03424001 170.2309,1.0888232 170.93075,2.4402924 c 0.64145,1.2387033 0.19501,2.8549297 -0.35371,4.1337659 -0.46056,1.0733654 -2.33702,2.6672099 -2.33702,2.6672099 -0.29463,0.4580982 4.33404,3.2001998 6.88683,3.9967818 4.40478,1.374481 9.22458,1.39578 13.84947,1.132147 4.15691,-0.23695 8.26,-1.234588 12.23461,-2.423453 1.98883,-0.594886 5.752,-2.3388343 5.752,-2.3388343 l 6.5605,-3.9041185 c 0,0 -4.09398,4.4336848 -6.66577,6.0052498 -3.41669,2.087857 -7.30945,3.581983 -11.28717,4.331181 -3.07671,0.579508 -6.25635,0.96127 -9.42807,1.023372 z M 166.54305,7.8391661 c 0,0 1.7111,-1.1300733 2.09013,-2.0004126 0.33505,-0.7693212 0.5988,-1.8848411 0.0114,-2.5002733 -0.65377,-0.6850226 -2.12952,-0.805875 -2.89774,-0.2399616 -0.92348,0.6802987 -0.92899,2.2263777 -0.59919,3.2959475 0.19391,0.628913 1.39537,1.4447 1.39537,1.4447 z m 95.31454,9.2244279 c 3.17172,0.06209 8.98929,-0.62621 13.15613,-2.111652 2.55214,-0.909822 7.17608,-3.858364 6.97802,-4.066836 0,0 7.71096,3.728724 11.88089,4.643435 7.41438,1.626407 15.17253,1.637546 22.77434,1.375904 7.56179,-0.26026 15.03039,-1.734026 22.49432,-2.923045 10.36832,-1.651687 20.5441,-4.3296958 30.93497,-5.8461007 11.06338,-1.6145555 22.1964,-3.0383588 33.37934,-3.4528586 12.21415,-0.4527245 24.45254,0.3512527 36.65328,1.0616381 C 442.7449,5.8975655 448,6.4350528 448,6.4350528 c 0,0 -4.99234,-1.7365425 -7.59214,-2.1917837 -7.67343,-1.3436716 -15.54793,-1.3839592 -23.34703,-1.5431085 -9.28744,-0.1895248 -17.53152,-0.4037111 -26.79857,0.2145679 -8.53783,0.5696059 -18.1251,1.934525 -26.57175,3.2544119 -7.15644,1.1182738 -14.13081,3.1595516 -21.27318,4.3573796 -8.46652,1.419894 -16.96051,2.97374 -25.54719,3.348107 -7.28104,0.317452 -14.68054,0.347281 -21.84375,-0.940766 -3.861,-0.694274 -11.16294,-3.6180619 -11.16294,-3.6180619 0.94733,-1.1200066 1.42157,-2.2463977 1.58959,-3.5119491 0.16452,-1.2392087 0.133,-2.6666013 -0.60846,-3.7019999 C 284.01901,0.94900283 282.51293,-0.03032736 281.05271,7.1861382e-4 279.47678,0.03424001 277.7691,1.0888232 277.06926,2.4402924 c -0.64145,1.2387033 -0.19502,2.8549297 0.3537,4.1337659 0.46057,1.0733654 2.33702,2.6672099 2.33702,2.6672099 0.29463,0.4580982 -4.33403,3.2001998 -6.88683,3.9967818 -4.40477,1.374481 -9.22457,1.39578 -13.84947,1.132147 -4.15691,-0.23695 -8.26,-1.234588 -12.2346,-2.423453 -1.98883,-0.594886 -5.752,-2.3388343 -5.752,-2.3388343 l -6.5605,-3.9041185 c 0,0 4.09398,4.4336848 6.66576,6.0052498 3.4167,2.087857 7.30945,3.581983 11.28717,4.331181 3.07672,0.579508 6.25636,0.96127 9.42808,1.023372 z m 19.59936,-9.2244279 c 0,0 -1.7111,-1.1300733 -2.09013,-2.0004126 -0.33504,-0.7693212 -0.59879,-1.8848411 -0.0114,-2.5002733 0.65377,-0.6850226 2.12952,-0.805875 2.89774,-0.2399616 0.92348,0.6802987 0.92898,2.2263777 0.59919,3.2959475 -0.19392,0.628913 -1.39538,1.4447 -1.39538,1.4447 z"
       sodipodi:nodetypes="sacsssssscssssssscasssscsssccssscaaaac" /><path
       style="fill:#72080d;fill-opacity:1;stroke:none;stroke-width:1.05444px;stroke-linecap:butt;stroke-linejoin:miter;stroke-opacity:1"
       d="m 224,129.22855 v 3.74648 c 0,0 -4.50872,-0.13021 -6.75565,-0.30556 -2.72135,-0.21238 -5.45616,-0.40581 -8.13657,-0.90341 -3.43466,-0.63763 -6.83201,-1.51842 -10.12212,-2.65707 -2.71522,-0.93969 -5.2525,-2.29624 -7.88664,-3.42763 -2.08787,-0.89677 -4.17513,-1.79518 -6.27599,-2.66372 -2.49824,-1.03282 -4.94716,-2.19612 -7.52564,-3.02906 -2.11972,-0.68476 -4.29771,-1.22071 -6.49814,-1.60753 -1.94192,-0.34138 -3.91749,-0.49429 -5.88722,-0.62441 -2.6906,-0.17773 -5.39654,-0.37836 -8.08798,-0.21257 -2.58557,0.15928 -5.16997,0.53508 -7.67836,1.15583 -1.39771,0.34589 -2.73037,0.90254 -4.06828,1.42154 -0.88321,0.3426 -1.80272,0.63188 -2.61037,1.11596 -0.93258,0.55897 -1.80376,1.23912 -2.52706,2.03267 -0.79842,0.87596 -1.60104,1.83432 -1.94389,2.94934 -0.27173,0.88371 -0.51122,1.96674 -0.0278,2.76336 0.45778,0.75437 1.48019,1.19739 2.38822,1.2754 1.0671,0.0917 2.28939,-0.26566 3.04079,-0.99641 0.82583,-0.80312 1.09001,-3.21505 1.09001,-3.21505 0,0 0.41556,1.54224 0.43738,2.33158 0.0202,0.72947 0.0858,1.53429 -0.28464,2.17216 -0.38198,0.65776 -1.08698,1.18283 -1.83281,1.42153 -1.23416,0.39501 -2.6991,0.34309 -3.90167,-0.13286 -0.99261,-0.39283 -1.82583,-1.20763 -2.36044,-2.09908 -0.60189,-1.00363 -0.88362,-2.23401 -0.79144,-3.38777 0.0901,-1.12829 0.59656,-2.24617 1.2913,-3.16191 0.96395,-1.27062 2.3756,-2.21721 3.80447,-2.98921 3.18543,-1.72104 6.78487,-2.69946 10.34428,-3.50734 1.83825,-0.41724 3.7369,-0.57967 5.62339,-0.67756 3.55447,-0.18445 7.13271,-0.13821 10.67752,0.17271 1.95338,0.17134 3.89386,0.5026 5.8039,0.92998 3.33333,0.74586 6.62189,1.70157 9.83054,2.84307 2.27416,0.80905 4.41101,1.93743 6.65088,2.82978 1.93447,0.77069 3.87626,1.53133 5.85945,2.1788 3.28833,1.07357 6.60585,2.1 9.99714,2.82314 2.84247,0.60612 5.73477,1.02539 8.63643,1.26211 3.23118,0.2636 9.72703,0.17271 9.72703,0.17271 m 0,0 v 3.74648 c 0,0 4.50872,-0.13021 6.75566,-0.30556 2.72135,-0.21238 5.45616,-0.40581 8.13657,-0.90341 3.43465,-0.63763 6.832,-1.51842 10.12211,-2.65707 2.71522,-0.93969 5.25251,-2.29624 7.88665,-3.42763 2.08786,-0.89677 4.17513,-1.79518 6.27598,-2.66372 2.49825,-1.03282 4.94717,-2.19612 7.52564,-3.02906 2.11973,-0.68476 4.29771,-1.22071 6.49815,-1.60753 1.94192,-0.34138 3.91748,-0.49429 5.88721,-0.62441 2.69061,-0.17773 5.39654,-0.37836 8.08798,-0.21257 2.58558,0.15928 5.16997,0.53508 7.67837,1.15583 1.3977,0.34589 2.73036,0.90254 4.06828,1.42154 0.88321,0.3426 1.80272,0.63188 2.61036,1.11596 0.93259,0.55897 1.80377,1.23912 2.52707,2.03267 0.79841,0.87596 1.60104,1.83432 1.94389,2.94934 0.27172,0.88371 0.51122,1.96674 0.0278,2.76336 -0.45777,0.75437 -1.48019,1.19739 -2.38821,1.2754 -1.0671,0.0917 -2.2894,-0.26566 -3.0408,-0.99641 -0.82582,-0.80312 -1.09,-3.21505 -1.09,-3.21505 0,0 -0.41556,1.54224 -0.43738,2.33158 -0.0202,0.72947 -0.0858,1.53429 0.28464,2.17216 0.38198,0.65776 1.08697,1.18283 1.8328,1.42153 1.23417,0.39501 2.6991,0.34309 3.90167,-0.13286 0.99261,-0.39283 1.82584,-1.20763 2.36045,-2.09908 0.60188,-1.00363 0.88361,-2.23401 0.79144,-3.38777 -0.0901,-1.12829 -0.59657,-2.24617 -1.2913,-3.16191 -0.96396,-1.27062 -2.3756,-2.21721 -3.80448,-2.98921 -3.18543,-1.72104 -6.78487,-2.69946 -10.34428,-3.50734 -1.83825,-0.41724 -3.7369,-0.57967 -5.62339,-0.67756 -3.55446,-0.18445 -7.1327,-0.13821 -10.67752,0.17271 -1.95338,0.17134 -3.89385,0.5026 -5.8039,0.92998 -3.33332,0.74586 -6.62188,1.70157 -9.83053,2.84307 -2.27416,0.80905 -4.41101,1.93743 -6.65089,2.82978 -1.93447,0.77069 -3.87626,1.53133 -5.85944,2.1788 -3.28833,1.07357 -6.60586,2.1 -9.99715,2.82314 -2.84246,0.60612 -5.73477,1.02539 -8.63643,1.26211 C 230.49585,129.31944 224,129.22855 224,129.22855 M 224,3.7714529 V 0.02497779 c 0,0 -4.50872,0.13020742 -6.75565,0.30556043 -2.72135,0.21237094 -5.45616,0.40580487 -8.13657,0.90340678 -3.43466,0.6376286 -6.83201,1.5184162 -10.12212,2.657071 -2.71522,0.9396924 -5.2525,2.2962363 -7.88664,3.4276299 -2.08787,0.8967644 -4.17513,1.7951791 -6.27599,2.6637133 -2.49824,1.0328198 -4.94716,2.1961258 -7.52564,3.0290658 -2.11972,0.684754 -4.29771,1.220705 -6.49814,1.607531 -1.94192,0.341382 -3.91749,0.494291 -5.88722,0.624406 -2.6906,0.177736 -5.39654,0.378359 -8.08798,0.212567 -2.58557,-0.159273 -5.16997,-0.535074 -7.67836,-1.155828 -1.39771,-0.345889 -2.73037,-0.902541 -4.06828,-1.421534 -0.88321,-0.342599 -1.80272,-0.631884 -2.61037,-1.115964 -0.93258,-0.558972 -1.80376,-1.239116 -2.52706,-2.0326651 -0.79842,-0.8759605 -1.60104,-1.8343218 -1.94389,-2.9493466 -0.27173,-0.8837065 -0.51122,-1.9667364 -0.0278,-2.7633595 0.45778,-0.7543655 1.48019,-1.1973843 2.38822,-1.2754015 1.0671,-0.091694 2.28939,0.2656648 3.04079,0.9964106 0.82583,0.8031211 1.09001,3.2150527 1.09001,3.2150527 0,0 0.41556,-1.5422421 0.43738,-2.3315834 0.0202,-0.7294668 0.0858,-1.5342898 -0.28464,-2.1721555 -0.38198,-0.6577621 -1.08698,-1.1828309 -1.83281,-1.4215342 -1.23416,-0.39500582 -2.6991,-0.34308376 -3.90167,0.1328582 -0.99261,0.3928398 -1.82583,1.2076367 -2.36044,2.0990892 -0.60189,1.0036307 -0.88362,2.2340103 -0.79144,3.3877653 0.0901,1.1282889 0.59656,2.2461708 1.2913,3.1619135 0.96395,1.2706153 2.3756,2.2172083 3.80447,2.9892113 3.18543,1.72104 6.78487,2.699452 10.34428,3.507339 1.83825,0.417233 3.7369,0.579662 5.62339,0.677555 3.55447,0.18445 7.13271,0.138211 10.67752,-0.172713 1.95338,-0.17133 3.89386,-0.502594 5.8039,-0.929976 3.33333,-0.745857 6.62189,-1.701567 9.83054,-2.843069 2.27416,-0.809051 4.41101,-1.937433 6.65088,-2.829783 1.93447,-0.7706828 3.87626,-1.5313297 5.85945,-2.1787981 3.28833,-1.0735717 6.60585,-2.0999969 9.99714,-2.8231411 2.84247,-0.6061184 5.73477,-1.0253834 8.63643,-1.2621064 C 217.50415,3.6805635 224,3.7714529 224,3.7714529 m 0,0 V 0.02497779 c 0,0 4.50872,0.13020742 6.75566,0.30556043 2.72135,0.21237094 5.45616,0.40580487 8.13657,0.90340678 3.43465,0.6376286 6.832,1.5184162 10.12211,2.657071 2.71522,0.9396924 5.25251,2.2962363 7.88665,3.4276299 2.08786,0.8967644 4.17513,1.7951791 6.27598,2.6637133 2.49825,1.0328198 4.94717,2.1961258 7.52564,3.0290658 2.11973,0.684754 4.29771,1.220705 6.49815,1.607531 1.94192,0.341382 3.91748,0.494291 5.88721,0.624406 2.69061,0.177736 5.39654,0.378359 8.08798,0.212567 2.58558,-0.159273 5.16997,-0.535074 7.67837,-1.155828 1.3977,-0.345889 2.73036,-0.902541 4.06828,-1.421534 0.88321,-0.342599 1.80272,-0.631884 2.61036,-1.115964 0.93259,-0.558972 1.80377,-1.239116 2.52707,-2.0326651 0.79841,-0.8759605 1.60104,-1.8343218 1.94389,-2.9493466 0.27172,-0.8837065 0.51122,-1.9667364 0.0278,-2.7633595 -0.45777,-0.7543655 -1.48019,-1.1973843 -2.38821,-1.2754015 -1.0671,-0.091694 -2.2894,0.2656648 -3.0408,0.9964106 -0.82582,0.8031211 -1.09,3.2150527 -1.09,3.2150527 0,0 -0.41556,-1.5422421 -0.43738,-2.3315834 -0.0202,-0.7294668 -0.0858,-1.5342898 0.28464,-2.1721555 0.38198,-0.6577621 1.08697,-1.1828309 1.8328,-1.4215342 1.23417,-0.39500582 2.6991,-0.34308376 3.90167,0.1328582 0.99261,0.3928398 1.82584,1.2076367 2.36045,2.0990892 0.60188,1.0036307 0.88361,2.2340103 0.79144,3.3877653 -0.0901,1.1282889 -0.59657,2.2461708 -1.2913,3.1619135 -0.96396,1.2706153 -2.3756,2.2172083 -3.80448,2.9892113 -3.18543,1.72104 -6.78487,2.699452 -10.34428,3.507339 -1.83825,0.417233 -3.7369,0.579662 -5.62339,0.677555 -3.55446,0.18445 -7.1327,0.138211 -10.67752,-0.172713 -1.95338,-0.17133 -3.89385,-0.502594 -5.8039,-0.929976 -3.33332,-0.745857 -6.62188,-1.701567 -9.83053,-2.843069 -2.27416,-0.809051 -4.41101,-1.937433 -6.65089,-2.829783 C 256.28558,9.4375282 254.34379,8.6768813 252.36061,8.0294129 249.07228,6.9558412 245.75475,5.929416 242.36346,5.2062718 239.521,4.6001534 236.62869,4.1808884 233.72703,3.9441654 230.49585,3.6805635 224,3.7714529 224,3.7714529"
       id="path3"
       sodipodi:nodetypes="ccaaaaaaaaaaaaaaaaacaaaaaaaaaaaaaaaaacccssssssssssssssssscsssssssssssssssssc" /></g></svg>
