<?xml version="1.0" encoding="UTF-8" standalone="no"?>
<!-- Created with Inkscape (http://www.inkscape.org/) -->

<svg
   version="1.1"
   id="svg2"
   width="859.80023"
   height="240.09401"
   viewBox="0 0 859.80024 240.09402"
   sodipodi:docname="title.svg"
   inkscape:version="1.3.2 (091e20ef0f, 2023-11-25, custom)"
   xml:space="preserve"
   inkscape:export-filename="title.png"
   inkscape:export-xdpi="100"
   inkscape:export-ydpi="100"
   xmlns:inkscape="http://www.inkscape.org/namespaces/inkscape"
   xmlns:sodipodi="http://sodipodi.sourceforge.net/DTD/sodipodi-0.dtd"
   xmlns="http://www.w3.org/2000/svg"
   xmlns:svg="http://www.w3.org/2000/svg"><defs
     id="defs6" /><sodipodi:namedview
     id="namedview4"
     pagecolor="#ffffff"
     bordercolor="#111111"
     borderopacity="1"
     inkscape:showpageshadow="0"
     inkscape:pageopacity="0"
     inkscape:pagecheckerboard="1"
     inkscape:deskcolor="#d1d1d1"
     showgrid="false"
     inkscape:zoom="1.2850081"
     inkscape:cx="431.12569"
     inkscape:cy="122.95642"
     inkscape:window-width="1920"
     inkscape:window-height="1008"
     inkscape:window-x="0"
     inkscape:window-y="0"
     inkscape:window-maximized="1"
     inkscape:current-layer="svg2"><inkscape:grid
       type="xygrid"
       id="grid3115"
       originx="-9.9999866"
       originy="272.7524"
       spacingy="1"
       spacingx="1"
       units="px"
       visible="false" /></sodipodi:namedview><path
     id="text1-2-2-8-2"
     style="font-weight:800;font-size:80px;line-height:1.25;font-family:DAVeau;-inkscape-font-specification:'DAVeau, Ultra-Bold';fill:#72080d;fill-opacity:1"
     d="m 432.12001,166.90695 v -1.04 h -28.88 v 1.04 h 2.24 c 0,0 8.88,0.24 8.88,13.52 v 27.92 c -1.84,-11.84 -6.96,-23.04 -13.28,-33.12 -3.6,-5.68 -7.68,-9.36 -7.68,-9.36 h -0.08 -33.28 v 1.04 c 0.16,0 12.16,0.08 12.16,16.48 v 34.72 c 0,8.32 -8.4,8.48 -8.8,8.48 -0.08,0 -0.08,0 -0.08,0 h -0.48 v 1.04 h 25.52 v -1.04 h -0.56 c 0,0 -8.8,-0.15999 -8.8,-7.92 0,-0.08 0,-1.52 0,-3.68 0,-6.72 0,-20.32 0,-20.32 0,-6.88 0.72,-9.76 3.28,-9.76 2.32,0 4.72,2 8.4,6.8 9.2,11.76 12.8,21.04 12.8,27.84 0,6.8 -6.96,7.04 -7.92,7.04 0,0 -0.08,0 -0.08,0 v 1.04 h 32.24 v -1.04 c 0,0 0,0 -0.08,0 -0.72,0 -6.56,-0.32 -6.56,-8.96 v -37.52 c 0,-12.79999 8.88,-13.2 8.88,-13.2 z m 38.40004,61.84001 c 1.92,0 3.36,-0.08 4.4,-2.32 5.2,-11.20001 15.44,-33.52001 20.72,-44.64001 1.92,-4.16 5.28,-11.2 5.28,-17.84 0,-2.32 -0.48,-4.63999 -1.44,-6.72 -2.88,-5.75999 -8,-7.52 -12.8,-7.52 -2.88,0 -5.6,0.64 -7.68,1.44001 -8.96,3.51999 -10.8,8.63999 -10.8,8.63999 l 0.8,0.48 c 0,0 3.04,-2.64 8.4,-2.64 4.72,0 9.92,3.2 11.28,9.04 0.48,2 0.72,4.16 0.72,6.32001 0,4 -0.8,8.23999 -2.4,12.48 -3.04,8.08 -6.24,14.4 -8.24,18.08 -1.36,2.39999 -2.16,3.51999 -2.8,3.51999 -0.72,0 -1.36,-1.28 -2.32,-3.59999 -3.52,-8 -6.16,-14.48 -8.72,-20.64001 -1.12,-2.56 -1.6,-4.71999 -1.6,-6.56 0,-9.11999 11.6,-9.36 11.6,-9.36 v -1.12 h -41.04 v 1.12 0 c 0,0 0,0 0,0 0.32,0 6.4,0.16 9.92,8.32 5.6,12.80001 16.64,38.32001 22.24,51.04 1.12,2.48001 2.72,2.48001 4.48,2.48001 z m 89.59993,-1.04001 v -25.52 h -1.12 c 0,0 -1.6,19.36 -17.76,19.36 -6.08,0 -10.32,0 -10.32,-13.12 0,-10.32 4.32,-13.68 7.44,-13.68 0.16,0 0.4,0.08 0.56,0.08 1.52,0.24 2.48,1.52 2.48,2.88 0,1.12 -0.64,2.24 -2.16,2.72 -0.24,0.08 -0.56,0.08 -0.8,0.08 -1.12,0 -2,-0.72 -2,-0.72 0,0 0,0.16 0,0.48 0,0.72 0.24,2.32 2.32,3.84 1.44,1.12 2.96,1.28 3.44,1.28 0.08,0 0.16,-0.08 0.16,-0.08 0,0 0.24,0.08 0.64,0.08 1.92,0 7.92,-0.56 10.08,-7.28 0.32,-1.2 0.48,-2.32 0.48,-3.52 0,-5.68 -4.08,-10.96 -10.72,-10.96 0,0 -0.08,0 -0.16,0 -4.88,0 -10.08,4.08 -11.76,11.52 0,-0.16 0,-2.56 0,-5.6 0,-4.64 0,-10.8 0,-12.08 0,-3.52 1.68,-5.52 9.28,-5.52 17.76,0 18.8,18.24 18.8,18.24 h 1.12 v -24.4 c -0.08,0 -55.76,0 -55.76,0 v 1.12 c 0,0 8.72,0.08 8.72,10.08 v 39.52 c 0,9.92 -8.4,10.08 -8.72,10.08 0,0 0,0 0,0 v 1.04 z m 46.24004,-1.12 c 0,0 0,0 -0.08,0 -1.04,0 -13.04,-0.32 -13.04,-14.88 0,-44.4 13.2,-44.8 13.2,-44.8 v -1.04 h -40.64 v 1.04 c 0,0 12.96,0.56 12.96,44.72 0,14.56 -11.52,14.96 -12.8,14.96 -0.08,0 -0.08,0 -0.08,0 v 1.04 h 40.48 z m 60.64008,-6.72 c 0,-4.24 1.76,-8.72 1.92,-14.88 0,-0.32 0,-0.56 0,-0.8 0,-4.72 -1.28,-9.28 -4.72,-13.12 -2.8,-3.2 -6.56,-4.64 -10.16,-4.64 -4.96,0 -9.84,2.72 -12.16,7.36 -1.2,2.4 -1.68,4.64 -1.68,6.64 0,5.92 4,9.6 4,9.6 0,0 1.52,1.76 4.32,2.24 0.64,0.16 1.28,0.24 1.84,0.24 3.04,0 4.08,-1.6 4.08,-1.6 0,0 -1.84,0 -2.72,-1.92 -0.32,-0.64 -0.4,-1.36 -0.4,-2 0,-2.48 2,-4.48 4.24,-4.48 0.48,0 1.04,0.16 1.52,0.32 1.92,0.8 3.2,3.36 3.2,6.4 0,5.44 -4.32,12.32 -16.96,12.32 -4,0 -8.72,-0.16 -8.72,-8.96 v -36.24 c 0,-9.36 8.64,-9.44 8.88,-9.44 0,0 0,0 0,0 v -1.04 h -35.52 v 1.04 c 0,0 0,0 0,0 0.88,0 8.8,0.24 8.8,9.28 0,10.32 0,30.96 0,41.2 0,8.96 -8,9.2 -8.8,9.2 0,0 0,0 0,0 v 1.04 h 60.96 v -1.04 c 0,0 -1.92,-1.04 -1.92,-6.72 z m 48.08001,6.72 c 0,0 0,0 -0.08,0 -1.04,0 -13.04,-0.32 -13.04,-14.88 0,-44.4 13.2,-44.8 13.2,-44.8 v -1.04 h -40.64 v 1.04 c 0,0 12.96,0.56 12.96,44.72 0,14.56 -11.52,14.96 -12.8,14.96 -0.08,0 -0.08,0 -0.08,0 v 1.04 h 40.48 z m 70.88008,-59.68 v -1.04 h -28.88 v 1.04 h 2.24 c 0,0 8.88,0.24 8.88,13.52 v 27.92 c -1.84,-11.84 -6.96,-23.04 -13.28,-33.12 -3.6,-5.68 -7.68,-9.36 -7.68,-9.36 h -0.08 -33.28 v 1.04 c 0.16,0 12.16,0.08 12.16,16.48 v 34.72 c 0,8.32 -8.4,8.48 -8.8,8.48 -0.08,0 -0.08,0 -0.08,0 h -0.48 v 1.04 h 25.52 v -1.04 h -0.56 c 0,0 -8.8,-0.15999 -8.8,-7.92 0,-0.08 0,-1.52 0,-3.68 0,-6.72 0,-20.32 0,-20.32 0,-6.88 0.72,-9.76 3.28,-9.76 2.32,0 4.72,2 8.4,6.8 9.2,11.76 12.8,21.04 12.8,27.84 0,6.8 -6.96,7.04 -7.92,7.04 0,0 -0.08,0 -0.08,0 v 1.04 h 32.24 v -1.04 c 0,0 0,0 -0.08,0 -0.72,0 -6.56,-0.32 -6.56,-8.96 v -37.52 c 0,-12.79999 8.88,-13.2 8.88,-13.2 z m 38.00004,35.28 v 1.12 c 0,0 10.96,0.24 10.96,10.4 0,7.84 -4.16,9.84 -8.96,9.84 -9.12,0 -15.36,-10.08 -15.36,-26.64 0,-18.56 6.08,-28.08 14.8,-28.08 6.56,0 10.4,4.48001 10.4,8.56 0,0.64 -0.08,1.28 -0.32,1.84 -0.56,1.92 -2.24,3.20001 -3.92,3.20001 -1.2,0 -2.4,-0.72001 -3.12,-2.48001 -0.16,-0.39999 -0.16,-0.79999 -0.16,-1.12 0,-1.44 0.88,-2.39999 0.88,-2.39999 0,0 -4.64,0.24 -6.16,5.19999 -0.32,1.20001 -0.56,2.48001 -0.56,3.84001 0,4.87999 2.8,9.84 9.68,11.84 1.28,0.31999 2.64,0.56 3.92,0.56 7.28,0 13.84,-5.76 13.84,-14.48001 0,-13.91999 -12.56,-20.63999 -26.4,-20.63999 -17.6,0 -31.68,14.48 -31.68,33.75999 0,18.4 14.08,33.20001 31.92,33.20001 5.76,0 12.88,-2 17.04,-4.08001 1.36,-0.71999 2.64,-0.95999 3.68,-0.95999 3.6,0 5.44,2.95999 5.44,2.95999 h 1.12 v -15.44 c 0,-8.56 8.8,-8.87999 8.8,-8.87999 v -1.12001 z M 157.54695,174.85361 c 0,-8.16 7.68,-8.48 8.72,-8.48 0.08,0 0.16,0 0.16,0 v -1.04 h -34.4 v 1.04 c 0,0 0,0 0,0 0.72,0 7.76,0.24 7.76,8.8 v 15.36 c -2.96,-3.68 -7.52,-6.08 -12.48,-6.16 -0.08,0 -0.08,0 -0.16,0 -3.2,0 -5.84,1.28 -7.76,3.2 v -11.76 c 0,-9.04 6.56,-9.44 7.6,-9.44 0.08,0 0.16,0 0.16,0 v -1.04 H 92.746953 v 1.04 c 0,0 0,0 0.16,0 1.28,0 8.639997,0.4 8.639997,8.32 0,7.2 -0.16,19.12 -0.16,29.52 0,5.12 0,9.92 0.16,13.52 0,0 0,0 0,0.08 0,8.16 -8.479997,8.24 -8.799997,8.24 0,0 0,0 0,0 v 1.04 h 34.399997 v -1.04 c 0,0 0,0 -0.08,0 -0.72,0 -7.68,-0.24 -7.68,-9.44 v -13.84 c 2.88,3.12 6.64,3.36 7.84,3.36 0.24,0 0.4,0 0.4,0 0,0 0.08,0 0.16,0 0.48,0 2,-0.08 3.44,-1.2 2.08,-1.6 2.4,-3.12 2.4,-3.92 0,-0.32 -0.08,-0.48 -0.08,-0.48 0,0 -0.8,0.8 -2,0.8 -0.24,0 -0.56,-0.08 -0.8,-0.16 -1.44,-0.48 -2.08,-1.68 -2.08,-2.8 0,-1.36 0.88,-2.64 2.4,-2.8 0.16,0 0.4,0 0.56,0 3.68,0 7.36,2.96 8.16,13.76 v 7.28 c 0,9.04 -6.56,9.44 -7.6,9.44 -0.16,0 -0.16,0 -0.16,0 v 1.12 h 34.4 v -1.12 c 0,0 -0.08,0 -0.16,0 -1.12,0 -8.72,-0.32 -8.72,-8.96 z m 66.32,52.32 v -25.52 h -1.12 c 0,0 -1.6,19.36 -17.76,19.36 -6.08,0 -10.32,0 -10.32,-13.12 0,-10.32 4.32,-13.68 7.44,-13.68 0.16,0 0.4,0.08 0.56,0.08 1.52,0.24 2.48,1.52 2.48,2.88 0,1.12 -0.64,2.24 -2.16,2.72 -0.24,0.08 -0.56,0.08 -0.8,0.08 -1.12,0 -2,-0.72 -2,-0.72 0,0 0,0.16 0,0.48 0,0.72 0.24,2.32 2.32,3.84 1.44,1.12 2.96,1.28 3.44,1.28 0.08,0 0.16,-0.08 0.16,-0.08 0,0 0.24,0.08 0.64,0.08 1.92,0 7.92,-0.56 10.08,-7.28 0.32,-1.2 0.48,-2.32 0.48,-3.52 0,-5.68 -4.08,-10.96 -10.72,-10.96 0,0 -0.08,0 -0.16,0 -4.88,0 -10.08,4.08 -11.76,11.52 0,-0.16 0,-2.56 0,-5.6 0,-4.64 0,-10.8 0,-12.08 0,-3.52 1.68,-5.52 9.28,-5.52 17.76,0 18.8,18.24 18.8,18.24 h 1.12 v -24.4 c -0.08,0 -55.76,0 -55.76,0 v 1.12 c 0,0 8.72,0.08 8.72,10.08 v 39.52 c 0,9.92 -8.4,10.08 -8.72,10.08 0,0 0,0 0,0 v 1.04 z m 124.74662,-85.73359 c -3.62668,-2.77335 -7.46669,-3.84002 -10.9867,-3.84002 -6.08002,0 -11.62671,3.20001 -14.72005,6.72002 -5.01335,5.76002 -5.65335,11.94671 -5.65335,14.82672 0,1.06667 0,1.70667 0,1.70667 h 1.17334 c 0,0 1.92,-4.80002 7.46669,-5.86669 0.53333,-0.10666 1.28,-0.21333 1.92,-0.21333 2.88001,0 6.61336,1.06667 10.3467,4.58668 5.86669,5.65335 6.72002,14.50671 6.72002,23.46674 0,16.85339 -10.24003,35.52011 -24.42674,35.52011 v 0 0 c -9.06669,0 -16.53338,-3.84001 -16.53338,-19.41339 v -36.80012 c 0,-18.13339 15.57338,-18.34672 16.32005,-18.34672 0,0 0,0 0,0 v -1.49334 h -50.24016 v 1.49334 c 0.10667,0 10.24003,0 10.24003,14.08004 0,9.17336 0,36.58678 0,36.58678 0,20.16007 8.7467,33.17344 35.41345,33.17344 v 0 c 20.80006,0 41.38679,-16.10672 41.38679,-60.48019 0,-9.92003 -1.70667,-20.58673 -8.42669,-25.70674 z M 91.626953,137.6 l -1.493338,0.42667 c 0,0 0.106667,0.21333 0.106667,0.42667 0,1.49334 -0.853336,6.08002 -10.773367,6.40002 -0.426668,0 -0.853336,0.10666 -1.280004,0.10666 -9.280029,0 -19.413394,-3.84001 -31.786766,-4.80001 -2.240007,-0.10667 -4.373347,-0.21333 -6.40002,-0.21333 -2.13334,0 -4.053346,0.10666 -5.866685,0.21333 C 18.346724,141.01335 0.960003,149.5467 0,166.08009 c 0,0.32 0,0.64 0,0.96 0,9.92003 8.106692,16.85339 16.746719,16.85339 1.706672,0 3.413344,-0.32 5.013349,-0.85334 11.520036,-3.84001 11.946704,-14.29338 11.946704,-15.89338 0,-0.10667 0,-0.21333 0,-0.21333 0,0 0.106667,-0.21334 0.106667,-0.53334 0,-0.85334 -0.213334,-2.98668 -1.706672,-5.12002 -2.346674,-3.52001 -4.906682,-3.94667 -6.080019,-3.94667 -0.320001,0 -0.533335,0.10666 -0.533335,0.10666 0,0 1.06667,1.28001 1.06667,2.98668 0,0.42667 -0.106667,0.85333 -0.213334,1.38667 -0.853336,2.13334 -2.560008,3.09334 -4.26668,3.09334 -2.13334,0 -4.160013,-1.49334 -4.373347,-3.94668 0,-0.21333 -0.106667,-0.42666 -0.106667,-0.53333 0,-1.17334 0.426668,-2.34668 1.06667,-3.52001 1.600005,-2.66668 4.906682,-3.73335 9.066695,-3.73335 4.373347,0 9.706697,1.17334 14.93338,2.66668 0.853336,0.21333 1.706672,0.42667 2.453341,0.64 0.106667,0.53333 0.106667,57.92018 0.106667,57.92018 0,10.9867 -10.560033,11.3067 -11.73337,11.3067 0,0 0,0 0,0 v 1.38667 h 47.360148 v -1.38667 c 0,0 -0.106667,0 -0.213334,0 -1.280004,0 -11.626703,-0.42667 -11.626703,-11.9467 v -54.2935 c 3.626678,-0.32001 7.253356,-1.17334 10.986701,-2.56001 10.346699,-3.84001 11.946704,-11.3067 11.946704,-15.68005 0,-2.13334 -0.320001,-3.62668 -0.320001,-3.62668 z"
     inkscape:label="the_unveiling" /><path
     d="m 117.36744,101.73307 c -0.13333,0 -0.53333,0 -0.8,0 -4.39999,0 -14.13329,-0.53333 -14.13329,-18.133286 v -8.799977 c 0,-15.333294 7.73331,-18.533286 7.73331,-31.066587 0,-9.199977 -4.26666,-14.799963 -8.66664,-17.599955 -3.466662,-2.266661 -5.999989,-2.66666 -7.199986,-2.66666 -0.533332,0 -0.799998,0.133333 -0.799998,0.133333 0,0 1.466663,1.733329 1.466663,3.999989 0,0.533332 -0.133333,1.199997 -0.399999,1.866662 -1.066664,2.933326 -3.333325,4.266656 -5.599986,4.266656 -2.933326,0 -5.733319,-2.133328 -6.133318,-5.466653 0,-0.133333 0,-0.399999 0,-0.666665 0,-7.199981 9.33331,-17.466622 24.666604,-17.466622 31.99992,0 35.33324,32.666584 35.33324,46.266549 0,33.199915 -8.93331,45.333216 -25.4666,45.333216 z M 108.7008,-1.9683838e-6 C 86.434187,-1.9683838e-6 60.167588,11.733301 58.967591,35.333241 c 0,0.399999 -0.133333,0.799998 -0.133333,1.33333 0,13.466632 11.066638,22.799942 22.799941,22.799942 21.733281,0 23.199941,-17.599955 23.199941,-21.999944 0,-0.666665 -0.13333,-0.933331 -0.13333,-0.933331 0,0 0,-0.133333 0,-0.133333 0,-0.266666 0.13333,-0.666665 0.26666,-0.666665 0,0 0,0.133333 0.13334,0.133333 0.4,0.133333 0.66666,0.933331 0.66666,0.933331 0,0 0.93333,2.533327 0.93333,6.133318 0,5.066653 -1.86666,12.533301 -10.933303,18.133287 -3.733324,2.26666 -8.533312,2.933325 -12.666635,2.933325 -5.733318,0 -10.399973,-1.199996 -10.399973,-1.199996 v 30.533255 c 0,16.266627 -14.26663,16.399957 -14.533296,16.399957 0,0 0,0 0,0 v 2.13333 h 59.333177 c 19.73329,0 56.66653,-11.59997 56.66653,-54.933194 C 174.1673,18.79995 136.03406,-1.9683838e-6 108.7008,-1.9683838e-6 Z M 297.36698,95.999753 295.76699,95.599754 c 0,0 -0.8,1.599996 -2.13333,2.399994 -2.26666,1.466662 -4.26666,2.266662 -6.53332,2.266662 -5.86665,0 -12.39997,-5.73332 -22.39994,-21.999945 -2.13333,-3.466658 -3.99999,-6.533317 -3.99999,-8.666645 0,-0.266666 0.13333,-0.666665 0.13333,-0.933331 0.13334,0 0.13334,0 0.13334,0 11.7333,0 28.13326,-10.399973 28.13326,-27.333263 0,-20.133282 -15.99996,-32.3999175 -42.66656,-32.3999175 h -62.79984 v 1.7333285 c 0,0 14.66663,0.133333 14.66663,15.733294 v 67.999826 c 0,15.333293 -13.19997,15.733293 -14.66663,15.733293 0,0 0,0 0,0 v 1.73333 h 59.19985 v -1.73333 c 0,0 0,0 -0.13333,0 -1.06667,0 -14.66663,-0.26667 -14.66663,-13.733298 0,-0.133333 0,-0.133333 0,-0.133333 0,0 0,-31.466587 0,-52.266533 0,-6.933316 0,-12.799968 0,-15.733294 0,-6.399983 2.26666,-9.333309 13.3333,-9.333309 11.3333,0 19.86661,8.266646 19.86661,20.666614 0,16.533291 -9.59997,21.333279 -16.26662,21.333279 0,0 -0.13334,0 -0.26667,0 -6.53332,-0.133333 -8.26665,-3.866657 -9.06664,-6.799983 -0.13334,-0.666665 -0.26667,-1.33333 -0.26667,-1.999995 0,-2.133328 0.93333,-3.99999 2.53333,-4.933321 0.53333,-0.266666 1.06666,-0.399999 1.46666,-0.399999 1.73333,0 2.79999,1.866662 2.79999,1.866662 0,0 2,-2.266661 2,-4.799987 0,-1.066664 -0.26667,-1.999995 -1.06667,-2.933326 -0.66666,-0.666665 -1.73332,-1.199997 -3.06665,-1.199997 -1.2,0 -2.4,0.533332 -3.33333,1.599996 -4.39999,5.333319 -6.66665,13.199966 -6.66665,21.999943 0,8.799978 2.26666,18.533286 7.06665,27.199931 8.66664,15.86663 22.79994,27.0666 36.53324,27.0666 6.66665,0 13.3333,-2.8 19.33328,-9.06665 3.99999,-4.26665 4.39999,-9.199973 4.39999,-11.466633 0,-0.666665 0,-1.066664 0,-1.066664 z m 72.93303,14.133297 c 0,0 0,0 -0.13333,0 -1.73333,0 -21.73328,-0.53333 -21.73328,-24.799937 0,-73.999811 21.99994,-74.666476 21.99994,-74.666476 V 8.9333085 h -67.73316 v 1.7333285 c 0,0 21.59995,0.933331 21.59995,74.533143 0,24.2666 -19.19995,24.93327 -21.33328,24.93327 -0.13333,0 -0.13333,0 -0.13333,0 v 1.73333 h 67.46649 z M 473.89986,99.066411 c 0,-7.066648 2.93333,-14.533296 3.19999,-24.799936 0,-0.533332 0,-0.933331 0,-1.33333 0,-7.866647 -2.13332,-15.466627 -7.86664,-21.866611 -4.66666,-5.33332 -10.93331,-7.733313 -16.93329,-7.733313 -8.26665,0 -16.39996,4.533321 -20.26662,12.266635 -1.99999,3.99999 -2.79999,7.866646 -2.79999,11.466637 0,10.533307 7.46665,18.26662 13.86663,19.333284 1.06667,0.266666 2.13333,0.399999 3.06666,0.399999 5.06665,0 6.79998,-2.533327 6.79998,-2.533327 0,0 -3.06666,-0.133333 -4.53332,-3.333324 -0.53333,-1.066664 -0.8,-2.266661 -0.8,-3.333325 0,-4.133323 3.59999,-7.333315 7.33332,-7.333315 0.8,0 1.59999,0.133333 2.39999,0.399999 3.86666,1.466663 5.73332,5.599986 5.73332,10.133308 0,2.666659 -0.66666,5.599985 -1.99999,7.999979 -4.13333,7.599981 -12.93331,11.999969 -28.53327,12.799969 -1.59999,0 -4.13332,0.26666 -7.06664,0.26666 -6.39999,0 -14.39997,-1.06666 -17.06663,-6.399979 -0.53333,-1.33333 -0.93333,-2.933326 -0.93333,-4.666655 0,-10.666639 9.86664,-29.86659 24.39994,-45.199885 29.46659,-31.19992 45.06655,-34.933244 45.06655,-34.933244 V 8.7999755 c -19.99995,0 -96.93308,0.133333 -96.93308,0.133333 V 49.466538 h 1.86666 c 0,0 1.86666,-30.399922 26.79993,-30.399922 2.79999,0 4.93332,1.199997 5.59998,3.199992 0.13334,0.266666 0.26667,0.666665 0.26667,0.933331 0,6.799982 -20.66661,23.733272 -30.93325,61.333176 -3.99999,14.933295 -3.99999,26.666595 -3.99999,27.333265 0,0 0,0 0,0 h 97.46641 v -1.73333 c 0,0 -3.19999,-1.46666 -3.19999,-11.066639 z m 112.26654,0 c 0,-7.066648 2.93333,-14.533296 3.19999,-24.799936 0,-0.533332 0,-0.933331 0,-1.33333 0,-7.866647 -2.13332,-15.466627 -7.86664,-21.866611 -4.66666,-5.33332 -10.93331,-7.733313 -16.93329,-7.733313 -8.26665,0 -16.39996,4.533321 -20.26662,12.266635 -1.99999,3.99999 -2.79999,7.866646 -2.79999,11.466637 0,10.533307 7.46665,18.26662 13.86663,19.333284 1.06667,0.266666 2.13333,0.399999 3.06666,0.399999 5.06665,0 6.79998,-2.533327 6.79998,-2.533327 0,0 -3.06666,-0.133333 -4.53332,-3.333324 -0.53333,-1.066664 -0.8,-2.266661 -0.8,-3.333325 0,-4.133323 3.59999,-7.333315 7.33332,-7.333315 0.8,0 1.59999,0.133333 2.39999,0.399999 3.86666,1.466663 5.73332,5.599986 5.73332,10.133308 0,2.666659 -0.66666,5.599985 -1.99999,7.999979 -4.13333,7.599981 -12.9333,11.999969 -28.53326,12.799969 -1.6,0 -4.13333,0.26666 -7.06665,0.26666 -6.39999,0 -14.39997,-1.06666 -17.06663,-6.399979 -0.53333,-1.33333 -0.93333,-2.933326 -0.93333,-4.666655 0,-10.666639 9.86664,-29.86659 24.39994,-45.199885 29.46659,-31.19992 45.06655,-34.933244 45.06655,-34.933244 V 8.7999755 c -19.99995,0 -96.93308,0.133333 -96.93308,0.133333 V 49.466538 h 1.86666 c 0,0 1.86666,-30.399922 26.79993,-30.399922 2.79999,0 4.93332,1.199997 5.59999,3.199992 0.13333,0.266666 0.26666,0.666665 0.26666,0.933331 0,6.799982 -20.66661,23.733272 -30.93325,61.333176 -3.99999,14.933295 -3.99999,26.666595 -3.99999,27.333265 0,0 0,0 0,0 h 97.46641 v -1.73333 c 0,0 -3.19999,-1.46666 -3.19999,-11.066639 z m 109.73316,-0.133332 c 0,-7.066649 2.93332,-14.533297 3.19999,-24.799937 0,-0.533332 0,-0.933331 0,-1.33333 0,-7.866647 -2.13333,-15.466627 -7.86665,-21.866611 -4.66665,-5.33332 -10.9333,-7.733313 -16.93329,-7.733313 -8.26664,0 -16.39996,4.533321 -20.26661,12.266635 -2,3.99999 -2.8,7.733314 -2.8,11.066638 0,9.866642 6.66665,15.999959 6.66665,15.999959 0,0 2.53333,2.933326 7.19998,3.733324 1.06667,0.266666 2.13333,0.399999 3.06666,0.399999 5.06666,0 6.79999,-2.66666 6.79999,-2.66666 0,0 -3.06666,0 -4.53333,-3.199991 -0.53333,-1.066664 -0.66666,-2.266661 -0.66666,-3.333325 0,-4.133323 3.33332,-7.466648 7.06665,-7.466648 0.8,0 1.73333,0.266666 2.53332,0.533332 3.2,1.33333 5.33332,5.599986 5.33332,10.666639 0,9.066644 -7.19998,20.53328 -28.26659,20.53328 -6.66665,0 -14.5333,-0.26666 -14.5333,-14.933294 V 26.399931 c 0,-15.599961 14.39997,-15.733294 14.79997,-15.733294 0,0 0,0 0,0 V 8.9333085 h -59.19985 v 1.7333285 c 0,0 0,0 0,0 1.46666,0 14.66663,0.399999 14.66663,15.466628 0,17.199956 0,51.599868 0,68.666491 0,14.933294 -13.3333,15.333294 -14.66663,15.333294 0,0 0,0 0,0 v 1.73333 h 101.59974 v -1.73333 c 0,0 -3.19999,-1.73333 -3.19999,-11.199971 z M 801.63264,111.99971 V 69.466487 h -1.86666 c 0,0 -2.66666,32.266583 -29.59992,32.266583 -10.13331,0 -17.19996,0 -17.19996,-21.866609 0,-17.199956 7.19998,-22.799942 12.39997,-22.799942 0.26666,0 0.66666,0.133333 0.93333,0.133333 2.53333,0.399999 4.13332,2.533327 4.13332,4.799988 0,1.866661 -1.06666,3.733323 -3.59999,4.533321 -0.4,0.133333 -0.93333,0.133333 -1.33333,0.133333 -1.86666,0 -3.33332,-1.199997 -3.33332,-1.199997 0,0 0,0.266666 0,0.799998 0,1.199997 0.4,3.866657 3.86665,6.399984 2.4,1.866662 4.93332,2.133328 5.73332,2.133328 0.13333,0 0.26667,-0.133333 0.26667,-0.133333 0,0 0.4,0.133333 1.06666,0.133333 3.19999,0 13.19997,-0.933331 16.79996,-12.133302 0.53333,-1.999995 0.8,-3.866657 0.8,-5.866652 0,-9.466643 -6.79999,-18.26662 -17.86662,-18.26662 0,0 -0.13334,0 -0.26667,0 -8.13331,0 -16.79996,6.799982 -19.59995,19.199951 0,-0.266666 0,-4.266656 0,-9.33331 0,-7.733313 0,-17.999954 0,-20.133282 0,-5.866651 2.79999,-9.199976 15.46663,-9.199976 29.59992,0 31.33325,30.399922 31.33325,30.399922 h 1.86666 V 8.7999755 c -0.13333,0 -92.93309,0 -92.93309,0 v 1.8666615 c 0,0 14.53329,0.133333 14.53329,16.799957 v 65.866499 c 0,16.533287 -13.99996,16.799957 -14.53329,16.799957 0,0 0,0 0,0 v 1.73333 z"
     id="text1"
     style="font-weight:800;font-size:133.333px;line-height:1.25;font-family:DAVeau;-inkscape-font-specification:'DAVeau, Ultra-Bold';fill:#72080d;fill-opacity:1"
     aria-label="DRIZZLE"
     inkscape:label="drizzle" /><path
     id="rect3-1-2-1"
     style="fill:#72080d;stroke-width:0.888282"
     d="m 504.35864,152.814 h 355.44159 v 8 H 504.35864 Z m -144.31863,0.051 h 105.32848 v 8 H 360.04001 Z M 92.746956,152.254 H 223.86695 v 8 H 92.746956 Z M 0,232.094 h 859.80023 v 8 H 0 Z"
     inkscape:label="outlines" /></svg>
