<?xml version="1.0" encoding="UTF-8" standalone="no"?>
<!-- Created with Inkscape (http://www.inkscape.org/) -->

<svg
   width="150.00002"
   height="100"
   viewBox="0 0 39.687504 26.458334"
   version="1.1"
   id="svg1"
   inkscape:version="1.3.2 (091e20ef0f, 2023-11-25, custom)"
   sodipodi:docname="inomeado.svg"
   xmlns:inkscape="http://www.inkscape.org/namespaces/inkscape"
   xmlns:sodipodi="http://sodipodi.sourceforge.net/DTD/sodipodi-0.dtd"
   xmlns="http://www.w3.org/2000/svg"
   xmlns:svg="http://www.w3.org/2000/svg">
  <sodipodi:namedview
     id="namedview1"
     pagecolor="#ffffff"
     bordercolor="#111111"
     borderopacity="1"
     inkscape:showpageshadow="0"
     inkscape:pageopacity="0"
     inkscape:pagecheckerboard="1"
     inkscape:deskcolor="#d1d1d1"
     inkscape:document-units="px"
     inkscape:zoom="5.7299663"
     inkscape:cx="66.405277"
     inkscape:cy="51.483723"
     inkscape:window-width="1920"
     inkscape:window-height="1008"
     inkscape:window-x="0"
     inkscape:window-y="0"
     inkscape:window-maximized="1"
     inkscape:current-layer="svg1" />
  <defs
     id="defs1" />
  <path
     id="path196"
     style="fill:#463742;fill-opacity:1;fill-rule:nonzero;stroke:none;stroke-width:0.018279"
     d="m 38.188416,9.5201131 v 7.4180419 h 0.189179 V 9.5201131 H 38.188416 M 29.149333,1.2190319 h -18.9042 v 0.1766149 h 18.9042 V 1.2190319 m 0,23.8435891 h -18.9042 v 0.17662 h 18.9042 v -0.17662 M 1.0168332,9.5201131 V 16.938155 H 1.2060126 V 9.5201131 H 1.0168332 M 4.2589661,23.135693 c 0,0 -0.027993,-0.0097 -0.082101,-0.02373 -0.054295,-0.01352 -0.1362084,-0.02735 -0.2419575,-0.02548 -0.2050686,0.002 -0.5325369,0.08328 -0.7608735,0.362827 -0.1118088,0.138681 -0.1889917,0.318671 -0.2084792,0.517718 -0.018715,0.196632 0.016623,0.419542 0.1398066,0.607132 0.013621,0.02308 0.024989,0.04677 0.040488,0.06982 l 0.058837,0.0672 c 0.040488,0.04421 0.078127,0.09376 0.1292048,0.125348 0.04955,0.03344 0.094209,0.07665 0.1496415,0.102243 0.054864,0.02658 0.1097227,0.05507 0.1662868,0.08011 0.2319347,0.08824 0.4837271,0.11846 0.7313634,0.123 0.2491486,0.0054 0.4952673,-0.02608 0.7334442,-0.07072 0.2389329,-0.04451 0.4689695,-0.109481 0.6863396,-0.192196 0.1089667,-0.04045 0.2143351,-0.08576 0.3157352,-0.140957 0.049389,-0.02524 0.1038615,-0.05622 0.1468047,-0.0868 0.051641,-0.037 0.096101,-0.07264 0.1367767,-0.11176 0.164206,-0.155777 0.2714674,-0.34192 0.3285998,-0.525919 0.056377,-0.187109 0.066023,-0.362687 0.025901,-0.532893 C 6.7160132,23.320169 6.6418443,23.190459 6.5633368,23.093794 6.4034797,22.89842 6.2375737,22.842111 6.2315194,22.834731 c -0.092509,-0.03926 -0.1899354,0.01953 -0.2079053,0.109978 -0.018929,0.09244 0.00698,0.174693 0.054858,0.195256 0.00321,0.0061 0.1002634,0.02918 0.2135843,0.153569 0.1133157,0.123841 0.2224699,0.350887 0.1424502,0.646582 -0.036519,0.143716 -0.113884,0.294674 -0.2355277,0.421343 -0.030083,0.03214 -0.064511,0.0616 -0.095914,0.08713 -0.040273,0.03164 -0.077183,0.05403 -0.122019,0.07983 -0.084186,0.05113 -0.1795323,0.09769 -0.2782833,0.139226 -0.3951918,0.168815 -0.8594315,0.288101 -1.3234888,0.305764 -0.2311734,0.006 -0.4646205,-0.01237 -0.6761241,-0.08223 l -0.1505848,-0.06449 c -0.051052,-0.02043 -0.090047,-0.05692 -0.1358276,-0.08417 -0.048424,-0.02634 -0.078507,-0.06561 -0.1146456,-0.100251 l -0.053518,-0.0527 c -0.015712,-0.02078 -0.028958,-0.04506 -0.04333,-0.06727 -0.239496,-0.339497 -0.1818005,-0.778218 0.013996,-1.041555 0.2016634,-0.273972 0.5145618,-0.369256 0.7164181,-0.3798 0.1036685,-0.0064 0.1857743,0.0035 0.2402575,0.01471 0.054483,0.01151 0.083044,0.02008 0.083044,0.02008 m -2.1834879,1.835434 c 0,0 0.095539,0.07631 0.2815008,0.187465 0.1863372,0.109131 0.4684011,0.250851 0.8382495,0.344743 0.3675693,0.09749 0.8244355,0.135641 1.3030576,0.07473 0.478622,-0.05505 0.9710526,-0.189726 1.4553481,-0.313713 0.4833518,-0.124106 0.9684035,-0.228633 1.418647,-0.239742 0.2224754,-0.0045 0.4430523,0.01117 0.6295827,0.05133 0.1154016,0.02428 0.1853987,0.04511 0.2760148,0.07851 0.086261,0.03049 0.165906,0.06782 0.2402522,0.106043 0.2996582,0.155918 0.4799465,0.360549 0.5733993,0.509228 0.091941,0.152067 0.1074544,0.251202 0.112565,0.2574 0.015498,0.05464 0.1450993,0.08251 0.2936039,0.06141 0.14718,-0.02073 0.2523608,-0.113358 0.2256875,-0.204281 -0.00622,-0.0088 -0.04483,-0.162416 -0.1937161,-0.3727 -0.1490725,-0.206949 -0.4158156,-0.460218 -0.8013601,-0.629858 -0.096102,-0.04201 -0.1978828,-0.08155 -0.3064686,-0.112598 -0.102537,-0.03204 -0.238933,-0.0603 -0.3378717,-0.07383 -0.2419574,-0.03579 -0.4839202,-0.03564 -0.7347687,-0.01562 -0.4994287,0.04436 -0.9971574,0.18794 -1.4755918,0.343172 -0.4780535,0.155367 -0.9468353,0.315632 -1.402377,0.397177 -0.453461,0.087 -0.8921643,0.0786 -1.2563285,0.0065 -0.3656871,-0.0685 -0.6539929,-0.190135 -0.8460091,-0.286726 -0.1922038,-0.09831 -0.2934163,-0.16869 -0.2934163,-0.16869 m 4.0332833,1.487216 c 0,0 0.016839,-0.02478 0.048263,-0.07121 0.033462,-0.04506 0.071509,-0.117082 0.1155893,-0.209238 0.080589,-0.186018 0.144724,-0.473216 0.090428,-0.796733 -0.050515,-0.323286 -0.2090419,-0.677567 -0.51343,-0.968511 -0.2920917,-0.277891 -0.7120691,-0.461415 -1.1339341,-0.528743 -0.4245141,-0.07044 -0.8567877,-0.0396 -1.2377902,0.05505 -0.3821394,0.09472 -0.7160427,0.242375 -0.9903524,0.386428 -0.2750656,0.144117 -0.4931866,0.28437 -0.6471771,0.38483 -0.1522905,0.102865 -0.2423382,0.163589 -0.2489554,0.167999 -0.055052,0.0364 -0.1454802,0.0035 -0.2016634,-0.0732 -0.056188,-0.07677 -0.057132,-0.16862 -0.00215,-0.204967 0.00719,-0.0045 0.1031,-0.06258 0.2656062,-0.161025 0.1643937,-0.09583 0.3987846,-0.23003 0.6963622,-0.367314 0.2968215,-0.137018 0.6606102,-0.27646 1.0749087,-0.35765 0.4165721,-0.08197 0.8800611,-0.09177 1.3297362,0.0052 0.4458945,0.09286 0.8870539,0.313553 1.1763088,0.618219 0.3136598,0.330351 0.4515681,0.701303 0.4882693,1.037637 0.03861,0.335451 -0.041988,0.624522 -0.1322347,0.808526 -0.049014,0.09135 -0.090616,0.161781 -0.126368,0.205583 -0.033677,0.04501 -0.051641,0.06908 -0.051641,0.06908 M 5.7349385,26.180426 c 0,0 0.01212,-0.01608 0.034802,-0.04631 0.025365,-0.02854 0.052392,-0.07679 0.087211,-0.138114 0.061863,-0.125081 0.1250435,-0.327714 0.098563,-0.581744 -0.012118,-0.125987 -0.043918,-0.263412 -0.1031043,-0.40022 -0.056752,-0.133634 -0.150773,-0.278583 -0.2502801,-0.386283 -0.2357155,-0.253485 -0.5741556,-0.424983 -0.9515705,-0.51096 -0.3762728,-0.0856 -0.7803556,-0.08306 -1.1441498,-0.01472 -0.3677623,0.06803 -0.7016604,0.190358 -0.9799382,0.315371 -0.2788517,0.124937 -0.5049199,0.25016 -0.6643962,0.340679 -0.1585325,0.09287 -0.2519854,0.147707 -0.2591765,0.151836 -0.057696,0.03299 -0.1479362,-0.004 -0.2016634,-0.08223 -0.053727,-0.07829 -0.050515,-0.168545 0.00703,-0.201523 0.0074,-0.004 0.106886,-0.05595 0.275441,-0.144332 0.1700727,-0.08534 0.4118425,-0.204486 0.7132006,-0.321709 0.3004198,-0.117208 0.6638278,-0.230986 1.0631862,-0.284445 0.3989777,-0.05421 0.8337074,-0.03524 1.2341974,0.07761 0.4006776,0.111781 0.7591735,0.321519 0.9909153,0.601473 0.2213385,0.268109 0.3217895,0.593673 0.3265193,0.854873 0.010403,0.265491 -0.069049,0.469556 -0.1407451,0.592432 -0.039736,0.06037 -0.070378,0.106874 -0.097995,0.134194 -0.024775,0.02878 -0.038021,0.0441 -0.038021,0.0441 M 3.2644577,22.197406 c 0,0 0.00906,0.02668 0.021557,0.07761 0.011744,0.05084 0.022523,0.127572 0.015712,0.224357 -0.011368,0.188416 -0.1133155,0.480671 -0.4067319,0.668805 -0.2820637,0.182904 -0.7519823,0.236649 -1.1157765,0.01312 -0.023809,-0.01352 -0.049764,-0.02579 -0.072073,-0.0405 l -0.056377,-0.04997 c -0.037056,-0.0338 -0.079076,-0.06181 -0.1074544,-0.106924 -0.029118,-0.04276 -0.068292,-0.07921 -0.090047,-0.12688 l -0.06924,-0.140671 c -0.074726,-0.197443 -0.094402,-0.415392 -0.087967,-0.631272 0.018929,-0.433194 0.1466116,-0.866598 0.3274683,-1.235574 0.044455,-0.09225 0.094396,-0.181176 0.1492607,-0.259678 0.027617,-0.04185 0.051641,-0.07637 0.085318,-0.114113 0.027403,-0.02909 0.059026,-0.06139 0.093459,-0.08941 0.1356399,-0.113568 0.2971968,-0.185947 0.4511873,-0.220017 0.316872,-0.07451 0.5599663,0.02723 0.6925817,0.133084 0.1333715,0.105832 0.157964,0.196135 0.1645868,0.199314 0.021933,0.0447 0.1100981,0.06898 0.2090368,0.05133 0.097051,-0.01693 0.1598571,-0.107755 0.1178631,-0.194212 -0.00794,-0.0055 -0.068297,-0.160405 -0.277527,-0.309698 -0.1034808,-0.07333 -0.2423382,-0.142484 -0.4142986,-0.178762 -0.1823689,-0.03745 -0.3704114,-0.02849 -0.5707502,0.02428 -0.1971267,0.05318 -0.3965164,0.1535 -0.5633715,0.306804 -0.041828,0.03785 -0.080212,0.07941 -0.1197507,0.127572 -0.032712,0.0401 -0.065835,0.09099 -0.092889,0.137074 -0.059213,0.0946 -0.1078299,0.192976 -0.1509607,0.294813 -0.088728,0.202899 -0.1583448,0.417739 -0.2060177,0.640649 -0.047673,0.222574 -0.081537,0.452304 -0.075671,0.684822 0.00483,0.231245 0.037269,0.466307 0.1318594,0.682934 0.026651,0.05272 0.057132,0.1039 0.085693,0.155102 0.027456,0.05181 0.073783,0.09341 0.109535,0.139707 0.033837,0.04766 0.086835,0.08299 0.1343207,0.120666 l 0.071884,0.05499 c 0.024613,0.01452 0.049925,0.02503 0.074915,0.03775 0.2009073,0.115014 0.4396525,0.148128 0.6502069,0.13059 0.2132035,-0.01827 0.4059758,-0.09023 0.5544806,-0.194684 0.2994704,-0.213182 0.3866814,-0.51896 0.3887621,-0.710344 0.00215,-0.09866 -0.01287,-0.175314 -0.027242,-0.22602 -0.014962,-0.05042 -0.025526,-0.07663 -0.025526,-0.07663 m -1.9659519,2.038681 c 0,0 -0.075483,-0.09458 -0.1806691,-0.273901 C 1.0143718,23.782756 0.88403007,23.513765 0.81062774,23.17225 0.73344484,22.832263 0.72436071,22.422645 0.81759919,21.999259 0.90500305,21.573925 1.076588,21.136371 1.2430624,20.689999 1.4093492,20.243348 1.5629642,19.778683 1.6106371,19.31244 1.6320335,19.078211 1.6321942,18.852402 1.5937984,18.626383 1.5794271,18.534068 1.5491824,18.406727 1.5149104,18.311032 1.4816091,18.209671 1.4392398,18.114666 1.3942159,18.02491 1.2126031,17.664976 0.94132335,17.415928 0.71960413,17.276631 0.49429737,17.137755 0.32971056,17.101742 0.32043874,17.095805 c -0.0974264,-0.02483 -0.19674592,0.0734 -0.21887709,0.210759 -0.0225226,0.138682 0.0074,0.259628 0.0658358,0.274112 0.006649,0.005 0.11274722,0.01927 0.27562876,0.105073 0.15928863,0.08728 0.37854646,0.255692 0.54558931,0.535316 0.0408624,0.06946 0.0807812,0.143838 0.11350868,0.224287 0.035768,0.08473 0.058076,0.150055 0.083993,0.257686 0.043115,0.174272 0.059782,0.380064 0.055052,0.587734 -0.011905,0.420367 -0.123912,0.873362 -0.25671507,1.3245 -0.13280309,0.452108 -0.27714635,0.911937 -0.33597869,1.358869 -0.0654551,0.446721 -0.024614,0.873362 0.079832,1.216533 0.10064402,0.345305 0.2523661,0.608648 0.36927469,0.78251 0.1191823,0.173775 0.2009073,0.262916 0.2009073,0.262916 M 7.1e-7,20.821421 c 0,0 0.0166238,-0.01212 0.0476729,-0.03505 0.0294939,-0.02543 0.0792636,-0.05381 0.14396251,-0.09073 0.1316716,-0.06602 0.34979257,-0.137905 0.6322371,-0.127076 0.27809018,0.0054 0.62409678,0.101888 0.90578518,0.306589 0.29606,0.215881 0.516074,0.547378 0.632044,0.918156 0.1171017,0.370332 0.134503,0.771944 0.074915,1.139668 -0.059025,0.36869 -0.1821813,0.703791 -0.3087424,0.981327 -0.1265611,0.278388 -0.2551975,0.50199 -0.3473312,0.659299 -0.095533,0.156063 -0.1517166,0.248153 -0.1558779,0.254917 -0.035768,0.05348 -0.1326155,0.05595 -0.2164211,0.0054 -0.083806,-0.05043 -0.1225875,-0.13474 -0.086835,-0.188206 0.00429,-0.0066 0.063562,-0.09307 0.1638306,-0.239545 0.097426,-0.147513 0.2326857,-0.35628 0.3673817,-0.61361 0.1348838,-0.256858 0.2671184,-0.564424 0.3416577,-0.903441 0.074533,-0.334625 0.080212,-0.707801 -0.00778,-1.055369 -0.08834,-0.348826 -0.2676841,-0.661633 -0.5349902,-0.880889 -0.1123719,-0.09203 -0.2661747,-0.180345 -0.4076811,-0.233615 -0.1447186,-0.05636 -0.29076719,-0.08617 -0.42470714,-0.09824 -0.27033058,-0.02588 -0.48694467,0.03079 -0.62087926,0.08774 -0.0658358,0.03229 -0.11748234,0.05733 -0.1483169,0.08074 C 0.0173746,20.810319 0,20.821429 0,20.821429 m 36.128512,1.385691 c 0,0 -0.0104,0.02623 -0.02531,0.07666 -0.01464,0.05071 -0.02934,0.127286 -0.02729,0.225944 0.0021,0.19146 0.08913,0.497218 0.388553,0.710416 0.148542,0.10438 0.34126,0.176339 0.554464,0.194687 0.210742,0.01748 0.449525,-0.01567 0.650449,-0.130588 0.02477,-0.01272 0.05009,-0.02327 0.07471,-0.0378 l 0.07203,-0.05499 c 0.04729,-0.03765 0.100514,-0.07292 0.134127,-0.120666 0.03599,-0.04621 0.08211,-0.08783 0.109595,-0.139638 0.02853,-0.05127 0.05897,-0.102383 0.08586,-0.155177 0.09438,-0.216552 0.126755,-0.451613 0.131688,-0.682949 0.0058,-0.232428 -0.02783,-0.462227 -0.07567,-0.684731 -0.04773,-0.22291 -0.117349,-0.43775 -0.205884,-0.640669 -0.04328,-0.101823 -0.09192,-0.200216 -0.151117,-0.294794 -0.02703,-0.04616 -0.06016,-0.097 -0.09289,-0.137094 -0.03952,-0.04816 -0.07773,-0.08976 -0.119789,-0.12755 -0.16678,-0.153381 -0.366228,-0.253626 -0.563311,-0.306806 -0.200345,-0.05279 -0.388425,-0.06177 -0.570788,-0.02428 -0.171741,0.03629 -0.310823,0.105338 -0.414283,0.178758 -0.209197,0.149294 -0.26958,0.30417 -0.277564,0.309698 -0.04193,0.08643 0.02108,0.177312 0.117879,0.194284 0.09894,0.01757 0.187114,-0.0067 0.209058,-0.0514 0.0066,-0.0031 0.03142,-0.09349 0.164565,-0.199335 0.132653,-0.105897 0.37592,-0.20765 0.692565,-0.133078 0.154008,0.03409 0.315548,0.106464 0.451226,0.220011 0.03443,0.02799 0.06598,0.06025 0.09348,0.08942 0.03384,0.03774 0.05787,0.07223 0.08551,0.114114 0.05468,0.07843 0.104559,0.167438 0.149051,0.259683 0.180814,0.368906 0.308513,0.802379 0.327431,1.235574 0.0064,0.215881 -0.01325,0.433809 -0.08793,0.631201 l -0.06924,0.140744 c -0.02172,0.04766 -0.0609,0.08403 -0.09008,0.126814 -0.02816,0.04516 -0.07035,0.0732 -0.107453,0.106995 l -0.05637,0.04987 c -0.02231,0.01472 -0.04821,0.02704 -0.07205,0.04056 -0.363585,0.223546 -0.833482,0.169802 -1.115567,-0.01312 -0.293583,-0.188205 -0.395567,-0.480455 -0.406942,-0.668801 -0.0068,-0.09679 0.0038,-0.17351 0.01576,-0.224286 0.0125,-0.05099 0.02156,-0.0777 0.02156,-0.0777 m 1.966106,2.038663 c 0,0 0.08152,-0.08913 0.200698,-0.262933 0.116914,-0.173846 0.268637,-0.4372 0.369275,-0.782418 0.10443,-0.343172 0.145293,-0.769813 0.08003,-1.216534 -0.05904,-0.446932 -0.203369,-0.906761 -0.336151,-1.358869 -0.132804,-0.451138 -0.244815,-0.904132 -0.256716,-1.324499 -0.0048,-0.207671 0.01191,-0.413469 0.05505,-0.587736 0.02585,-0.107635 0.04826,-0.172965 0.08394,-0.25776 0.03276,-0.08045 0.07264,-0.154752 0.113734,-0.224286 0.166855,-0.279625 0.386113,-0.447975 0.545364,-0.535243 0.162941,-0.08589 0.26907,-0.10039 0.275634,-0.105072 0.05868,-0.01452 0.08838,-0.135501 0.06585,-0.274181 -0.0221,-0.137359 -0.121412,-0.235542 -0.218876,-0.210689 -0.0093,0.006 -0.173821,0.04195 -0.399128,0.18082 -0.221548,0.139301 -0.492828,0.38835 -0.674612,0.748283 -0.0451,0.08976 -0.08742,0.184691 -0.120523,0.286102 -0.03422,0.09569 -0.06466,0.223057 -0.07908,0.315301 -0.03845,0.22609 -0.03823,0.451899 -0.01662,0.686129 0.04746,0.466241 0.20123,0.930907 0.367345,1.377557 0.166496,0.446297 0.33808,0.883923 0.4255,1.309255 0.09326,0.423392 0.08416,0.832935 0.0069,1.172997 -0.07337,0.34151 -0.203728,0.61043 -0.307188,0.789879 -0.105148,0.179318 -0.180459,0.273897 -0.180459,0.273897 m 1.592885,-3.765493 c 0,0 -0.02665,-0.01568 -0.07625,-0.04506 -0.04826,-0.0314 -0.125409,-0.06686 -0.224138,-0.107896 -0.199223,-0.07528 -0.506867,-0.135165 -0.853441,-0.08439 -0.346345,0.04705 -0.725669,0.195044 -1.037452,0.479294 -0.297503,0.272735 -0.494077,0.66467 -0.566342,1.058543 -0.07531,0.396352 -0.04241,0.800087 0.05897,1.155675 0.10145,0.35682 0.25961,0.668534 0.413976,0.924703 0.154371,0.256645 0.304522,0.460305 0.412202,0.604088 0.110253,0.142319 0.175215,0.226283 0.179945,0.232432 0.03893,0.05154 0.0038,0.135836 -0.07834,0.188344 -0.08233,0.05251 -0.180685,0.05335 -0.219618,0.002 -0.0048,-0.0067 -0.06703,-0.09638 -0.172571,-0.248029 -0.102553,-0.153585 -0.24629,-0.372345 -0.393283,-0.650186 -0.14682,-0.27699 -0.296097,-0.616643 -0.383083,-1.003477 -0.08778,-0.38891 -0.09843,-0.821699 0.0056,-1.241505 0.09931,-0.416293 0.335797,-0.828044 0.662128,-1.098286 0.35382,-0.29273 0.751242,-0.421393 1.111422,-0.455748 0.359285,-0.03609 0.669008,0.0392 0.866092,0.123492 0.09782,0.04566 0.17306,0.08451 0.220207,0.118033 0.04826,0.0314 0.07397,0.04816 0.07397,0.04816 m -0.297781,0.348769 c 0,0 -0.01722,-0.01131 -0.0495,-0.0325 -0.03045,-0.02358 -0.08211,-0.04891 -0.147935,-0.08148 -0.133978,-0.05768 -0.350945,-0.116747 -0.623191,-0.09191 -0.134867,0.01127 -0.282069,0.04091 -0.42845,0.09619 -0.143228,0.05299 -0.298543,0.140747 -0.413982,0.233739 -0.27143,0.220086 -0.455144,0.536003 -0.547295,0.888341 -0.09156,0.351243 -0.08889,0.728549 -0.01566,1.068191 0.0728,0.343382 0.203958,0.655008 0.337877,0.914901 0.133746,0.260374 0.267875,0.471433 0.364904,0.620303 0.09932,0.147918 0.158135,0.235276 0.162484,0.2419 0.0354,0.05381 -0.0038,0.138043 -0.08793,0.188274 -0.08401,0.05016 -0.180685,0.04726 -0.215852,-0.0065 -0.0043,-0.0067 -0.06,-0.0997 -0.154597,-0.25714 -0.09157,-0.158746 -0.219033,-0.38448 -0.344665,-0.665906 -0.125613,-0.280456 -0.247407,-0.619612 -0.304517,-0.992582 -0.05831,-0.372485 -0.03786,-0.778303 0.08297,-1.152171 0.119782,-0.374061 0.344361,-0.708737 0.644169,-0.925094 0.287174,-0.206644 0.636034,-0.300466 0.915813,-0.304806 0.284353,-0.0098 0.502871,0.06443 0.634483,0.131206 0.06474,0.0372 0.114469,0.06575 0.143813,0.09148 0.03083,0.02323 0.04708,0.0356 0.04708,0.0356 m -4.266147,2.306471 c 0,0 0.02853,-0.0086 0.08307,-0.02018 0.05447,-0.01096 0.136574,-0.02103 0.240242,-0.01462 0.201814,0.01057 0.514921,0.105757 0.716434,0.379799 0.19599,0.263338 0.253482,0.702059 0.01421,1.041626 -0.01464,0.02213 -0.02783,0.04646 -0.04354,0.0672 l -0.05357,0.05271 c -0.03614,0.03466 -0.06621,0.0739 -0.114453,0.100321 -0.04574,0.02719 -0.08469,0.06375 -0.135833,0.0841 l -0.150751,0.06458 c -0.211488,0.06981 -0.444929,0.08809 -0.676087,0.08217 -0.464074,-0.01767 -0.928297,-0.136949 -1.32351,-0.305763 -0.09873,-0.04155 -0.194134,-0.0881 -0.278074,-0.139227 -0.04483,-0.02579 -0.08195,-0.04822 -0.122229,-0.07984 -0.03121,-0.02553 -0.06585,-0.05498 -0.09571,-0.08713 -0.121847,-0.12667 -0.199223,-0.277557 -0.235731,-0.421344 -0.07987,-0.295694 0.02912,-0.522741 0.142487,-0.646581 0.113279,-0.124393 0.210159,-0.147443 0.213564,-0.15357 0.04778,-0.02059 0.07374,-0.102864 0.05505,-0.195255 -0.01818,-0.09052 -0.115591,-0.149224 -0.2081,-0.109978 -0.0059,0.0074 -0.171809,0.06369 -0.3318,0.259063 -0.07856,0.09666 -0.152532,0.226374 -0.191464,0.386848 -0.04011,0.170207 -0.03045,0.345785 0.02596,0.532894 0.05712,0.183999 0.16457,0.370142 0.328777,0.52592 0.04049,0.0391 0.08489,0.07478 0.136546,0.11176 0.04295,0.03058 0.09741,0.06155 0.146842,0.0868 0.101379,0.05519 0.206768,0.100532 0.315698,0.140959 0.217407,0.08272 0.447444,0.147707 0.68636,0.192196 0.238381,0.0447 0.484462,0.07611 0.733423,0.07072 0.247862,-0.0045 0.499413,-0.0347 0.731589,-0.123001 0.05632,-0.02503 0.111219,-0.05348 0.166062,-0.08005 0.05541,-0.02567 0.100138,-0.06884 0.149641,-0.102312 0.05106,-0.03154 0.08889,-0.08112 0.129247,-0.125349 l 0.05881,-0.0672 c 0.01566,-0.02298 0.02681,-0.04671 0.04049,-0.06981 0.123113,-0.18759 0.158714,-0.4105 0.139951,-0.607131 -0.01968,-0.199049 -0.09665,-0.379039 -0.208683,-0.517789 -0.228261,-0.279554 -0.555783,-0.360815 -0.760858,-0.362832 -0.105523,-0.002 -0.187624,0.01191 -0.24194,0.02548 -0.05409,0.01402 -0.0821,0.02383 -0.0821,0.02383 m 2.183657,1.835492 c 0,0 -0.101379,0.07038 -0.293454,0.168689 -0.192204,0.09659 -0.480322,0.218159 -0.846191,0.286724 -0.364095,0.07211 -0.802836,0.08045 -1.256259,-0.0064 -0.455579,-0.08162 -0.924398,-0.241806 -1.402431,-0.397247 -0.478413,-0.155162 -0.976125,-0.298804 -1.475592,-0.343102 -0.25081,-0.02013 -0.492601,-0.02028 -0.734768,0.01553 -0.09896,0.01361 -0.235297,0.04181 -0.337851,0.07383 -0.108419,0.03104 -0.210178,0.07065 -0.306318,0.112596 -0.385528,0.169641 -0.652213,0.422911 -0.801495,0.62982 -0.148901,0.210283 -0.187473,0.363994 -0.193753,0.3727 -0.02665,0.09092 0.0787,0.183578 0.225671,0.204281 0.148543,0.02107 0.278165,-0.0067 0.293604,-0.06141 0.0054,-0.0062 0.0207,-0.105337 0.112619,-0.257405 0.09342,-0.148678 0.273945,-0.35331 0.573378,-0.509228 0.07433,-0.0382 0.15399,-0.07554 0.240236,-0.106043 0.09082,-0.03329 0.160801,-0.05421 0.276015,-0.07851 0.186733,-0.04015 0.407091,-0.05575 0.629604,-0.05133 0.450259,0.01117 0.935466,0.115635 1.418609,0.239742 0.484333,0.123987 0.97678,0.258662 1.455574,0.313714 0.478413,0.06098 0.935467,0.02283 1.303041,-0.07465 0.369634,-0.09396 0.651923,-0.23561 0.838057,-0.344813 0.186149,-0.111145 0.281704,-0.187393 0.281704,-0.187393 m -3.657569,1.212096 c 0,0 -0.01309,-0.01546 -0.03748,-0.04441 -0.02745,-0.02749 -0.05772,-0.07404 -0.09725,-0.134341 -0.07071,-0.12294 -0.147732,-0.326671 -0.136192,-0.590434 0.0058,-0.259473 0.109138,-0.582418 0.328396,-0.845565 0.231382,-0.276371 0.586302,-0.481762 0.983574,-0.590009 0.396688,-0.109417 0.826709,-0.125488 1.220576,-0.06996 0.394988,0.05512 0.753838,0.170136 1.051266,0.28826 0.298108,0.118104 0.537604,0.238225 0.706164,0.324323 0.167081,0.08907 0.26581,0.141634 0.272986,0.145429 0.05734,0.03344 0.06,0.123917 0.0059,0.202089 -0.05419,0.07815 -0.144403,0.114448 -0.201685,0.08106 -0.007,-0.004 -0.09975,-0.0594 -0.25656,-0.152955 -0.157926,-0.09099 -0.381539,-0.217308 -0.657173,-0.343026 -0.27527,-0.125838 -0.60463,-0.249334 -0.967701,-0.31894 -0.358475,-0.06962 -0.758187,-0.07485 -1.130492,0.0073 -0.373623,0.08237 -0.708657,0.24981 -0.943655,0.499354 -0.09851,0.104947 -0.193094,0.24852 -0.250075,0.380561 -0.06031,0.135166 -0.0923,0.271619 -0.105375,0.396702 -0.02757,0.252228 0.03309,0.454526 0.09406,0.579665 0.03459,0.06134 0.06149,0.109571 0.08647,0.138344 0.02231,0.03034 0.03422,0.04657 0.03422,0.04657 m -0.379061,0.27056 c 0,0 -0.01759,-0.02413 -0.05089,-0.0694 -0.03555,-0.04401 -0.07627,-0.115016 -0.123702,-0.206645 -0.08802,-0.18455 -0.165907,-0.473406 -0.123568,-0.806915 0.04028,-0.334341 0.18106,-0.70247 0.495266,-1.026457 0.290199,-0.299495 0.729074,-0.513503 1.171429,-0.601953 0.445894,-0.09232 0.905179,-0.07879 1.316116,0.006 0.409321,0.08383 0.768611,0.224627 1.061834,0.363023 0.293814,0.138756 0.525936,0.273692 0.688593,0.370422 0.160801,0.09921 0.255749,0.157846 0.262994,0.162262 0.05483,0.03684 0.05352,0.128807 -0.0033,0.205462 -0.0566,0.07658 -0.146836,0.108867 -0.201663,0.07209 -0.0066,-0.0045 -0.09555,-0.06566 -0.246306,-0.169306 -0.152308,-0.101272 -0.36801,-0.242355 -0.639445,-0.387805 -0.270899,-0.145424 -0.600261,-0.294313 -0.97752,-0.391595 -0.375313,-0.09727 -0.803039,-0.131566 -1.223735,-0.06581 -0.418256,0.06306 -0.835638,0.239952 -1.128641,0.512882 -0.304614,0.284516 -0.466149,0.635968 -0.519877,0.957047 -0.05807,0.321568 0.0033,0.608522 0.08174,0.794924 0.04257,0.09253 0.07967,0.165035 0.112903,0.210284 0.03105,0.04666 0.04752,0.07148 0.04752,0.07148 M 35.135328,3.3227355 c 0,0 0.02816,0.00971 0.0821,0.023681 0.05424,0.013617 0.136342,0.027386 0.242091,0.025433 0.205069,-0.00201 0.532575,-0.083183 0.760933,-0.3627723 0.111803,-0.1386455 0.188798,-0.318795 0.208458,-0.5176689 0.01872,-0.1967561 -0.01663,-0.4196463 -0.139807,-0.6072155 -0.01363,-0.02313 -0.02499,-0.04681 -0.04049,-0.069766 l -0.05904,-0.067293 c -0.04028,-0.044157 -0.07811,-0.093783 -0.129173,-0.1252231 -0.0496,-0.033544 -0.094,-0.07665 -0.149636,-0.1022631 -0.05484,-0.026685 -0.109514,-0.055102 -0.166136,-0.080184 -0.231876,-0.088309 -0.483727,-0.118334 -0.731514,-0.122925 -0.248961,-0.00546 -0.495101,0.025984 -0.733428,0.070646 -0.238762,0.044508 -0.468798,0.1095025 -0.686147,0.1921601 -0.109213,0.040453 -0.214512,0.085837 -0.315757,0.1411188 -0.04934,0.025282 -0.103823,0.056163 -0.146992,0.086723 -0.05142,0.036897 -0.09592,0.07259 -0.136627,0.1117955 -0.164205,0.1557778 -0.27166,0.3417599 -0.328546,0.5259747 -0.05662,0.1870384 -0.06621,0.3625971 -0.02596,0.5328587 0.03877,0.1603687 0.112748,0.2901828 0.19147,0.3867935 0.159835,0.1953393 0.325726,0.2516826 0.33157,0.2589221 0.09274,0.039401 0.18999,-0.019426 0.208093,-0.109853 0.01893,-0.092376 -0.0072,-0.1746775 -0.05497,-0.1953444 -0.0033,-0.00601 -0.100138,-0.029138 -0.213433,-0.1534797 -0.113504,-0.1238112 -0.222492,-0.3509419 -0.142622,-0.6466018 0.03651,-0.1437671 0.114039,-0.2945985 0.235661,-0.4212384 0.02993,-0.032141 0.06453,-0.061635 0.09578,-0.087249 0.04049,-0.031591 0.07737,-0.054046 0.122153,-0.079829 0.08423,-0.051046 0.179339,-0.097672 0.278299,-0.1391762 0.394983,-0.1688498 0.859438,-0.2880651 1.323286,-0.3057281 0.231382,-0.00601 0.464808,0.012366 0.676156,0.082127 l 0.150757,0.064644 c 0.05106,0.020327 0.09008,0.056869 0.135833,0.084069 0.04847,0.026334 0.07832,0.065524 0.114677,0.1003206 l 0.05335,0.052629 c 0.01566,0.020827 0.02891,0.045059 0.04344,0.067293 0.239367,0.339462 0.181876,0.7781831 -0.01394,1.0415208 -0.201662,0.2739367 -0.514545,0.3693108 -0.716433,0.3797344 -0.103674,0.00652 -0.185775,-0.0035 -0.240242,-0.014469 -0.05468,-0.011665 -0.08322,-0.020126 -0.08322,-0.020126 m 2.183688,-1.835638 c 0,0 -0.09555,-0.076124 -0.281705,-0.1873939 C 36.851172,1.1905949 36.569092,1.0489455 36.199243,0.95498318 35.831674,0.85749129 35.37462,0.81934163 34.896207,0.88027595 34.417565,0.93538268 33.924967,1.0701381 33.440629,1.1941245 32.957486,1.3181109 32.47221,1.422672 32.022019,1.4337965 31.799512,1.4383024 31.579155,1.4224818 31.392415,1.3823996 31.277207,1.3582182 31.207231,1.3373409 31.116406,1.3039825 31.030311,1.2734428 30.950651,1.2361593 30.87617,1.1978343 30.576662,1.0420565 30.396416,0.83735508 30.302942,0.68864148 30.21102,0.53657351 30.195488,0.43748953 30.190398,0.43131149 c -0.01555,-0.0547513 -0.145136,-0.0824824 -0.293812,-0.061465 -0.146993,0.020677 -0.252157,0.11338761 -0.225688,0.20434602 0.0064,0.008662 0.045,0.1623163 0.193679,0.3726652 0.149282,0.20682419 0.41604,0.46009379 0.801564,0.62982479 0.09614,0.042054 0.197904,0.081596 0.306453,0.1125065 0.102574,0.031991 0.238986,0.060403 0.337721,0.073825 0.242166,0.035847 0.484108,0.035697 0.734994,0.01557 0.499391,-0.044307 0.997103,-0.1879246 1.475362,-0.3429965 0.478262,-0.1554223 0.946856,-0.3156159 1.402361,-0.397217 0.453498,-0.0870676 0.892163,-0.0785923 1.256558,-0.00652 0.365644,0.06853 0.653763,0.1902177 0.845967,0.2866532 0.192074,0.098373 0.293453,0.1686695 0.293453,0.1686695 M 33.285673,5.0065175e-6 c 0,0 -0.01679,0.024882383482 -0.04821,0.071177653482 -0.03368,0.04505866 -0.07176,0.11710245 -0.115644,0.20929747 -0.08055,0.18597711 -0.144703,0.47316097 -0.09039,0.79672207 0.05047,0.3233911 0.209063,0.6775121 0.513446,0.968581 0.292054,0.2778216 0.711859,0.4613255 1.133746,0.5287934 0.42446,0.070296 0.856996,0.039551 1.237774,-0.055102 0.382348,-0.094843 0.716231,-0.2423205 0.99054,-0.3864431 0.274895,-0.1441226 0.492956,-0.2843553 0.646968,-0.384851 0.152532,-0.1029691 0.242526,-0.1635479 0.248961,-0.1679637 0.05528,-0.036398 0.145512,-0.0035 0.201889,0.07312 0.05617,0.076831 0.05714,0.1686696 0.0016,0.2050519 -0.0072,0.00451 -0.10324,0.062526 -0.265591,0.1610797 -0.164586,0.095725 -0.398977,0.2299544 -0.696571,0.367188 C 36.747579,2.5237098 36.383769,2.6630663 35.969507,2.744312 35.552936,2.826259 35.089243,2.836151 34.639793,2.739012 34.193684,2.64628 33.752729,2.4255075 33.463264,2.1208409 33.149798,1.7905659 33.011905,1.4194879 32.975188,1.0832051 32.936358,0.7478085 33.017128,0.45868211 33.107461,0.27464253 33.156471,0.18333371 33.197831,0.11303716 33.233812,0.0690599 33.267432,0.02400124 33.285402,0 33.285402,0 m 0.374125,0.27800691 c 0,0 -0.01212,0.016071 -0.03481,0.0462602 -0.02537,0.028437 -0.05239,0.0766548 -0.08742,0.13811981 -0.06163,0.12504278 -0.124819,0.32762651 -0.09836,0.58178238 0.01212,0.125929 0.04392,0.2633377 0.103084,0.4000408 0.0566,0.133699 0.150816,0.2787028 0.250286,0.386438 0.235731,0.25345 0.574193,0.4249482 0.951586,0.5109602 0.376064,0.085486 0.780356,0.083013 1.14415,0.014669 0.367719,-0.067999 0.701451,-0.1903929 0.97996,-0.3154407 0.27883,-0.1248675 0.504877,-0.2500906 0.664337,-0.3406986 0.158377,-0.092726 0.252002,-0.1476522 0.259247,-0.1517125 0.05749,-0.033043 0.14771,0.0035 0.201438,0.082127 0.05373,0.078417 0.05068,0.1686695 -0.007,0.2015223 -0.0072,0.00401 -0.106714,0.055988 -0.275419,0.1442979 -0.169885,0.08548 -0.411827,0.2045212 -0.713184,0.3217989 -0.300473,0.1172726 -0.663678,0.2310157 -1.06324,0.2843552 -0.398978,0.0544 -0.833499,0.035346 -1.233951,-0.077536 C 34.299491,2.3931907 33.941017,2.1835429 33.709275,1.9034281 33.487936,1.6354993 33.387517,1.3098104 33.382788,1.0485903 c -0.0104,-0.2654555 0.06901,-0.46945107 0.140542,-0.59237609 0.0399,-0.0604036 0.07058,-0.1068541 0.09799,-0.13422975 0.02498,-0.0287874 0.03823,-0.0439572 0.03823,-0.0439572 m 2.470458,3.98290964 c 0,0 -0.0093,-0.026685 -0.02161,-0.077535 -0.01191,-0.050866 -0.02269,-0.127521 -0.01566,-0.2244821 0.01115,-0.1882752 0.113278,-0.4805807 0.406731,-0.6686806 0.282065,-0.1829782 0.751983,-0.2366681 1.115772,-0.013267 0.02365,0.013618 0.04971,0.025984 0.07183,0.040603 l 0.0566,0.049965 c 0.03712,0.033744 0.07908,0.06164 0.107455,0.1068541 0.02912,0.042756 0.06828,0.079123 0.09001,0.1268099 l 0.06909,0.1407684 c 0.07493,0.1974571 0.09436,0.4154057 0.08815,0.6312316 -0.01893,0.4332492 -0.14682,0.8666734 -0.327656,1.2356287 -0.04451,0.092195 -0.09421,0.1812108 -0.149056,0.2596279 -0.02762,0.041854 -0.05165,0.076474 -0.08549,0.1140935 -0.02729,0.029138 -0.05891,0.061465 -0.09334,0.089371 C 37.307227,6.185668 37.145462,6.257907 36.99147,6.2919913 36.674808,6.3665227 36.431543,6.2648049 36.298889,6.1589976 36.165727,6.0532049 36.141118,5.9627723 36.134554,5.9595931 c -0.0222,-0.044658 -0.110124,-0.06888 -0.209289,-0.051393 -0.09688,0.016972 -0.159835,0.1079104 -0.117653,0.1942778 0.0077,0.00546 0.06807,0.1603688 0.277489,0.3097883 0.10354,0.073301 0.242391,0.1423553 0.414357,0.1787427 0.182369,0.037449 0.370375,0.028437 0.570714,-0.024381 0.197158,-0.053164 0.396531,-0.1534798 0.563387,-0.3067843 0.04182,-0.0378 0.08002,-0.079304 0.119713,-0.1275211 0.03276,-0.040101 0.06586,-0.090959 0.09289,-0.1370584 0.05904,-0.094664 0.10768,-0.1930413 0.150982,-0.294949 0.08852,-0.2027589 0.158136,-0.4175286 0.205883,-0.6405988 0.04778,-0.2225398 0.0815,-0.452319 0.07581,-0.6847515 -0.0048,-0.2313712 -0.03722,-0.466272 -0.131822,-0.6829841 -0.02692,-0.052634 -0.05736,-0.1038503 -0.08574,-0.1550719 -0.0274,-0.051747 -0.07374,-0.093431 -0.109515,-0.1397069 -0.03384,-0.047662 -0.08704,-0.083007 -0.134336,-0.1206271 l -0.0719,-0.054931 c -0.02477,-0.014669 -0.05009,-0.025233 -0.07486,-0.0378 -0.200928,-0.1149796 -0.439689,-0.1481829 -0.650228,-0.1307001 -0.213204,0.018374 -0.406142,0.090252 -0.554669,0.1946334 -0.299449,0.2133577 -0.386493,0.5190857 -0.388574,0.71054 -0.0021,0.098553 0.01287,0.1752081 0.02719,0.2258941 0.01502,0.050516 0.02558,0.076655 0.02558,0.076655 m 1.965993,-2.0386436 c 0,0 0.07546,0.094668 0.18061,0.2739365 0.103535,0.1794437 0.233898,0.4484388 0.307263,0.7900186 0.07717,0.3399875 0.0861,0.7495708 -0.007,1.1729219 -0.08742,0.4252986 -0.259006,0.8629633 -0.425426,1.3092795 -0.16634,0.4466664 -0.320127,0.9113513 -0.36757,1.3776232 -0.02156,0.2342 -0.02177,0.4599189 0.01662,0.6859882 0.01458,0.09237 0.04488,0.2197159 0.07908,0.3152653 0.03325,0.101377 0.07567,0.1964007 0.120678,0.2861225 0.181629,0.3599485 0.452915,0.6089829 0.674612,0.7483342 0.225157,0.138996 0.389744,0.1750277 0.399203,0.1808553 0.09739,0.024731 0.196559,-0.073471 0.218877,-0.2107041 0.02247,-0.1386456 -0.0074,-0.259633 -0.06585,-0.2741118 -0.0066,-0.005 -0.112903,-0.019275 -0.27586,-0.1050869 -0.159111,-0.087253 -0.378374,-0.2557479 -0.54538,-0.5353369 -0.04087,-0.06941 -0.08098,-0.1437672 -0.113502,-0.224302 -0.03577,-0.08478 -0.05808,-0.1501255 -0.08416,-0.2576855 -0.04301,-0.1743269 -0.05963,-0.3800847 -0.0549,-0.5877901 0.01191,-0.4203523 0.123703,-0.8733821 0.256715,-1.3244643 0.132804,-0.4521436 0.277185,-0.911882 0.336017,-1.358904 0.06525,-0.4466715 0.0244,-0.8733819 -0.08005,-1.2165537 C 38.56552,2.9223443 38.413722,2.6590014 38.29668,2.4852103 38.177627,2.3114191 38.09596,2.2222229 38.09596,2.2222229 m 1.298318,3.4147504 c 0,0 -0.01646,0.012166 -0.04752,0.034946 -0.02949,0.025633 -0.07922,0.05387 -0.143962,0.090783 -0.131688,0.066056 -0.34975,0.1379396 -0.632403,0.1271656 -0.277936,-0.00546 -0.623927,-0.1019136 -0.90576,-0.3067902 -0.295894,-0.215826 -0.515891,-0.5473426 -0.631916,-0.9180652 -0.117273,-0.3703672 -0.134486,-0.772 -0.07485,-1.1397188 0.05897,-0.3686049 0.182159,-0.703651 0.308683,-0.9812924 0.126577,-0.2783523 0.255234,-0.5019534 0.347384,-0.6593234 0.09533,-0.1559529 0.151701,-0.248148 0.155846,-0.2548568 0.03577,-0.053519 0.132653,-0.055988 0.216459,-0.00546 0.08357,0.050511 0.122587,0.1347604 0.08682,0.1882751 -0.0048,0.00652 -0.06378,0.093076 -0.163831,0.2394967 -0.09762,0.1474771 -0.232916,0.3562388 -0.367419,0.6135738 -0.134846,0.2569796 -0.267065,0.5644749 -0.34162,0.9034011 -0.07458,0.3346956 -0.08018,0.7078915 0.0077,1.055474 0.08816,0.3488241 0.267521,0.6616163 0.534805,0.8809769 0.112543,0.09202 0.266174,0.1803298 0.407681,0.2334889 0.144703,0.056343 0.290939,0.086192 0.424917,0.098378 0.270105,0.025784 0.486773,-0.03089 0.6209,-0.087779 0.06561,-0.032342 0.117424,-0.057399 0.148086,-0.080715 0.0325,-0.020827 0.04993,-0.031992 0.04993,-0.031992 m 0.290021,0.353977 c 0,0 -0.02585,0.016421 -0.07433,0.047512 -0.04708,0.033194 -0.123119,0.071179 -0.221322,0.1155105 -0.19769,0.082127 -0.507011,0.1548965 -0.864392,0.11533 C 38.166322,6.2316725 37.771865,6.1002464 37.42476,5.8068845 37.104123,5.5359517 36.874821,5.1261983 36.780006,4.7132607 c -0.09873,-0.4162919 -0.0844,-0.8451202 0.0064,-1.2287345 0.08986,-0.3822076 0.240676,-0.7176042 0.388988,-0.9913606 0.148467,-0.274292 0.29302,-0.4910042 0.396694,-0.6428969 0.106333,-0.1501255 0.169139,-0.2387859 0.173869,-0.2454997 0.03952,-0.051216 0.137892,-0.049965 0.219997,0.003 0.0821,0.052809 0.116684,0.1370533 0.07715,0.188275 -0.0048,0.00601 -0.07013,0.089191 -0.181195,0.2299594 -0.108629,0.142175 -0.259739,0.3435222 -0.415457,0.5969721 -0.15569,0.2529143 -0.315166,0.5602344 -0.419366,0.912588 -0.104258,0.3504113 -0.140997,0.7497461 -0.07057,1.1425474 0.06754,0.3905035 0.257091,0.7801256 0.549355,1.0537067 0.304747,0.2843553 0.681271,0.4351866 1.025177,0.4853468 0.344435,0.054226 0.651718,-0.0035 0.851451,-0.076299 0.09896,-0.039751 0.176695,-0.074532 0.225103,-0.1054373 0.04993,-0.028988 0.07662,-0.044307 0.07662,-0.044307 M 3.2657824,4.2512242 c 0,0 0.010618,-0.026134 0.025526,-0.076655 0.014372,-0.05069 0.029333,-0.1273408 0.027241,-0.2258941 C 3.3164046,3.7572161 3.2294458,3.4514931 2.9299752,3.2383107 2.7814707,3.1337545 2.5885107,3.061871 2.3753072,3.0435021 2.1647474,3.0260294 1.9260075,3.0592226 1.7251003,3.1742022 c -0.024775,0.012717 -0.050139,0.02313 -0.074727,0.037799 l -0.072078,0.054926 c -0.047297,0.03765 -0.1004505,0.072946 -0.1343153,0.1206328 -0.035768,0.046259 -0.081913,0.087959 -0.1095351,0.1397068 -0.028368,0.051216 -0.058832,0.1024384 -0.085698,0.1550718 -0.094585,0.2167119 -0.1269375,0.4516127 -0.1316672,0.6829839 -0.00585,0.2324326 0.027832,0.4622117 0.075671,0.6847514 0.047674,0.2228902 0.1172894,0.43784 0.2058248,0.6405939 0.04333,0.1019128 0.091941,0.2002858 0.150966,0.294954 0.027027,0.04611 0.060349,0.096966 0.093077,0.1370584 0.039521,0.048213 0.077752,0.089721 0.1197506,0.127516 0.1666621,0.1533096 0.3660571,0.2536252 0.5631838,0.3067894 0.2003389,0.052809 0.3883814,0.061816 0.5707503,0.024382 C 3.0682648,6.5449702 3.2071221,6.4759254 3.3106028,6.40263 3.5200204,6.2532105 3.5803703,6.0983188 3.5881247,6.0928416 3.6303276,6.0064742 3.5673181,5.9155159 3.47046,5.8985588 c -0.099132,-0.017472 -0.1870988,0.00671 -0.2092353,0.051397 -0.00644,0.003 -0.03121,0.093607 -0.1643938,0.1994046 C 2.964215,6.255153 2.7209331,6.3568854 2.4042488,6.2823533 2.2502583,6.2482591 2.0885136,6.17603 1.9528683,6.062287 1.9184409,6.0344006 1.8868503,6.0020585 1.8596086,5.9729156 1.8257175,5.9353166 1.80172,5.9006816 1.7740977,5.8588221 1.7194267,5.780405 1.6694801,5.6913891 1.6250247,5.5991941 1.4441733,5.2302338 1.3162876,4.7968095 1.2975563,4.3635655 1.2911213,4.1477395 1.3105873,3.9297908 1.3855233,3.7323288 l 0.069054,-0.1407633 c 0.021933,-0.047663 0.061106,-0.084069 0.090235,-0.126815 0.028207,-0.045008 0.070185,-0.07312 0.1074544,-0.1068492 l 0.056377,-0.049965 c 0.022147,-0.014669 0.048263,-0.027035 0.071885,-0.040453 0.3637887,-0.2235962 0.8337074,-0.1699062 1.1157765,0.013067 0.293411,0.1880999 0.3955671,0.4804003 0.4067319,0.6688557 0.00698,0.096786 -0.00375,0.1734358 -0.015712,0.224302 -0.01228,0.050866 -0.021557,0.077535 -0.021557,0.077535 M 1.2998407,2.2125103 c 0,0 -0.081725,0.089191 -0.2007141,0.2629873 C 0.98221267,2.6494641 0.83049056,2.9128069 0.72985193,3.2579162 0.62542199,3.6010879 0.5845595,4.0277985 0.64982687,4.4744699 0.70885226,4.9214918 0.85300247,5.3812303 0.98580556,5.833374 1.1188017,6.2844561 1.2307928,6.7374859 1.2427137,7.1578381 1.2475397,7.3655385 1.2305944,7.5713014 1.187662,7.7456233 1.161761,7.8531834 1.1392383,7.9185334 1.1036686,8.0033138 1.0709572,8.0838488 1.0308293,8.1582054 0.98996685,8.2276157 0.82292399,8.5072047 0.60366617,8.6756991 0.44457059,8.7629477 0.28168369,8.8487847 0.1755592,8.8632683 0.16874878,8.8680394 c -0.058457,0.014469 -0.0883477,0.1354615 -0.0656481,0.2741119 0.0221473,0.137409 0.12145598,0.2354312 0.2186894,0.2107045 0.009438,-0.00579 0.17404632,-0.041855 0.39916539,-0.1808607 C 0.94267471,9.0326438 1.2139545,8.7836146 1.395755,8.423666 1.4405858,8.3339442 1.4829659,8.2389205 1.5162618,8.1375435 1.5505284,8.0419891 1.580773,7.9146484 1.5953377,7.8222781 1.6337334,7.5962038 1.6335725,7.370485 1.6119615,7.1362901 1.5645031,6.6700181 1.4106736,6.2053331 1.2443868,5.7586617 1.0781001,5.3123456 0.90632748,4.8746858 0.81892358,4.4493872 0.72585148,4.0260311 0.73493024,3.6164529 0.81211316,3.2764604 0.88551549,2.9348806 1.0156695,2.6658904 1.1191503,2.4864468 1.2245241,2.3071784 1.299814,2.2125103 1.299814,2.2125103 M 0.00454273,5.6292031 c 0,0 0.0173746,0.011315 0.0495498,0.032492 0.0306737,0.02348 0.0822934,0.048914 0.1481292,0.081421 0.13393459,0.057756 0.35092406,0.1167469 0.62296529,0.091839 C 0.96025846,5.8238416 1.1074385,5.7941528 1.2538624,5.7388759 1.3970688,5.685892 1.5523838,5.5981127 1.6675924,5.5050315 1.9390653,5.284965 2.1229464,4.9691739 2.214887,4.6168203 2.3066399,4.2655229 2.3039908,3.8882668 2.2307601,3.5486297 2.1579208,3.2052826 2.0268231,2.8935469 1.8928832,2.6337436 1.7591362,2.3734048 1.6250086,2.1623449 1.5279575,2.0132809 1.4284504,1.8654484 1.3698057,1.7781998 1.365269,1.7714911 1.3300904,1.7176211 1.36956,1.6333713 1.4534239,1.583211 c 0.083806,-0.050155 0.180476,-0.047161 0.2158526,0.00656 0.00429,0.00671 0.059969,0.09961 0.1545589,0.2571548 C 1.9153944,2.005706 2.0429053,2.2314249 2.1685172,2.5127762 2.2939415,2.7932463 2.4157728,3.1323577 2.473093,3.5053734 2.531362,3.8778633 2.510952,4.2837367 2.390043,4.6576384 2.2702927,5.0317153 2.0457421,5.3662308 1.7457031,5.5827676 1.4585342,5.7892314 1.1098784,5.8831938 0.83008301,5.8874343 0.5457455,5.8973443 0.32724915,5.8229653 0.19557755,5.7562035 0.13087865,5.7191055 0.08112504,5.6905035 0.05180273,5.6647145 0.02096813,5.6415845 0.00450523,5.6292185 0.00450523,5.6292185 M 4.270887,3.3227355 c 0,0 -0.028582,0.00846 -0.083238,0.020126 C 4.133354,3.3538257 4.0510601,3.3638891 3.9473915,3.3575303 3.7457289,3.346917 3.4326375,3.251733 3.2309741,2.9776213 3.0351774,2.7142835 2.9776643,2.2755623 3.216978,1.9361004 c 0.014586,-0.022228 0.027778,-0.04646 0.04349,-0.067293 l 0.053358,-0.052629 c 0.036304,-0.034794 0.066211,-0.074006 0.1146401,-0.10032 0.045796,-0.027185 0.084755,-0.063758 0.135833,-0.084069 L 3.715072,1.5671454 c 0.2115036,-0.069766 0.4449453,-0.088129 0.6761241,-0.082127 0.464052,0.017673 0.928297,0.1368782 1.3234889,0.305728 0.098751,0.041504 0.1940968,0.088129 0.2780901,0.1391762 0.04483,0.025784 0.081725,0.048213 0.1222121,0.079829 0.03121,0.025633 0.065835,0.055107 0.095721,0.087249 C 6.3323519,2.2236405 6.4099155,2.3744719 6.446429,2.5182391 6.526261,2.813899 6.417311,3.0410296 6.3039787,3.1648408 6.1904699,3.2891776 6.0937996,3.3123177 6.0903944,3.3183206 c -0.047887,0.020677 -0.073971,0.102969 -0.055052,0.1953443 0.018179,0.090428 0.1155895,0.1492392 0.2080985,0.109853 0.00585,-0.00726 0.1717726,-0.063583 0.3316243,-0.2589221 0.0787,-0.096612 0.152671,-0.2264257 0.1916404,-0.3867944 C 6.8068174,2.8075399 6.7971649,2.6319813 6.7405902,2.4449428 6.6836454,2.260728 6.576191,2.0747459 6.411985,1.9189681 6.3714978,1.8797671 6.3268548,1.8440856 6.2753959,1.8071726 6.232442,1.7766328 6.1779748,1.7457075 6.1284089,1.7204497 6.0271964,1.6651677 5.9218228,1.6197786 5.8126684,1.5793309 5.5954912,1.4966733 5.3652617,1.4316787 5.1265218,1.3871707 4.8881573,1.3425127 4.6420331,1.3110466 4.3930777,1.3165239 4.1452535,1.3210339 3.8936436,1.3511189 3.6615264,1.4394489 3.6051494,1.4645309 3.5502861,1.4929639 3.4954273,1.5196329 3.4398073,1.5452669 3.395352,1.5883369 3.345786,1.6218961 3.294681,1.6533371 3.25687,1.7029671 3.2165758,1.7471191 l -0.05902,0.067293 c -0.015498,0.02298 -0.026866,0.046611 -0.040326,0.069766 -0.1233437,0.1875696 -0.1587203,0.4104599 -0.139989,0.6072159 0.019681,0.1990492 0.09667,0.3790234 0.2084738,0.5176689 0.2283366,0.279589 0.5559926,0.3608298 0.7608735,0.3629525 0.1057491,0.00201 0.1878548,-0.012015 0.2421505,-0.025633 0.054103,-0.013969 0.082101,-0.023681 0.082101,-0.023681 M 2.0872051,1.4871359 c 0,0 0.1013952,-0.070291 0.2934163,-0.1686696 0.1922039,-0.096611 0.480322,-0.2181239 0.8460037,-0.2866531 0.3643572,-0.0720589 0.8030606,-0.0805342 1.2565216,0.00636 0.4555417,0.0816 0.9243235,0.2419699 1.402377,0.3972171 0.478429,0.1552471 0.9759701,0.2988389 1.4753987,0.3431716 0.2508539,0.020126 0.4928113,0.020327 0.7349564,-0.01557 0.098751,-0.013418 0.2351524,-0.041854 0.337684,-0.073826 C 8.542154,1.6582737 8.6439295,1.6186921 8.7400315,1.5766575 9.125576,1.4069265 9.3923191,1.1536568 9.5415798,0.94683257 9.690272,0.73648376 9.7288662,0.58282372 9.7353012,0.57416746 9.7617921,0.48320905 9.6566007,0.39048333 9.5094206,0.36982143 c -0.1485045,-0.0210273 -0.2780901,0.006709 -0.2934162,0.061465 -0.00536,0.006158 -0.020592,0.10526203 -0.1127473,0.25733 C 9.0097994,0.83733002 8.829516,1.0420315 8.5300454,1.1978093 8.455506,1.2361092 8.3758619,1.2734027 8.289788,1.3039575 8.1989842,1.3373511 8.128987,1.3581833 8.0137784,1.3823742 7.8270604,1.4224759 7.6066658,1.4381864 7.3841905,1.433771 6.933947,1.422657 6.4487075,1.3180859 5.9655434,1.1939242 5.4812479,1.0699378 4.9888174,0.93535766 4.5100076,0.88025092 4.0315786,0.8193166 3.5745193,0.85747126 3.20695,0.95495825 2.837107,1.0489205 2.5550431,1.1905699 2.3688882,1.299717 2.1827386,1.4108115 2.0872051,1.4871109 2.0872051,1.4871109 M 5.7445857,0.275003 c 0,0 0.013031,0.0155202 0.037644,0.0445079 0.027241,0.0273857 0.057701,0.0740013 0.097239,0.13422975 C 5.9502222,0.57684594 6.0270303,0.78048603 6.0154901,1.0441793 6.0096449,1.303632 5.9063304,1.6266676 5.6870726,1.8898302 5.4558992,2.1662349 5.1008138,2.3716424 4.703729,2.479733 4.3070197,2.5892406 3.8768267,2.6053116 3.4829595,2.5498544 3.0881431,2.4945725 2.7290841,2.3795927 2.4318873,2.2616091 2.1337412,2.1434554 1.8942398,2.023354 1.7256848,1.9371618 1.5586365,1.8481459 1.4598855,1.7955124 1.4526998,1.7918025 c -0.05732,-0.033544 -0.059969,-0.1239864 -0.00584,-0.202048 0.054108,-0.078242 0.1443432,-0.1146292 0.2016687,-0.08107 0.00698,0.00401 0.099507,0.059348 0.2565221,0.1529541 0.1579641,0.090958 0.3815709,0.2172378 0.657205,0.3429916 0.2750654,0.1257535 0.6046145,0.2493845 0.9676472,0.318975 0.3584905,0.069586 0.7582243,0.074887 1.1305288,-0.00741 0.373629,-0.082302 0.7086585,-0.2497401 0.9436179,-0.4993 C 5.7026079,1.7119836 5.7971975,1.5683917 5.8541423,1.4362797 5.9144868,1.3011689 5.9464582,1.1646412 5.9593229,1.0395933 5.9871544,0.78738502 5.9263969,0.58515676 5.8653017,0.45993374 5.8308742,0.39864395 5.8040079,0.35043119 5.7788469,0.32163871 5.7565388,0.29124914 5.7445803,0.27502804 5.7445803,0.27502804 M 6.1237006,0.00424553 c 0,0 0.017804,0.02418147 0.051051,0.06941035 0.035392,0.04415749 0.076233,0.11515492 0.123719,0.20664402 0.087967,0.18457028 0.1659117,0.47351643 0.1233439,0.8069705 C 6.3817027,1.4216106 6.240963,1.7896847 5.9267348,2.1137817 5.6365361,2.4131515 5.1974574,2.62721 4.7553434,2.7157003 4.3092612,2.8078954 3.8501267,2.7944678 3.4392334,2.7096925 3.0298524,2.6257983 2.6706003,2.485035 2.3773771,2.3465647 2.0833924,2.2079193 1.8514575,2.0729835 1.6887691,1.9761976 1.5279629,1.8771136 1.4329978,1.8184724 1.4256189,1.8138813 1.3709475,1.7771336 1.3722613,1.6851287 1.4288321,1.608474 c 0.056371,-0.076475 0.1467993,-0.1087967 0.2016634,-0.072059 0.00644,0.00451 0.095533,0.0657 0.2463063,0.1693754 0.1522906,0.1012017 0.3679555,0.2423204 0.639423,0.3876796 0.2709043,0.1455345 0.6000726,0.2944234 0.9772945,0.3915648 0.3753289,0.097492 0.8032536,0.1315813 1.2239871,0.065877 C 5.1357829,2.4878587 5.5531112,2.3110634 5.8461467,2.0380131 6.1505347,1.7536579 6.3120917,1.4021854 6.3658189,1.0810924 6.4240828,0.75946868 6.3626013,0.47246506 6.2842816,0.28612748 6.2417031,0.193582 6.2044495,0.1209925 6.1713414,0.07577865 6.1402923,0.02916797 6.1236685,0.00424553 6.1236685,0.00424553"
     inkscape:label="frame" />
</svg>
