<?xml version="1.0" encoding="UTF-8" standalone="no"?>
<!-- Created with Inkscape (http://www.inkscape.org/) -->

<svg
   version="1.1"
   id="svg2"
   width="428.15985"
   height="72.959999"
   viewBox="0 0 428.15986 72.960001"
   sodipodi:docname="menu.svg"
   inkscape:version="1.3.2 (091e20ef0f, 2023-11-25, custom)"
   xml:space="preserve"
   inkscape:export-filename="new_game.png"
   inkscape:export-xdpi="100"
   inkscape:export-ydpi="100"
   xmlns:inkscape="http://www.inkscape.org/namespaces/inkscape"
   xmlns:sodipodi="http://sodipodi.sourceforge.net/DTD/sodipodi-0.dtd"
   xmlns="http://www.w3.org/2000/svg"
   xmlns:svg="http://www.w3.org/2000/svg"><defs
     id="defs6" /><sodipodi:namedview
     id="namedview4"
     pagecolor="#ffffff"
     bordercolor="#111111"
     borderopacity="1"
     inkscape:showpageshadow="0"
     inkscape:pageopacity="0"
     inkscape:pagecheckerboard="1"
     inkscape:deskcolor="#d1d1d1"
     showgrid="false"
     inkscape:zoom="1.9409091"
     inkscape:cx="178.7822"
     inkscape:cy="91.709601"
     inkscape:window-width="1920"
     inkscape:window-height="1008"
     inkscape:window-x="0"
     inkscape:window-y="0"
     inkscape:window-maximized="1"
     inkscape:current-layer="svg2"><inkscape:grid
       type="xygrid"
       id="grid3115"
       originx="-71.056999"
       originy="-72.61235"
       spacingy="1"
       spacingx="1"
       units="px"
       visible="false" /></sodipodi:namedview><path
     style="font-weight:500;font-size:80px;line-height:1.25;font-family:'ITC Benguiat Book';-inkscape-font-specification:'ITC Benguiat Book, Medium';display:none;fill:#ffffff;fill-opacity:1"
     d="m 147.19986,64.16 h 34.32 c 1.6,0 3.12,0 4.64,0.88 l 6.64,-20.8 h -1.04 c -5.2,10.8 -12.88,16.24 -22.24,16.24 -7.76,0 -8.24,-2.48 -8.24,-8.16 V 29.76 h 4.56 c 7.2,0 10,2.16 12.56,9.36 h 1.12 l -2.96,-18.56 h -1.12 c -0.72,4.32 -2.8,5.04 -8.4,5.04 h -5.76 v -4.72 c 0,-4.960001 0.96,-6.160001 6.32,-6.160001 9.04,0 16.32,4.640001 19.52,11.920001 h 1.12 l -4.16,-17.4400007 c -0.96,1.1199997 -2.56,1.5999997 -4.88,1.5999997 h -32 v 1.12 c 4.64,0.32 4.96,3.28 4.96,9.280001 v 32.56 c 0,6 -0.32,8.96 -4.96,9.28 z m 56.24007,-0.72 c -1.6,-0.16 -2.24,-0.88 -2.24,-2.24 0,-1.2 0.96,-2.48 2.32,-4.32 l 7.44,-10.32 5.68,8.64 c 1.84,2.88 3.04,4.72 3.04,6.08 0,1.04 -0.48,1.52 -1.76,2.16 v 0.72 h 16.24 v -0.72 c -2.96,-1.12 -4.96,-4.24 -7.84,-8.56 l -10,-15.2 6.32,-8.24 c 2.4,-3.04 4.64,-5.36 8.48,-6.56 v -0.72 h -13.12 v 0.72 c 1.52,0.24 2.16,0.72 2.16,2.08 0,1.44 -1.04,2.64 -2.32,4.32 l -3.76,5.04 -3.2,-4.88 c -1.12,-1.76 -1.92,-2.96 -1.92,-4 0,-1.52 0.64,-2.32 2.08,-2.56 v -0.72 h -16.72 v 0.72 c 3.2,0.8 4.88,3.28 7.12,6.8 l 7.2,11.2 -8.88,11.84 c -3.84,5.12 -6.16,8.24 -8.96,8.72 v 0.72 h 12.64 z M 235.2,64.16 h 16.96 v -0.72 c -3.84,-0.48 -4.56,-2.88 -4.56,-8.32 V 24.16 l -12.4,2.48 v 0.8 c 3.04,0 4.08,1.84 4.08,6.24 v 23.44 c 0,4.4 -1.04,6.32 -4.08,6.32 z m 7.84,-56.4800007 c -2.8,0 -5.2,2.3999997 -5.2,5.5999997 0,3.12 2.32,5.520001 5.2,5.520001 2.88,0 5.2,-2.400001 5.2,-5.520001 0,-3.04 -2.4,-5.5999997 -5.2,-5.5999997 z M 280.15999,56.16 c -1.92,2.56 -4.08,3.84 -6.4,3.84 -4,0 -4.48,-3.04 -4.48,-8.96 V 28.96 h 3.12 c 1.28,0 2.64,0 4.08,0.64 l 2.08,-5.6 c -1.52,0.96 -2.64,1.12 -3.52,1.12 -0.48,0 -0.8,0 -1.2,0 h -4.56 V 10.079999 l -7.2,3.84 c 0.24,1.68 0.4,2.96 0.4,4.080001 0,4.96 -2.72,8.8 -7.44,10.24 v 0.72 h 5.92 v 23.68 c 0,8.56 2.48,12.64 9.12,12.64 2.16,0 4.8,-0.64 8.08,-1.76 l 2.8,-7.2 z"
     id="text1-7-1-4-8-2"
     inkscape:label="exit"
     aria-label="Exit" /><path
     style="font-weight:500;font-size:80px;line-height:1.25;font-family:'ITC Benguiat Book';-inkscape-font-specification:'ITC Benguiat Book, Medium';display:none;fill:#ffffff;fill-opacity:1"
     d="m 133.63997,47.8 c -4,8.72 -9.36,12.88 -16.8,12.88 -13.44,0 -23.519999,-12 -23.519999,-26.72 0,-12 7.199999,-19.840001 17.759999,-19.840001 7.52,0 13.36,3.680001 16.72,10.880001 h 1.12 l -3.6,-15.8400007 c -1.6,1.0399997 -2.88,1.3599997 -4.48,1.3599997 -3.04,0 -6.88,-0.8799997 -11.68,-0.8799997 -15.759999,0 -24.959999,9.2000007 -24.959999,25.1200007 0,18.48 11.28,30.56 30.479999,30.56 3.28,0 6.56,-0.56 10.08,-0.56 0.72,0 1.92,0 3.6,0.16 l 6.56,-17.12 z m 7.91999,-14.16 v 23.44 c 0,4.4 -1.04,6.32 -4.08,6.32 v 0.72 h 16.96 V 63.4 c -3.84,-0.48 -4.56,-2.88 -4.56,-8.32 v -9.84 c 0,-10.32 2.88,-15.28 9.04,-15.28 1.76,0 3.36,0.48 5.2,1.36 l 1.76,-8 c -1.36,-0.16 -2.48,-0.32 -3.52,-0.32 -4.64,0 -9.2,2.8 -12.56,8.16 -0.08,-2.4 -0.64,-4.72 -2,-7.04 l -10.72,1.12 v 0.88 c 0.16,0 0.24,0 0.32,0 2.72,0 4.16,2.64 4.16,7.52 z m 66.63999,16.72 c -3.04,6.8 -7.6,10 -14.24,10 -8.72,0 -14.56,-5.2 -16.24,-14.88 l 30.48,-8.64 c -2.96,-9.12 -9.44,-13.84 -18.96,-13.84 -12.4,0 -21.36,9.04 -21.36,20.4 0,12.48 10,21.92 24.48,21.92 3.68,0 7.12,-0.8 10.56,-0.8 0.64,0 1.28,0 1.92,0.08 l 4.08,-14 z m -9.6,-14.8 -21.28,6 c 0,-0.32 0,-0.56 0,-0.8 0,-8.48 4.72,-13.6 11.04,-13.6 4.88,0 8.16,2.8 10.24,8.4 z M 252.43991,56.6 V 7.6399993 l -12.4,2.4799997 v 0.8 c 3.84,0.32 4.08,2.32 4.08,6.800001 v 6.4 h -5.2 c -7.52,0 -13.44,0.32 -18.4,3.92 -5.04,3.68 -7.84,9.44 -7.84,16.32 0,7.36 3.12,13.28 8.64,16.72 4.08,2.48 9.12,3.04 15.68,3.04 h 19.52 V 63.4 c -3.84,-0.32 -4.08,-2.32 -4.08,-6.8 z m -8.32,3.2 c -1.84,0.08 -3.52,0.16 -4.96,0.16 -11.2,0 -17.44,-5.76 -17.44,-15.92 0,-10.4 5.44,-16.24 15.2,-16.24 6.4,0 7.2,2.72 7.2,8.24 z m 17.27994,4.32 h 16.96 V 63.4 c -3.84,-0.48 -4.56,-2.88 -4.56,-8.32 V 24.12 l -12.4,2.48 v 0.8 c 3.04,0 4.08,1.84 4.08,6.24 v 23.44 c 0,4.4 -1.04,6.32 -4.08,6.32 z m 7.84,-56.4800007 c -2.8,0 -5.2,2.3999997 -5.2,5.5999997 0,3.12 2.32,5.520001 5.2,5.520001 2.88,0 5.2,-2.400001 5.2,-5.520001 0,-3.04 -2.4,-5.5999997 -5.2,-5.5999997 z M 306.35985,56.12 c -1.92,2.56 -4.08,3.84 -6.4,3.84 -4,0 -4.48,-3.04 -4.48,-8.96 V 28.92 h 3.12 c 1.28,0 2.64,0 4.08,0.64 l 2.08,-5.6 c -1.52,0.96 -2.64,1.12 -3.52,1.12 -0.48,0 -0.8,0 -1.2,0 h -4.56 V 10.039999 l -7.2,3.84 c 0.24,1.68 0.4,2.96 0.4,4.080001 0,4.96 -2.72,8.8 -7.44,10.24 v 0.72 h 5.92 V 52.6 c 0,8.56 2.48,12.64 9.12,12.64 2.16,0 4.8,-0.64 8.08,-1.76 l 2.8,-7.2 z m 2.96003,7.76 c 1.76,-0.64 2.96,-0.96 3.52,-0.96 2,0 5.92,2.32 12.24,2.32 11.92,0 18.88,-5.76 18.88,-13.84 0,-6.8 -4.4,-9.76 -13.52,-12.24 -7.36,-2 -12.24,-2.72 -12.24,-7.12 0,-3.04 2.48,-4.88 7.12,-4.88 7.68,0 12.8,3.52 14.32,9.68 l 0.8,-0.08 -0.8,-12.88 c -1.44,0.4 -2.4,0.64 -3.04,0.64 -2,0 -5.76,-1.6 -11.28,-1.6 -9.68,0 -15.12,4.8 -15.12,11.44 0,5.76 3.92,8.96 11.92,11.2 8.24,2.32 13.28,2.88 13.28,8.56 0,3.76 -3.76,6.72 -10,6.72 -8.32,0 -14.48,-5.04 -15.84,-13.44 l -0.8,0.08 z"
     id="text1-7-1-4-8"
     inkscape:label="credits"
     aria-label="Credits" /><path
     style="font-weight:500;font-size:80px;line-height:1.25;font-family:'ITC Benguiat Book';-inkscape-font-specification:'ITC Benguiat Book, Medium';display:none;fill:#ffffff;fill-opacity:1"
     d="m 69.519966,29.84 c 0,16 12.48,27.76 28.16,27.76 15.680004,0 28.160004,-11.76 28.160004,-27.76 0,-16 -12.48,-27.8400007 -28.160004,-27.8400007 -15.68,0 -28.16,11.8400007 -28.16,27.8400007 z m 9.6,-2.96 c 0,-12.32 7.36,-20.4800007 16.72,-20.4800007 11.120004,0 20.560004,12.0000007 20.560004,26.5600007 0,11.92 -7.44,20.08 -16.720004,20.08 -5.6,0 -10.48,-2.64 -14.48,-7.92 -3.84,-4.96 -6.08,-11.68 -6.08,-18.24 z M 134.95989,24 v 41.92 c 0,4.4 -1.04,6.32 -4.08,6.32 v 0.72 h 16.96 v -0.72 c -3.84,-0.48 -4.56,-2.88 -4.56,-8.32 v -7.44 h 5.28 c 17.68,0 26.24001,-5.12 26.24001,-19.6 0,-7.2 -3.04,-13.12 -8.64001,-16.88 -4.48,-2.96 -9.44,-3.52 -15.68,-3.52 h -20.16 v 0.96 c 3.52,0.72 4.64,2 4.64,6.56 z m 8.32,-3.6 c 1.68,-0.08 3.04,-0.16 4.16,-0.16 11.68,0 18.08,5.84 18.08,16.48 0,9.92 -5.44,15.84 -15.04,15.84 -6.24,0 -7.2,-2.88 -7.2,-9.04 z m 59.76008,28.08 c -1.92,2.56 -4.08,3.84 -6.4,3.84 -4,0 -4.48,-3.04 -4.48,-8.96 V 21.28 h 3.12 c 1.28,0 2.64,0 4.08,0.64 l 2.08,-5.6 c -1.52,0.96 -2.64,1.12 -3.52,1.12 -0.48,0 -0.8,0 -1.2,0 h -4.56 V 2.3999993 l -7.2,3.84 c 0.24,1.68 0.4,2.96 0.4,4.0800007 0,4.96 -2.72,8.8 -7.44,10.24 v 0.72 h 5.92 v 23.68 c 0,8.56 2.48,12.64 9.12,12.64 2.16,0 4.8,-0.64 8.08,-1.76 l 2.8,-7.2 z m 3.04004,8 h 16.96 v -0.72 c -3.84,-0.48 -4.56,-2.88 -4.56,-8.32 V 16.48 l -12.4,2.48 v 0.8 c 3.04,0 4.08,1.84 4.08,6.24 v 23.44 c 0,4.4 -1.04,6.32 -4.08,6.32 z m 7.84,-56.48000068664551 c -2.8,0 -5.2,2.39999998664551 -5.2,5.59999998664551 0,3.12 2.32,5.5200007 5.2,5.5200007 2.88,0 5.2,-2.4000007 5.2,-5.5200007 0,-3.04 -2.4,-5.59999998664551 -5.2,-5.59999998664551 z M 248.64,19.12 c 7.6,0 13.04,6.4 13.04,17.92 0,10.96 -5.04,16.64 -12.16,16.64 -7.84,0 -13.12,-6.4 -13.12,-18.08 0,-10.72 5.12,-16.48 12.24,-16.48 z M 227.2,36.48 c 0,11.76 9.12,21.12 21.84,21.12 12.8,0 21.84,-9.36 21.84,-21.12 0,-11.76 -9.12,-21.12 -21.84,-21.12 -12.72,0 -21.84,9.36 -21.84,21.12 z m 48.31994,20 h 16.96 v -0.72 c -3.84,-0.48 -4.56,-2.88 -4.56,-8.32 V 37.2 c 0,-5.04 0.4,-8.64 3.2,-11.6 2.72,-2.88 6.24,-4.48 9.2,-4.48 5.44,0 6.48,3.04 6.48,9.44 v 17.12 c 0,5.36 -0.64,7.76 -4.56,8.08 v 0.72 h 17.68 v -0.72 c -4.56,-1.04 -4.8,-3.36 -4.8,-9.44 V 30.08 c 0,-9.44 -1.92,-14.16 -10.24,-14.16 -5.92,0 -11.6,2.88 -16.96,8.72 -0.24,-3.36 -0.8,-6.16 -2.08,-8.16 l -10.72,1.12 v 0.88 c 0.16,0 0.24,0 0.32,0 2.72,0 4.16,2.64 4.16,7.52 v 23.44 c 0,4.4 -1.04,6.32 -4.08,6.32 z m 48.47995,-0.24 c 1.76,-0.64 2.96,-0.96 3.52,-0.96 2,0 5.92,2.32 12.24,2.32 11.92,0 18.88,-5.76 18.88,-13.84 0,-6.8 -4.4,-9.76 -13.52,-12.24 -7.36,-2 -12.24,-2.72 -12.24,-7.12 0,-3.04 2.48,-4.88 7.12,-4.88 7.68,0 12.8,3.52 14.32,9.68 l 0.8,-0.08 -0.8,-12.88 c -1.44,0.4 -2.4,0.64 -3.04,0.64 -2,0 -5.76,-1.6 -11.28,-1.6 -9.68,0 -15.12,4.8 -15.12,11.44 0,5.76 3.92,8.96 11.92,11.2 8.24,2.32 13.28,2.88 13.28,8.56 0,3.76 -3.76,6.72 -10,6.72 -8.32,0 -14.48,-5.04 -15.84,-13.44 l -0.8,0.08 z"
     id="text1-7-1-4"
     inkscape:label="options"
     aria-label="Options" /><path
     style="font-weight:500;font-size:80px;line-height:1.25;font-family:'ITC Benguiat Book';-inkscape-font-specification:'ITC Benguiat Book, Medium';display:none;fill:#ffffff;fill-opacity:1"
     d="m 40.559996,44.2 c -5.76,11.12 -11.6,16.32 -20.64,16.32 -5.52,0 -5.84,-2.56 -5.84,-8.48 V 21.16 c 0,-6.000001 0.32,-8.960001 4.96,-9.280001 v -1.12 H -4.5201111e-6 v 1.12 C 4.6399955,12.199999 4.9599955,15.159999 4.9599955,21.16 v 32.56 c 0,6 -0.32,8.96 -4.9600000201111,9.28 v 1.12 H 29.599996 c 1.6,0 3.12,0 4.64,0.88 l 7.44,-20.8 z M 67.039925,26.76 c 7.6,0 13.04,6.4 13.04,17.92 0,10.96 -5.04,16.64 -12.16,16.64 -7.84,0 -13.12,-6.4 -13.12,-18.08 0,-10.72 5.12,-16.48 12.24,-16.48 z m -21.44,17.36 c 0,11.76 9.12,21.12 21.84,21.12 12.8,0 21.84,-9.36 21.84,-21.12 0,-11.76 -9.12,-21.12 -21.84,-21.12 -12.72,0 -21.84,9.36 -21.84,21.12 z m 75.199945,-3.36 v 3.44 c 0,4.8 -0.4,8.48 -2.64,11.36 -2.24,2.88 -5.92,4.64 -9.84,4.64 -4.4,0 -7.04,-2.48 -7.04,-6.24 0,-5.92 6.56,-10.64 19.52,-13.2 z m 13.68,23.44 v -0.8 c -4.4,-1.44 -5.04,-3.76 -5.04,-8.64 V 36.04 c 0,-4.32 0,-7.36 -2.88,-10 -1.76,-1.6 -6,-3.04 -11.68,-3.04 -7.28,0 -12.24,2.48 -14.64,2.48 -0.560002,0 -1.520002,-0.24 -2.880002,-0.8 l -1.92,13.12 h 0.72 c 3.12,-6.88 8.960002,-10.56 16.480002,-10.56 5.6,0 8.16,2.16 8.16,6.56 v 3.44 c -19.12,3.28 -28.400002,8.32 -28.400002,17.6 0,6.32 4.72,10.48 12.880002,10.48 6.8,0 11.44,-2.08 15.52,-7.36 0.4,2.56 0.96,4.56 2.24,6.24 z m 43.12005,-7.6 V 7.6399993 l -12.4,2.4799997 v 0.8 c 3.84,0.32 4.08,2.32 4.08,6.800001 v 6.4 h -5.2 c -7.52,0 -13.44,0.32 -18.4,3.92 -5.04,3.68 -7.84,9.44 -7.84,16.32 0,7.36 3.12,13.28 8.64,16.72 4.08,2.48 9.12,3.04 15.68,3.04 h 19.52 V 63.4 c -3.84,-0.32 -4.08,-2.32 -4.08,-6.8 z m -8.32,3.2 c -1.84,0.08 -3.52,0.16 -4.96,0.16 -11.2,0 -17.44,-5.76 -17.44,-15.92 0,-10.4 5.44,-16.24 15.2,-16.24 6.4,0 7.2,2.72 7.2,8.24 z m 95.91999,4.32 V 63 c -4.64,-0.32 -4.96,-3.28 -4.96,-9.28 V 38.68 c 0,-6 0.32,-8.96 4.96,-9.28 v -1.12 h -18.72 v 1.12 c 4.64,0.32 5.04,3.28 5.04,9.28 V 54.2 c 0,4.8 -1.52,6.4 -8,6.4 -14,0 -24,-11.92 -24,-26.64 0,-12 7.2,-19.840001 18.08,-19.840001 7.6,0 13.12,3.600001 16.72,10.880001 h 1.12 l -3.6,-15.8400007 c -1.52,0.8799997 -2.8,1.3599997 -4.16,1.3599997 -2.64,0 -6.48,-0.8799997 -11.68,-0.8799997 -16.4,0 -25.68,9.1200007 -25.68,24.7200007 0,18.88 11.28,30.16 32,30.16 3.12,0 6.24,-0.4 9.36,-0.4 z m 30.07994,-23.36 v 3.44 c 0,4.8 -0.4,8.48 -2.64,11.36 -2.24,2.88 -5.92,4.64 -9.84,4.64 -4.4,0 -7.04,-2.48 -7.04,-6.24 0,-5.92 6.56,-10.64 19.52,-13.2 z m 13.68,23.44 v -0.8 c -4.4,-1.44 -5.04,-3.76 -5.04,-8.64 V 36.04 c 0,-4.32 0,-7.36 -2.88,-10 -1.76,-1.6 -6,-3.04 -11.68,-3.04 -7.28,0 -12.24,2.48 -14.64,2.48 -0.56,0 -1.52,-0.24 -2.88,-0.8 l -1.92,13.12 h 0.72 c 3.12,-6.88 8.96,-10.56 16.48,-10.56 5.6,0 8.16,2.16 8.16,6.56 v 3.44 c -19.12,3.28 -28.4,8.32 -28.4,17.6 0,6.32 4.72,10.48 12.88,10.48 6.8,0 11.44,-2.08 15.52,-7.36 0.4,2.56 0.96,4.56 2.24,6.24 z M 352.0799,32.28 c -1.12,-5.84 -4.48,-8.72 -10.24,-8.72 -6,0 -11.6,2.88 -16.96,8.72 -0.24,-3.36 -0.8,-6.16 -2.08,-8.16 l -10.72,1.12 v 0.88 c 0.16,0 0.24,0 0.32,0 2.72,0 4.16,2.64 4.16,7.52 v 23.44 c 0,4.4 -1.04,6.32 -4.08,6.32 v 0.72 h 16.96 V 63.4 c -3.84,-0.48 -4.56,-2.88 -4.56,-8.32 V 44.84 c 0,-4.48 0,-8.16 3.2,-11.6 2.72,-2.88 6.24,-4.48 9.2,-4.48 5.44,0 6.48,3.04 6.48,9.44 v 17.12 c 0,5.36 -0.64,7.76 -4.56,8.08 v 0.72 h 17.68 V 63.4 c -4.56,-1.04 -4.8,-3.36 -4.8,-9.44 v -9.12 c 0,-4.48 0,-8.16 3.2,-11.6 2.64,-2.88 6.08,-4.48 8.96,-4.48 5.36,0 6.4,3.2 6.4,9.44 v 17.12 c 0,5.28 -0.64,7.76 -4.48,8.08 v 0.72 h 17.28 V 63.4 c -4.48,-1.04 -4.64,-3.44 -4.64,-9.44 V 37.72 c 0,-9.36 -1.76,-14.16 -10.24,-14.16 -5.6,0 -11.2,2.88 -16.48,8.72 z m 75.35996,18.08 c -3.04,6.8 -7.6,10 -14.24,10 -8.72,0 -14.56,-5.2 -16.24,-14.88 l 30.48,-8.64 c -2.96,-9.12 -9.44,-13.84 -18.96,-13.84 -12.4,0 -21.36,9.04 -21.36,20.4 0,12.48 10,21.92 24.48,21.92 3.68,0 7.12,-0.8 10.56,-0.8 0.64,0 1.28,0 1.92,0.08 l 4.08,-14 z m -9.6,-14.8 -21.28,6 c 0,-0.32 0,-0.56 0,-0.8 0,-8.48 4.72,-13.6 11.04,-13.6 4.88,0 8.16,2.8 10.24,8.4 z"
     id="text1-7-1"
     inkscape:label="load_game"
     aria-label="Load Game" /><path
     style="font-weight:500;font-size:80px;line-height:1.25;font-family:'ITC Benguiat Book';-inkscape-font-specification:'ITC Benguiat Book, Medium';display:inline;fill:#ffffff;fill-opacity:1"
     d="m 26.159916,16.8 27.12,25.44 v 10.72 c 0,6 -0.4,8.96 -5.04,9.28 v 1.119999 h 15.2 V 62.24 c -4.64,-0.32 -5.04,-3.28 -5.04,-9.28 V 20.399999 c 0,-5.999999 0.4,-8.959999 5.04,-9.279999 V 9.9999996 h -14.48 V 11.12 c 4.24,1.12 4.32,2.08 4.32,4.8 v 14.4 l -17.36,-16.24 c -0.8,-0.72 -1.44,-1.2 -1.44,-1.84 0,-0.48 0.24,-0.88 0.8,-1.12 V 9.9999996 h -19.36 V 11.12 c 4.64,0.32 5.04,3.28 5.04,9.28 v 32.56 c 0,6 -0.4,8.96 -5.04,9.28 v 1.12 h 15.2 v -1.12 c -4.64,-0.32 -4.96,-3.28 -4.96,-9.28 z m 82.240054,32.8 c -3.04,6.799999 -7.6,10 -14.239999,10 -8.72,0 -14.56,-5.200001 -16.24,-14.880001 l 30.479999,-8.64 c -2.96,-9.119999 -9.439999,-13.84 -18.959999,-13.84 -12.4,0 -21.36,9.04 -21.36,20.400001 0,12.48 10,21.92 24.48,21.92 3.68,0 7.12,-0.8 10.559999,-0.8 0.64,0 1.28,0 1.92,0.08 l 4.08,-14 z m -9.599999,-14.800001 -21.28,6 c 0,-0.32 0,-0.56 0,-0.799999 0,-8.480001 4.72,-13.600001 11.04,-13.600001 4.88,0 8.16,2.8 10.24,8.4 z M 132.95993,62.64 c -0.48,-0.560001 -0.8,-1.04 -0.8,-1.520001 0,-0.72 0.56,-2.16 1.36,-4.56 l 5.28,-15.28 5.76,15.6 c 0.24,0.64 0.96,1.76 0.96,3.76 0,0.8 -0.32,1.36 -1.12,2 v 0.72 h 12 v -0.72 c -0.96,-0.4 -1.44,-0.88 -1.44,-1.68 0,-1.04 0.56,-2.72 1.44,-5.36 l 7.6,-23.28 c 1.52,-4.64 2.88,-7.28 5.76,-8.24 v -0.72 h -12.08 v 0.72 c 1.84,0.64 2.72,1.76 2.72,3.36 0,0.88 -0.48,2.4 -1.12,4.64 l -7.2,23.52 -11.6,-31.52 -11.12,31.12 -5.84,-23.6 c -0.72,-2.8 -0.8,-4.48 -0.8,-4.72 0,-1.52 0.8,-2.48 2.48,-2.8 v -0.72 h -15.44 v 0.72 c 2.96,0.88 3.68,3.36 4.8,7.12 L 121.83993,56 c 0.56,2 1.04,3.679999 1.04,4.96 0,0.799999 -0.16,1.2 -1.12,1.68 v 0.719999 h 11.2 z m 116.32006,0.719999 V 62.24 c -4.64,-0.32 -4.96,-3.28 -4.96,-9.28 V 37.92 c 0,-6 0.32,-8.96 4.96,-9.28 v -1.120001 h -18.72 V 28.64 c 4.64,0.32 5.04,3.28 5.04,9.28 v 15.519999 c 0,4.8 -1.52,6.4 -8,6.4 -14,0 -24,-11.92 -24,-26.64 0,-12 7.2,-19.839999 18.08,-19.839999 7.6,0 13.12,3.6 16.72,10.879999 h 1.12 l -3.6,-15.8399994 c -1.52,0.88 -2.8,1.36 -4.16,1.36 -2.64,0 -6.48,-0.88 -11.68,-0.88 -16.4,0 -25.68,9.1200004 -25.68,24.7200004 0,18.88 11.28,30.16 32,30.16 3.12,0 6.24,-0.4 9.36,-0.4 z M 279.35993,40 v 3.439999 c 0,4.8 -0.4,8.480001 -2.64,11.36 -2.24,2.88 -5.92,4.64 -9.84,4.64 -4.4,0 -7.04,-2.479999 -7.04,-6.24 0,-5.92 6.56,-10.64 19.52,-13.199999 z m 13.68,23.439999 V 62.64 c -4.4,-1.44 -5.04,-3.76 -5.04,-8.64 V 35.28 c 0,-4.32 0,-7.36 -2.88,-10 -1.76,-1.600001 -6,-3.04 -11.68,-3.04 -7.28,0 -12.24,2.48 -14.64,2.48 -0.56,0 -1.52,-0.24 -2.88,-0.8 l -1.92,13.119999 h 0.72 c 3.12,-6.879999 8.96,-10.56 16.48,-10.56 5.6,0 8.16,2.16 8.16,6.56 v 3.44 c -19.12,3.28 -28.4,8.32 -28.4,17.6 0,6.32 4.72,10.480001 12.88,10.480001 6.8,0 11.44,-2.08 15.52,-7.36 0.4,2.56 0.96,4.56 2.24,6.24 z m 43.12005,-31.92 c -1.12,-5.84 -4.48,-8.72 -10.24,-8.72 -6,0 -11.6,2.88 -16.96,8.72 -0.24,-3.36 -0.8,-6.16 -2.08,-8.16 l -10.72,1.12 v 0.88 c 0.16,0 0.24,0 0.32,0 2.72,0 4.16,2.64 4.16,7.52 v 23.44 c 0,4.4 -1.04,6.32 -4.08,6.32 v 0.72 h 16.96 v -0.72 c -3.84,-0.48 -4.56,-2.88 -4.56,-8.32 v -10.24 c 0,-4.48 0,-8.16 3.2,-11.6 2.72,-2.88 6.24,-4.48 9.2,-4.48 5.44,0 6.48,3.04 6.48,9.44 v 17.12 c 0,5.36 -0.64,7.76 -4.56,8.08 v 0.72 h 17.68 v -0.72 c -4.56,-1.04 -4.8,-3.36 -4.8,-9.44 v -9.12 c 0,-4.48 0,-8.16 3.2,-11.6 2.64,-2.88 6.08,-4.48 8.96,-4.48 5.36,0 6.4,3.2 6.4,9.44 v 17.12 c 0,5.28 -0.64,7.76 -4.48,8.08 v 0.72 h 17.28 v -0.72 c -4.48,-1.04 -4.64,-3.44 -4.64,-9.44 v -16.24 c 0,-9.36 -1.76,-14.16 -10.24,-14.16 -5.6,0 -11.2,2.88 -16.48,8.72 z m 75.35996,18.08 c -3.04,6.8 -7.6,10 -14.24,10 -8.72,0 -14.56,-5.2 -16.24,-14.88 l 30.48,-8.64 c -2.96,-9.12 -9.44,-13.84 -18.96,-13.84 -12.4,0 -21.36,9.04 -21.36,20.4 0,12.48 10,21.92 24.48,21.92 3.68,0 7.12,-0.8 10.56,-0.8 0.64,0 1.28,0 1.92,0.08 l 4.08,-14 z m -9.6,-14.8 -21.28,6 c 0,-0.32 0,-0.56 0,-0.799999 0,-8.480001 4.72,-13.600001 11.04,-13.600001 4.88,0 8.16,2.8 10.24,8.4 z"
     id="text1-7"
     inkscape:label="new_game"
     aria-label="New Game" /></svg>
