<?xml version="1.0" encoding="UTF-8" standalone="no"?>
<!-- Created with Inkscape (http://www.inkscape.org/) -->

<svg
   version="1.1"
   id="svg2"
   width="583.453"
   height="166.69901"
   viewBox="0 0 583.45301 166.69901"
   sodipodi:docname="title.svg"
   inkscape:version="1.3.2 (091e20ef0f, 2023-11-25, custom)"
   xml:space="preserve"
   inkscape:export-filename="title.png"
   inkscape:export-xdpi="100"
   inkscape:export-ydpi="100"
   xmlns:inkscape="http://www.inkscape.org/namespaces/inkscape"
   xmlns:sodipodi="http://sodipodi.sourceforge.net/DTD/sodipodi-0.dtd"
   xmlns="http://www.w3.org/2000/svg"
   xmlns:svg="http://www.w3.org/2000/svg"><defs
     id="defs6" /><sodipodi:namedview
     id="namedview4"
     pagecolor="#ffffff"
     bordercolor="#111111"
     borderopacity="1"
     inkscape:showpageshadow="0"
     inkscape:pageopacity="0"
     inkscape:pagecheckerboard="1"
     inkscape:deskcolor="#d1d1d1"
     showgrid="false"
     inkscape:zoom="0.97045455"
     inkscape:cx="255.03513"
     inkscape:cy="39.156908"
     inkscape:window-width="1920"
     inkscape:window-height="1008"
     inkscape:window-x="0"
     inkscape:window-y="0"
     inkscape:window-maximized="1"
     inkscape:current-layer="svg2"><inkscape:grid
       type="xygrid"
       id="grid3115"
       originx="-9.9999866"
       originy="135.15239"
       spacingy="1"
       spacingx="1"
       units="px"
       visible="false" /></sodipodi:namedview><path
     d="M 106.27562,49.554062 V 16.611345 c 0,-5.226036 0.65341,-7.9323822 5.13394,-7.9323822 8.77438,0 17.45542,11.0120142 17.45542,27.5300332 0,13.251744 -5.97405,21.464093 -16.70866,21.464093 -5.60067,0 -5.8807,-1.586477 -5.8807,-6.252584 0,-0.559932 0,-1.213187 0,-1.866443 z M 82.566124,64.112317 h 35.097516 c 9.52114,0 16.33528,-1.30651 22.49602,-6.719195 5.88069,-5.132717 9.05441,-12.318523 9.05441,-20.437549 0,-11.665265 -5.41399,-22.117346 -14.65508,-28.6498956 C 128.39825,3.9195316 120.9307,1.866447 111.68959,1.866447 H 82.566124 v 2.6130177 c 4.293845,0.7465808 4.480534,3.5462462 4.480534,9.6121813 v 37.79547 c 0,6.065939 -0.186689,8.865604 -4.480534,9.612182 z m 73.275376,0 h 28.19003 v -2.613019 c -4.29385,-0.746578 -4.48054,-3.45292 -4.48054,-9.612182 v -16.51802 l 3.5471,-1.119869 c 9.05441,9.238896 12.88153,19.970942 12.88153,23.423862 0,1.866443 -0.8401,2.799664 -3.17371,3.826209 v 2.613019 h 29.03012 v -2.613019 c -3.82712,-0.559934 -5.0406,-3.826209 -7.18752,-9.145571 -4.10715,-10.078792 -8.401,-18.384466 -14.09502,-24.637049 8.40101,-5.039398 12.60151,-9.332215 12.60151,-15.864764 0,-6.9058351 -4.48054,-9.985467 -13.53495,-9.985467 H 155.8415 v 2.6130177 c 4.29385,0.7465808 4.48053,3.4529173 4.48053,9.6121813 v 37.79547 c 0,6.159262 -0.18668,8.865604 -4.48053,9.612182 z M 179.55099,28.276611 V 13.158428 c 0,-3.5462467 0.18669,-5.1327171 6.44077,-5.1327171 5.50732,0 8.12097,2.0530851 8.12097,6.8125161 0,6.43923 -5.13394,11.385299 -14.56174,13.438384 z m 43.96528,35.835706 h 28.19002 v -2.613019 c -4.29384,-0.746578 -4.48053,-3.45292 -4.48053,-9.612182 v -37.79547 c 0,-6.159264 0.18669,-8.8656005 4.48053,-9.6121813 V 1.866447 h -28.19002 v 2.6130177 c 4.29385,0.7465808 4.48053,3.4529173 4.48053,9.6121813 v 37.79547 c 0,6.159262 -0.18668,8.865604 -4.48053,9.612182 z M 281.29641,57.393122 313.50024,3.1729608 V 1.866447 H 269.535 c -0.18669,0 -0.46672,0 -0.6534,0 -1.30683,0 -2.707,-0.093289 -4.3872,-1.11986622 l -4.85391,21.46409522 2.61364,0.466604 c 5.2273,-10.265433 12.69485,-14.744898 23.98953,-14.744898 h 3.26706 l -32.48387,54.873425 v 1.30651 h 45.17871 c 2.14692,0 3.82713,0.186644 5.13395,1.119865 l 8.58769,-25.010334 -2.5203,-0.279966 c -6.25408,11.571946 -15.68187,17.45124 -27.91,17.45124 z m 61.32726,0 L 374.8275,3.1729608 V 1.866447 h -43.96524 c -0.18669,0 -0.46672,0 -0.65341,0 -1.30682,0 -2.70699,-0.093289 -4.38719,-1.11986622 l -4.85391,21.46409522 2.61364,0.466604 c 5.2273,-10.265433 12.69485,-14.744898 23.98953,-14.744898 h 3.26706 l -32.48387,54.873425 v 1.30651 h 45.17872 c 2.14691,0 3.82711,0.186644 5.13394,1.119865 l 8.58769,-25.010334 -2.52031,-0.279966 c -6.25407,11.571946 -15.68186,17.45124 -27.90999,17.45124 z m 40.32476,6.719195 h 42.84509 c 1.49351,0 2.80034,0 4.29385,1.026544 l 7.09418,-25.383624 -2.14692,-0.746577 c -5.2273,12.59849 -12.22813,18.851074 -20.90916,18.851074 -7.28087,0 -7.46756,-3.732886 -7.46756,-10.545403 V 14.091646 c 0,-5.9726163 0.37338,-8.6789628 4.94726,-9.6121813 V 1.866447 h -28.65674 v 2.6130177 c 4.29384,0.7465808 4.48052,3.4529173 4.48052,9.6121813 v 37.79547 c 0,6.159262 -0.18668,8.865604 -4.48052,9.612182 z m 59.6471,0 h 45.45875 c 1.68019,0 3.26705,0 4.94726,1.026544 l 7.93427,-25.383624 -2.42696,-0.746577 c -6.16072,12.785134 -13.81497,18.851074 -24.08286,18.851074 -6.7208,0 -8.12096,-2.239732 -8.12096,-8.865604 V 28.463259 h 4.76056 c 7.74759,0 10.9213,3.17295 13.25491,10.91869 l 1.86689,-0.746577 -4.01381,-23.797145 h -1.86689 c -0.74675,6.252583 -2.89368,7.185801 -8.77438,7.185801 h -5.22728 v -6.43923 c 0,-5.319355 0.74674,-7.3724494 6.44076,-7.3724494 10.0812,0 17.17538,4.6661124 20.90915,13.8116794 L 496.0819,21.464095 490.85461,0 c -1.02678,1.3065139 -2.80033,1.866447 -5.32063,1.866447 h -42.93845 v 2.6130177 c 4.29385,0.7465808 4.48054,3.4529173 4.48054,9.6121813 v 37.79547 c 0,6.159262 -0.18669,8.865604 -4.48054,9.612182 z"
     id="text1-1-9-1-2"
     style="font-weight:bold;font-size:93.3333px;line-height:1.25;font-family:'ITC Benguiat';-inkscape-font-specification:'ITC Benguiat, Bold';stroke-width:1.00012;fill:#af111c;fill-opacity:1"
     inkscape:label="drizzle"
     aria-label="DRIZZLE" /><g
     id="g1"
     transform="translate(-9.9999862,135.15239)"
     inkscape:label="the_unveiling"
     style="fill:#af111c;fill-opacity:1"><path
       d="M 269.17301,-22.773429 V 4.2265857 c 0,4.4000024 -0.13333,6.3333363 -3.2,6.8666703 v 1.866668 h 13.06667 v -1.866668 c -3.86667,-0.266667 -4.2,-2.7333347 -4.2,-7.7333374 V -23.173429 l 24.40001,27.333348 v 1.5333342 c 0,3.7333353 -0.46666,5.2666698 -4.13333,5.4000028 v 1.866668 h 13.06667 v -1.866668 c -3.06667,-0.533334 -3.2,-2.4666679 -3.2,-6.8666703 V -22.773429 c 0,-4.400002 0.13333,-6.333336 3.2,-6.86667 v -1.866668 h -12.13334 v 1.866668 c 3.06667,0.533334 3.2,2.466668 3.2,6.86667 v 6.800004 l -8.6,-9.533338 c -0.8,-0.866668 -1.2,-1.866668 -1.2,-2.333335 0,-0.666667 0.46667,-1.333334 1.53333,-1.800001 v -1.866668 h -25.00001 v 1.866668 c 3.06667,0.533334 3.2,2.466668 3.2,6.86667 z m 86.13341,-8.733338 h -14.53334 v 1.866668 c 2.2,0.4 3.13333,1.333334 3.13333,3.066668 0,0.733334 -0.46667,2.466668 -1.33333,5.200003 l -6.53334,19.6666772 -6.26667,-19.4666772 c -0.93333,-2.933335 -1.26667,-4.733336 -1.26667,-5.266669 0,-1.600001 0.93334,-2.666668 2.73334,-3.200002 v -1.866668 h -21.13335 v 1.866668 c 2.46667,0.466667 3.4,2.533335 4.66667,6.46667 l 9.33334,28.3333486 c 0.53333,1.6666675 1.06667,2.8666682 1.06667,3.6666686 0,1.2000008 -0.73334,2.0000008 -2.06667,2.2666678 v 1.866668 h 17.26668 v -1.866668 c -1.06667,-0.2 -1.73334,-1.1333339 -1.73334,-2.0666677 0,-0.6000003 0.33334,-1.6000008 0.86667,-3.0000016 l 9.4,-26.4000137 c 1.86667,-5.133336 2.46667,-8.400005 6.40001,-9.266672 z m 0.99994,44.466691 h 32.46668 c 1.20001,0 2.33334,0 3.53334,0.733333 l 5.66667,-18.1333425 -1.73333,-0.5333337 c -4.40001,9.1333382 -9.86668,13.4666739 -17.20001,13.4666739 -4.80001,0 -5.80001,-1.6000009 -5.80001,-6.3333367 v -14.666675 h 3.40001 c 5.53333,0 7.8,2.266668 9.46667,7.8000046 l 1.33333,-0.5333336 -2.86667,-17.000009 h -1.33333 c -0.53333,4.466669 -2.06667,5.133336 -6.26667,5.133336 h -3.73334 v -4.600002 c 0,-3.800002 0.53334,-5.26667 4.60001,-5.26667 7.2,0 12.26667,3.333335 14.93334,9.866672 l 1.73333,-0.4 -3.73333,-15.333342 c -0.73334,0.933334 -2.00001,1.333334 -3.80001,1.333334 h -30.66668 v 1.866668 c 3.06667,0.533334 3.2,2.466668 3.2,6.86667 V 4.2265857 c 0,4.4000024 -0.13333,6.3333363 -3.2,6.8666703 z m 45.66665,0 h 20.13334 v -1.866668 c -3.06666,-0.533334 -3.2,-2.4666679 -3.2,-6.8666703 V -22.773429 c 0,-4.400002 0.13334,-6.333336 3.2,-6.86667 v -1.866668 h -20.13334 v 1.866668 c 3.06667,0.533334 3.2,2.466668 3.2,6.86667 V 4.2265857 c 0,4.4000024 -0.13333,6.3333363 -3.2,6.8666703 z m 26.26663,0 h 30.60002 c 1.06667,0 2,0 3.06667,0.733333 l 5.06667,-18.1333425 -1.53334,-0.5333337 c -3.73333,9.0000048 -8.73334,13.4666739 -14.93334,13.4666739 -5.2,0 -5.33334,-2.6666681 -5.33334,-7.53333736 V -22.773429 c 0,-4.266669 0.26667,-6.200003 3.53334,-6.86667 v -1.866668 h -20.46668 v 1.866668 c 3.06667,0.533334 3.2,2.466668 3.2,6.86667 V 4.2265857 c 0,4.4000024 -0.13333,6.3333363 -3.2,6.8666703 z m 42.60001,0 h 20.13334 v -1.866668 c -3.06667,-0.533334 -3.2,-2.4666679 -3.2,-6.8666703 V -22.773429 c 0,-4.400002 0.13333,-6.333336 3.2,-6.86667 v -1.866668 h -20.13334 v 1.866668 c 3.06667,0.533334 3.2,2.466668 3.2,6.86667 V 4.2265857 c 0,4.4000024 -0.13333,6.3333363 -3.2,6.8666703 z m 29.46663,-35.733353 V 4.2265857 c 0,4.4000024 -0.13333,6.3333363 -3.2,6.8666703 v 1.866668 h 13.06667 v -1.866668 c -3.86666,-0.266667 -4.2,-2.7333347 -4.2,-7.7333374 V -23.173429 l 24.40001,27.333348 v 1.5333342 c 0,3.7333353 -0.46666,5.2666698 -4.13333,5.4000028 v 1.866668 h 13.06667 v -1.866668 c -3.06667,-0.533334 -3.2,-2.4666679 -3.2,-6.8666703 V -22.773429 c 0,-4.400002 0.13333,-6.333336 3.2,-6.86667 v -1.866668 h -12.13334 v 1.866668 c 3.06667,0.533334 3.2,2.466668 3.2,6.86667 v 6.800004 l -8.6,-9.533338 c -0.8,-0.866668 -1.2,-1.866668 -1.2,-2.333335 0,-0.666667 0.46667,-1.333334 1.53333,-1.800001 v -1.866668 h -25.00001 v 1.866668 c 3.06667,0.533334 3.2,2.466668 3.2,6.86667 z M 575.173,-4.9067525 v 6.4666702 c 0,4.466669 -0.33333,6.8666703 -4.86667,6.8666703 -6.73333,0 -12.8,-8.06667098 -12.8,-20.066677 0,-9.400005 4.86667,-15.066675 12.6,-15.066675 5.33334,0 9.26668,2.866668 12.73334,8.733338 h 1.6 l -2.06666,-14.666675 c -1.73334,1.000001 -3.13334,1.600001 -4.46667,1.600001 -2.46667,0 -6.20001,-1.333334 -11.73334,-1.333334 -13.66668,0 -21.86668,7.600004 -21.86668,21.000011 0,14.9333417 9.66667,24.733347 26.40001,24.733347 2.26667,0 6.26667,-0.4 12.00001,-0.4 h 9.80001 v -1.666668 c -3.46667,-0.666667 -3.73334,-2.6000012 -3.73334,-6.8666701 v -9.3333384 c 0,-4.2666689 0.26667,-6.2666695 3.73334,-6.9333375 v -1.8 h -21.06668 v 1.8 c 3.46667,0.666668 3.73333,2.6666686 3.73333,6.9333375 z"
       id="text1-1"
       style="font-weight:bold;font-size:66.6667px;line-height:1.25;font-family:'ITC Benguiat';-inkscape-font-specification:'ITC Benguiat, Bold';fill:#af111c;fill-opacity:1"
       inkscape:label="nveiling"
       aria-label="NVEILING" /><path
       d="m 255.5063,-22.520064 -0.93334,-14.559995 c -0.0933,-1.679999 -0.0933,-2.986665 -0.0933,-3.919998 0,-4.573332 2.52,-7.653331 6.90666,-8.119997 v -2.613332 H 239.2663 v 2.613332 c 6.34667,0.746666 7.46667,6.066664 8.02667,17.079993 l 0.84,15.679994 c 0.0933,1.4 0.0933,2.706666 0.0933,3.919999 0,10.9199958 -3.08,16.5199937 -12.6,16.5199937 -8.49333,0 -12.41332,-4.38666503 -12.41332,-13.2533283 0,-1.8666664 0,-4.0133314 0.0933,-6.6266644 l 0.46667,-19.319992 c 0.18666,-9.05333 1.21333,-13.253329 6.90666,-13.999995 v -2.613332 h -31.26666 v 2.613332 c 5.22667,0.28 5.69334,2.893332 5.69334,8.959997 0,0.559999 0,1.026666 0,1.306666 l -0.93334,23.613324 c -0.0933,3.546665 -0.18666,5.9733311 -0.18666,7.186664 0,13.9999946 6.90666,19.879992 24.73332,19.879992 18.57333,0 27.34666,-7.2799968 27.34666,-22.586658 0,-3.453332 -0.28,-7.466663 -0.56,-11.759995 z"
       id="text1-1-9"
       style="font-weight:bold;font-size:93.3333px;line-height:1.25;font-family:'ITC Benguiat';-inkscape-font-specification:'ITC Benguiat, Bold';fill:#af111c;fill-opacity:1"
       inkscape:label="u"
       aria-label="U" /><path
       d="M 93.413303,-16.853429 H 104.67998 V 2.0799145 c 0,4.4000023 -0.13334,6.3333367 -3.20001,6.8666703 v 1.8666672 h 20.13335 V 8.9465848 c -3.06667,-0.5333336 -3.2,-2.466668 -3.2,-6.8666703 V -24.9201 c 0,-4.400002 0.13333,-6.333337 3.2,-6.86667 v -1.866668 h -20.13335 v 1.866668 c 3.06667,0.533333 3.20001,2.466668 3.20001,6.86667 v 3.466669 H 93.413303 V -24.9201 c 0,-4.400002 0.133333,-6.333337 3.200001,-6.86667 v -1.866668 H 76.47996 v 1.866668 c 3.066669,0.533333 3.200002,2.466668 3.200002,6.86667 V 2.0799145 c 0,4.4000023 -0.133333,6.3333367 -3.200002,6.8666703 V 10.813252 H 96.613304 V 8.9465848 C 93.546636,8.4132512 93.413303,6.4799168 93.413303,2.0799145 Z M 127.7466,10.813252 h 32.46668 c 1.2,0 2.33333,0 3.53334,0.733334 l 5.66667,-18.1333428 -1.73334,-0.5333337 c -4.4,9.1333382 -9.86667,13.4666739 -17.20001,13.4666739 -4.8,0 -5.8,-1.6000009 -5.8,-6.33333672 V -14.653428 h 3.4 c 5.53334,0 7.8,2.266668 9.46667,7.8000043 l 1.33334,-0.5333336 -2.86667,-17.0000087 h -1.33334 c -0.53333,4.466669 -2.06666,5.133336 -6.26667,5.133336 h -3.73333 v -4.600003 c 0,-3.800002 0.53333,-5.266669 4.6,-5.266669 7.2,0 12.26667,3.333335 14.93334,9.866672 l 1.73334,-0.4 -3.73334,-15.333342 c -0.73333,0.933334 -2,1.333334 -3.8,1.333334 H 127.7466 v 1.866668 c 3.06666,0.533333 3.2,2.466668 3.2,6.86667 V 2.0799145 c 0,4.4000023 -0.13334,6.3333367 -3.2,6.8666703 z"
       id="text1-1-8"
       style="font-weight:bold;font-size:66.6667px;line-height:1.25;font-family:'ITC Benguiat';-inkscape-font-specification:'ITC Benguiat, Bold';fill:#af111c;fill-opacity:1"
       inkscape:label="he"
       aria-label="HE" /><path
       d="M 24.746647,11.54659 H 55.639969 V 8.9332575 C 50.506637,8.6532576 49.853304,5.5732588 49.853304,-1.893405 v -41.346651 c 0.466667,0 0.84,0 1.213333,0 8.49333,0 13.999995,4.573332 16.799994,13.533328 l 2.613332,-0.466666 -4.386665,-21.559992 c -1.493333,0.933333 -2.706666,1.026666 -4.199998,1.026666 H 18.493316 c -1.493333,0 -2.706665,-0.09333 -4.199998,-1.026666 l -4.2933318,21.559992 2.6133328,0.466666 c 2.799998,-8.959996 8.306663,-13.533328 16.799993,-13.533328 0.373333,0 0.746666,0 1.213333,0 v 41.346651 c 0,7.1866639 -0.56,10.4533293 -5.879998,10.8266625 z"
       id="text1-1-9-1"
       style="font-weight:bold;font-size:93.3333px;line-height:1.25;font-family:'ITC Benguiat';-inkscape-font-specification:'ITC Benguiat, Bold';fill:#af111c;fill-opacity:1"
       inkscape:label="t"
       aria-label="T" /><rect
       style="fill:#af111c;fill-opacity:1;stroke-width:1.33339;stroke-linecap:round;stroke-linejoin:bevel"
       id="rect1-8-5-7"
       width="582.50598"
       height="10"
       x="10.946985"
       y="21.546589"
       inkscape:label="bottom_bar" /><rect
       style="fill:#af111c;fill-opacity:1;stroke-width:0.998321;stroke-linecap:round;stroke-linejoin:bevel"
       id="rect1-8-5"
       width="326.53299"
       height="10"
       x="265.97299"
       y="-51.733387"
       inkscape:label="top_bar_2" /><rect
       style="fill:#af111c;fill-opacity:1;stroke-width:0.53259;stroke-linecap:round;stroke-linejoin:bevel"
       id="rect1-8-5-2"
       width="92.932999"
       height="10"
       x="76.479988"
       y="-51.733387"
       inkscape:label="top_bar_1" /></g></svg>
