<?xml version="1.0" encoding="UTF-8" standalone="no"?>
<!-- Created with Inkscape (http://www.inkscape.org/) -->

<svg
   width="418.16473"
   height="56.406338"
   viewBox="0 0 110.63942 14.924178"
   version="1.1"
   id="svg5"
   inkscape:version="1.3.2 (091e20e, 2023-11-25, custom)"
   sodipodi:docname="game_over.svg"
   xml:space="preserve"
   inkscape:export-filename="game_over.png"
   inkscape:export-xdpi="96"
   inkscape:export-ydpi="96"
   xmlns:inkscape="http://www.inkscape.org/namespaces/inkscape"
   xmlns:sodipodi="http://sodipodi.sourceforge.net/DTD/sodipodi-0.dtd"
   xmlns="http://www.w3.org/2000/svg"
   xmlns:svg="http://www.w3.org/2000/svg"><path
     d="M 10.014909,4.3201563 Q 9.4671375,3.4313202 8.6816545,3.0075728 7.8961715,2.5838254 6.7076116,2.5838254 q -1.9533722,0 -2.831873,1.2609069 -0.8681654,1.2505717 -0.8681654,3.7310444 0,2.4598023 0.8578301,3.6070203 0.8681655,1.136884 2.7801965,1.136884 1.4469424,0 2.6665082,-0.599448 V 9.498143 H 6.5215762 V 6.9246526 H 12.236999 V 13.249858 Q 11.24481,13.994 9.7668613,14.448753 q -1.467613,0.454753 -3.0282438,0.454753 -3.3486381,0 -5.0436278,-1.746666 Q 2.9802322e-8,11.410174 2.9802322e-8,7.5757767 2.9802322e-8,-3.6042184e-7 6.6662704,-3.6042184e-7 q 1.943037,0 3.3899796,0.65112408042184 1.446942,0.65112408 2.201419,1.91203108 z M 21.528436,14.603783 v -1.126548 q -1.581301,1.446942 -3.389979,1.446942 -1.798343,0 -2.718185,-0.940513 -0.919842,-0.950847 -0.919842,-2.428796 0,-1.157554 0.465089,-1.9120307 Q 15.440943,8.8883601 16.360784,8.4646127 17.290962,8.03053 19.027293,7.8548299 L 21.311395,7.6377885 V 7.1520293 q 0,-0.9095067 -0.547771,-1.2402364 -0.547772,-0.341065 -1.601972,-0.341065 -0.868166,0 -1.498619,0.2893885 -0.620119,0.2893885 -0.919842,0.8268242 L 14.665795,5.3536865 q 0.547771,-0.9198419 1.71566,-1.4056011 1.167889,-0.4960946 2.821538,-0.4960946 2.532149,0 3.648362,0.8888361 1.126548,0.8785007 1.126548,2.8938848 V 14.603783 Z M 21.311395,9.5704901 19.95747,9.6945138 q -1.436607,0.1240236 -2.077396,0.5477712 -0.630453,0.423747 -0.630453,1.271242 0,0.744142 0.413412,1.023195 0.413412,0.268718 1.095542,0.268718 0.485759,0 1.178224,-0.299724 0.702801,-0.310059 1.374596,-0.868165 z M 39.821921,14.603783 V 8.2165655 q 0,-0.9611832 -0.113689,-1.498619 -0.113688,-0.5374357 -0.3514,-0.7234712 -0.227376,-0.1963707 -0.764812,-0.1963707 -0.609783,0 -1.291913,0.4547533 -0.68213,0.4547533 -1.271242,1.1162127 V 14.603783 H 33.362356 V 8.2165655 q 0,-1.0542009 -0.09302,-1.5192896 -0.09302,-0.4754239 -0.33073,-0.68213 -0.237712,-0.2170413 -0.806154,-0.2170413 -0.496094,0 -1.147218,0.3824062 Q 30.334113,6.5525817 29.5693,7.3690706 V 14.603783 H 26.902792 V 3.7620499 H 29.5693 v 1.4056012 q 0.744142,-0.8061536 1.560631,-1.260907 0.816489,-0.4547533 1.808678,-0.4547533 1.353925,0 1.994714,0.4650886 0.651124,0.4650887 0.888836,1.3745953 0.930177,-0.9301772 1.73633,-1.3849306 0.816489,-0.4547533 1.901696,-0.4547533 1.581302,0 2.304773,0.8991714 0.723471,0.8991713 0.723471,3.0179084 v 7.2347124 z m 7.782485,-4.7232338 q 0.07235,1.4469428 0.702801,2.0773958 0.630453,0.630454 1.984378,0.630454 0.785483,0 1.374595,-0.196371 0.599448,-0.196371 1.043866,-0.754477 l 1.984378,1.415936 q -0.651124,0.940513 -1.69499,1.405601 -1.03353,0.465089 -2.831873,0.465089 -2.676843,0 -3.999762,-1.405601 -1.312583,-1.405601 -1.312583,-4.2478096 0,-5.8187756 5.208992,-5.8187756 2.315108,0 3.524339,1.3125835 1.219565,1.3022481 1.219565,3.8033915 v 1.3125834 z m 4.557869,-1.8396839 q 0,-2.4701374 -2.160078,-2.4701374 -0.713136,0 -1.16789,0.2480473 -0.454753,0.2377119 -0.733806,0.7234712 -0.268718,0.4754239 -0.423748,1.4986189 z M 74.011105,7.451753 q 0,3.731044 -1.581301,5.591399 -1.570966,1.860354 -4.57854,1.860354 -3.172938,0 -4.671556,-1.953372 -1.488284,-1.963707 -1.488284,-5.498381 0,-3.5553442 1.488284,-5.4983811 Q 64.678326,-3.6042184e-7 67.851264,-3.6042184e-7 q 3.193609,0 4.671557,1.95337226042184 1.488284,1.9430369 1.488284,5.4983811 z m -3.007573,0 q 0,-2.5424845 -0.723471,-3.7000384 -0.713136,-1.1678892 -2.428797,-1.1678892 -1.71566,0 -2.439131,1.1678892 -0.713136,1.1575539 -0.713136,3.7000384 0,2.5424846 0.723471,3.710374 0.733807,1.157554 2.428796,1.157554 1.715661,0 2.428797,-1.157554 0.723471,-1.1678894 0.723471,-3.710374 z m 10.479995,7.15203 H 79.023725 L 75.178992,3.7620499 h 2.72852 l 2.408126,7.1416941 2.39779,-7.1416941 h 2.666508 z m 7.658458,-4.7232338 q 0.07235,1.4469428 0.7028,2.0773958 0.630454,0.630454 1.984379,0.630454 0.785483,0 1.374595,-0.196371 0.599447,-0.196371 1.043865,-0.754477 l 1.984379,1.415936 q -0.651124,0.940513 -1.69499,1.405601 -1.03353,0.465089 -2.831873,0.465089 -2.676844,0 -3.999762,-1.405601 -1.312584,-1.405601 -1.312584,-4.2478096 0,-5.8187756 5.208993,-5.8187756 2.315108,0 3.524338,1.3125835 1.219566,1.3022481 1.219566,3.8033915 v 1.3125834 z m 4.557868,-1.8396839 q 0,-2.4701374 -2.160078,-2.4701374 -0.713136,0 -1.167889,0.2480473 -0.454753,0.2377119 -0.733807,0.7234712 -0.268718,0.4754239 -0.423747,1.4986189 z M 105.29607,6.3665462 q -0.41341,-0.206706 -1.09554,-0.206706 -0.74415,0 -1.41594,0.3617356 -0.66146,0.3514003 -1.36426,1.0335303 V 14.603783 H 98.753821 V 3.7620499 h 2.666509 v 1.5502954 q 0.68213,-0.7441418 1.46761,-1.229901 0.78548,-0.4857592 1.757,-0.4857592 0.82683,0 1.17823,0.2170413 z m 4.78524,3.6897028 h -2.22209 l -0.3514,-9.75652558 h 2.89389 z m 0.55811,3.110927 q 0,0.888836 -0.40308,1.240236 -0.40307,0.341065 -1.29191,0.341065 -0.97152,0 -1.32292,-0.382406 -0.3514,-0.392742 -0.3514,-1.198895 0,-0.847495 0.37207,-1.219566 0.37207,-0.372071 1.30225,-0.372071 0.95085,0 1.32292,0.361736 0.37207,0.361735 0.37207,1.229901 z"
     id="text16"
     style="font-weight:bold;font-size:21.1667px;line-height:1.25;font-family:'Clear Sans';-inkscape-font-specification:'Clear Sans, Bold';fill:#776e65;stroke-width:0.537729"
     inkscape:label="game_over"
     aria-label="Game Over!" /><sodipodi:namedview
     id="namedview7"
     pagecolor="#ffffff"
     bordercolor="#111111"
     borderopacity="1"
     inkscape:showpageshadow="0"
     inkscape:pageopacity="0"
     inkscape:pagecheckerboard="1"
     inkscape:deskcolor="#d1d1d1"
     inkscape:document-units="px"
     showgrid="false"
     inkscape:zoom="1.0759174"
     inkscape:cx="206.33554"
     inkscape:cy="7.9002347"
     inkscape:window-width="1920"
     inkscape:window-height="1017"
     inkscape:window-x="-8"
     inkscape:window-y="-8"
     inkscape:window-maximized="1"
     inkscape:current-layer="svg5" /><defs
     id="defs2"><inkscape:path-effect
       effect="clone_original"
       linkeditem=""
       id="path-effect2747"
       is_visible="true"
       lpeversion="1"
       method="d"
       attributes=""
       css_properties=""
       allow_transforms="true" /></defs></svg>
