<?xml version="1.0" encoding="UTF-8" standalone="no"?>
<!-- Created with Inkscape (http://www.inkscape.org/) -->

<svg
   width="425"
   height="319"
   viewBox="0 0 112.4479 84.40208"
   version="1.1"
   id="svg5"
   inkscape:version="1.3.2 (091e20e, 2023-11-25, custom)"
   sodipodi:docname="pieces.svg"
   xml:space="preserve"
   inkscape:export-filename="pieces.png"
   inkscape:export-xdpi="96.605659"
   inkscape:export-ydpi="96.605659"
   xmlns:inkscape="http://www.inkscape.org/namespaces/inkscape"
   xmlns:sodipodi="http://sodipodi.sourceforge.net/DTD/sodipodi-0.dtd"
   xmlns="http://www.w3.org/2000/svg"
   xmlns:svg="http://www.w3.org/2000/svg"><sodipodi:namedview
     id="namedview7"
     pagecolor="#ffffff"
     bordercolor="#111111"
     borderopacity="1"
     inkscape:showpageshadow="0"
     inkscape:pageopacity="0"
     inkscape:pagecheckerboard="1"
     inkscape:deskcolor="#d1d1d1"
     inkscape:document-units="px"
     showgrid="false"
     inkscape:zoom="1.5215769"
     inkscape:cx="88.723744"
     inkscape:cy="57.506131"
     inkscape:window-width="1920"
     inkscape:window-height="1017"
     inkscape:window-x="1912"
     inkscape:window-y="-8"
     inkscape:window-maximized="1"
     inkscape:current-layer="layer3" /><defs
     id="defs2"><inkscape:path-effect
       effect="clone_original"
       linkeditem=""
       id="path-effect2747"
       is_visible="true"
       lpeversion="1"
       method="d"
       attributes=""
       css_properties=""
       allow_transforms="true" /><inkscape:path-effect
       effect="clone_original"
       linkeditem=""
       id="path-effect2747-2"
       is_visible="true"
       lpeversion="1"
       method="d"
       attributes=""
       css_properties=""
       allow_transforms="true" /></defs><g
     inkscape:groupmode="layer"
     id="layer3"
     inkscape:label="slots"><rect
       style="fill:#eee4da;fill-opacity:1;stroke:none;stroke-width:0;stroke-linecap:butt;stroke-linejoin:bevel;stroke-dasharray:none;stroke-opacity:1;paint-order:stroke fill markers"
       id="rect1"
       width="27.78125"
       height="27.781254"
       x="0.26458332"
       y="0.26458332"
       ry="1.7501168"
       inkscape:label="slot_0" /><rect
       style="fill:#ede0c8;fill-opacity:1;stroke:none;stroke-width:0;stroke-linecap:butt;stroke-linejoin:bevel;stroke-dasharray:none;stroke-opacity:1;paint-order:stroke fill markers"
       id="rect1-3"
       width="27.78125"
       height="27.781254"
       x="28.310417"
       y="0.26458332"
       ry="1.7501168"
       inkscape:label="slot_1" /><rect
       style="fill:#f2b179;fill-opacity:1;stroke:none;stroke-width:0;stroke-linecap:butt;stroke-linejoin:bevel;stroke-dasharray:none;stroke-opacity:1;paint-order:stroke fill markers"
       id="rect1-6"
       width="27.78125"
       height="27.781254"
       x="56.356251"
       y="0.26458332"
       ry="1.7501168"
       inkscape:label="slot_2" /><rect
       style="fill:#f59563;fill-opacity:1;stroke:none;stroke-width:0;stroke-linecap:butt;stroke-linejoin:bevel;stroke-dasharray:none;stroke-opacity:1;paint-order:stroke fill markers"
       id="rect1-7"
       width="27.78125"
       height="27.781254"
       x="84.402077"
       y="0.26458332"
       ry="1.7501168"
       inkscape:label="slot_3" /><rect
       style="fill:#f67c60;fill-opacity:1;stroke:none;stroke-width:0;stroke-linecap:butt;stroke-linejoin:bevel;stroke-dasharray:none;stroke-opacity:1;paint-order:stroke fill markers"
       id="rect1-36"
       width="27.78125"
       height="27.781254"
       x="0.26458332"
       y="28.310421"
       ry="1.7501168"
       inkscape:label="slot_4" /><rect
       style="fill:#f65e3b;fill-opacity:1;stroke:none;stroke-width:0;stroke-linecap:butt;stroke-linejoin:bevel;stroke-dasharray:none;stroke-opacity:1;paint-order:stroke fill markers"
       id="rect1-3-0"
       width="27.78125"
       height="27.781254"
       x="28.310417"
       y="28.310421"
       ry="1.7501168"
       inkscape:label="slot_5" /><rect
       style="fill:#edcf73;fill-opacity:1;stroke:none;stroke-width:0;stroke-linecap:butt;stroke-linejoin:bevel;stroke-dasharray:none;stroke-opacity:1;paint-order:stroke fill markers"
       id="rect1-6-6"
       width="27.78125"
       height="27.781254"
       x="56.356251"
       y="28.310421"
       ry="1.7501168"
       inkscape:label="slot_6" /><rect
       style="fill:#edcc62;fill-opacity:1;stroke:none;stroke-width:0;stroke-linecap:butt;stroke-linejoin:bevel;stroke-dasharray:none;stroke-opacity:1;paint-order:stroke fill markers"
       id="rect1-7-2"
       width="27.78125"
       height="27.781254"
       x="84.402077"
       y="28.310421"
       ry="1.7501168"
       inkscape:label="slot_7" /><rect
       style="fill:#edc850;fill-opacity:1;stroke:none;stroke-width:0;stroke-linecap:butt;stroke-linejoin:bevel;stroke-dasharray:none;stroke-opacity:1;paint-order:stroke fill markers"
       id="rect1-36-8"
       width="27.78125"
       height="27.781254"
       x="0.26458332"
       y="56.356258"
       ry="1.7501168"
       inkscape:label="slot_8" /><rect
       style="fill:#edc53f;fill-opacity:1;stroke:none;stroke-width:0;stroke-linecap:butt;stroke-linejoin:bevel;stroke-dasharray:none;stroke-opacity:1;paint-order:stroke fill markers"
       id="rect1-3-0-7"
       width="27.78125"
       height="27.781254"
       x="28.310417"
       y="56.356258"
       ry="1.7501168"
       inkscape:label="slot_9" /><rect
       style="fill:#edc22d;fill-opacity:1;stroke:none;stroke-width:0;stroke-linecap:butt;stroke-linejoin:bevel;stroke-dasharray:none;stroke-opacity:1;paint-order:stroke fill markers"
       id="rect1-6-6-9"
       width="27.78125"
       height="27.781254"
       x="56.356251"
       y="56.356258"
       ry="1.7501168"
       inkscape:label="slot_0" /></g><g
     inkscape:groupmode="layer"
     id="layer4"
     inkscape:label="labels"><path
       d="m 57.916879,73.817719 v -1.21956 q 0.842323,-0.707965 1.534785,-1.353919 0.692462,-0.645953 1.069698,-1.069698 0.377237,-0.428913 0.583942,-0.816485 0.211873,-0.39274 0.211873,-0.821653 0,-0.335896 -0.253214,-0.532266 -0.253213,-0.196369 -0.697629,-0.196369 -0.48059,0 -0.78548,0.222208 -0.30489,0.222207 -0.506427,0.527097 l -1.178219,-0.82682 q 0.439248,-0.656288 1.038693,-0.93534 0.604612,-0.279052 1.503779,-0.279052 1.105873,0 1.741491,0.516763 0.640785,0.516762 0.640785,1.452103 0,0.687294 -0.253213,1.209224 -0.248046,0.516763 -0.713133,1.007688 -0.459919,0.485756 -1.152381,1.074866 -0.687294,0.589109 -0.84749,0.707965 H 63.0535 v 1.333248 z m 11.771853,-3.575998 q 0,1.927525 -0.676959,2.831859 -0.676959,0.904335 -2.118727,0.904335 -1.431432,0 -2.108391,-0.904335 -0.676959,-0.904334 -0.676959,-2.821524 0,-1.91719 0.676959,-2.826692 0.676959,-0.909502 2.108391,-0.909502 1.441768,0 2.118727,0.904335 0.676959,0.904334 0.676959,2.821524 z m -1.503779,0 q 0,-1.281572 -0.315225,-1.875849 -0.310058,-0.599444 -0.976682,-0.599444 -0.666623,0 -0.976681,0.604612 -0.30489,0.599445 -0.30489,1.881016 0,1.281571 0.30489,1.881016 0.310058,0.594277 0.976681,0.594277 0.666624,0 0.976682,-0.599444 0.315225,-0.604613 0.315225,-1.886184 z m 7.332862,2.392611 v 1.183387 h -1.395259 v -1.183387 h -3.591501 v -1.343583 l 3.493316,-4.625026 h 1.493444 v 4.718043 h 0.878497 v 1.250566 z m -1.395259,-4.056587 -2.170403,2.806021 h 2.170403 z m 8.474908,3.302113 q 0,0.992185 -0.692462,1.539953 -0.687295,0.547769 -1.974034,0.547769 -1.271236,0 -1.974033,-0.521931 -0.702797,-0.527098 -0.702797,-1.565791 0,-0.635618 0.356566,-1.111039 0.361734,-0.475422 0.966346,-0.749306 -0.578774,-0.28422 -0.868161,-0.687295 -0.28422,-0.408242 -0.28422,-0.878496 0,-0.945676 0.661456,-1.441768 0.661457,-0.496092 1.844843,-0.496092 1.152381,0 1.824172,0.480589 0.671792,0.480589 0.671792,1.446936 0,0.320393 -0.155029,0.594277 -0.149861,0.273884 -0.392739,0.496092 -0.242879,0.222208 -0.738971,0.496092 0.594277,0.289387 0.878496,0.542601 0.28422,0.253214 0.428913,0.578774 0.149862,0.325561 0.149862,0.728635 z m -1.596797,-3.415801 q 0,-0.341063 -0.248046,-0.573606 -0.248046,-0.232544 -0.821653,-0.232544 -0.614947,0 -0.847491,0.232544 -0.232543,0.232543 -0.232543,0.5426 0,0.232544 0.103353,0.39274 0.103352,0.160196 0.341063,0.341063 0.242879,0.1757 0.635618,0.330729 0.604613,-0.263549 0.837156,-0.516763 0.232543,-0.253214 0.232543,-0.516763 z m 0.139526,3.415801 q 0,-0.444415 -0.299722,-0.73897 -0.294555,-0.294555 -0.909503,-0.583942 -0.656288,0.289387 -0.93534,0.583942 -0.279052,0.294555 -0.279052,0.749306 0,0.403075 0.289387,0.661456 0.289387,0.258381 0.925005,0.258381 0.635618,0 0.919838,-0.268716 0.289387,-0.268717 0.289387,-0.661457 z"
       id="text1"
       style="font-weight:bold;font-size:10.5833px;line-height:1.25;font-family:'Clear Sans';-inkscape-font-specification:'Clear Sans, Bold';fill:#ffffff;stroke-width:0.264583"
       inkscape:label="2048"
       aria-label="2048" /><path
       d="m 31.757226,73.817719 v -4.795558 h -1.736322 v -0.981849 q 0.744138,-0.04651 1.121375,-0.1757 0.382404,-0.134358 0.604612,-0.41341 0.227376,-0.279052 0.356566,-0.785479 h 1.11104 v 7.151996 z m 9.694468,-3.575998 q 0,1.927525 -0.676959,2.831859 -0.676959,0.904335 -2.118727,0.904335 -1.431433,0 -2.108392,-0.904335 -0.676959,-0.904334 -0.676959,-2.821524 0,-1.91719 0.676959,-2.826692 0.676959,-0.909502 2.108392,-0.909502 1.441768,0 2.118727,0.904335 0.676959,0.904334 0.676959,2.821524 z m -1.50378,0 q 0,-1.281572 -0.315225,-1.875849 -0.310057,-0.599444 -0.976681,-0.599444 -0.666624,0 -0.976682,0.604612 -0.30489,0.599445 -0.30489,1.881016 0,1.281571 0.30489,1.881016 0.310058,0.594277 0.976682,0.594277 0.666624,0 0.976681,-0.599444 0.315225,-0.604613 0.315225,-1.886184 z m 2.568311,3.575998 v -1.21956 q 0.842323,-0.707965 1.534785,-1.353919 0.692462,-0.645953 1.069699,-1.069698 0.377236,-0.428913 0.583941,-0.816485 0.211873,-0.39274 0.211873,-0.821653 0,-0.335896 -0.253214,-0.532266 -0.253213,-0.196369 -0.697629,-0.196369 -0.480589,0 -0.785479,0.222208 -0.30489,0.222207 -0.506428,0.527097 l -1.178219,-0.82682 q 0.439248,-0.656288 1.038693,-0.93534 0.604613,-0.279052 1.50378,-0.279052 1.105872,0 1.74149,0.516763 0.640786,0.516762 0.640786,1.452103 0,0.687294 -0.253214,1.209224 -0.248046,0.516763 -0.713133,1.007688 -0.459918,0.485756 -1.15238,1.074866 -0.687295,0.589109 -0.847491,0.707965 h 3.198761 v 1.333248 z m 10.986374,-1.183387 v 1.183387 H 52.10734 v -1.183387 h -3.591501 v -1.343583 l 3.493316,-4.625026 h 1.493444 v 4.718043 h 0.878497 v 1.250566 z m -1.395259,-4.056587 -2.170403,2.806021 h 2.170403 z"
       id="text1-0"
       style="font-weight:bold;font-size:10.5833px;line-height:1.25;font-family:'Clear Sans';-inkscape-font-specification:'Clear Sans, Bold';fill:#ffffff;stroke-width:0.264583"
       inkscape:label="1024"
       aria-label="1024" /><path
       d="m 9.4428022,71.805636 q 0,1.486403 -0.9536653,2.334836 -0.9470883,0.848433 -2.7360328,0.848433 -2.2296036,0 -3.2227309,-1.499556 l 1.4798254,-1.045744 q 0.5064291,0.887896 1.7165975,0.887896 1.8152525,0 1.8152525,-1.565327 0,-0.6577 -0.4801211,-1.032589 -0.4735442,-0.381466 -1.3219774,-0.381466 -0.9076263,0 -1.3745934,0.486698 H 3.0696873 L 3.6090015,65.695601 H 8.929796 v 1.696867 H 5.0888269 l -0.184156,1.598211 q 0.6248151,-0.256503 1.3877474,-0.256503 1.4600944,0 2.3019506,0.782663 0.8484333,0.782664 0.8484333,2.288797 z m 4.5249768,2.992536 v -6.103458 h -2.209872 v -1.24963 q 0.947088,-0.05919 1.427209,-0.223618 0.486698,-0.171002 0.769509,-0.52616 0.289388,-0.355158 0.453814,-0.999705 h 1.414055 v 9.102571 z m 5.274756,0 V 73.246 q 1.072051,-0.90105 1.953369,-1.723175 0.881319,-0.822125 1.36144,-1.361439 0.480121,-0.545891 0.743201,-1.039167 0.269657,-0.499852 0.269657,-1.045743 0,-0.427505 -0.322273,-0.677431 -0.322273,-0.249926 -0.887895,-0.249926 -0.611661,0 -0.999704,0.282811 -0.388044,0.282811 -0.644547,0.670854 l -1.499556,-1.05232 q 0.559045,-0.835279 1.321977,-1.190438 0.76951,-0.355158 1.913908,-0.355158 1.407478,0 2.216449,0.657701 0.815549,0.6577 0.815549,1.848137 0,0.874741 -0.322273,1.539018 -0.315696,0.657701 -0.907627,1.282516 -0.585353,0.618238 -1.466671,1.368016 -0.874741,0.749778 -1.078628,0.90105 h 4.071164 v 1.696866 z"
       id="text1-3"
       style="font-weight:bold;font-size:13.4697px;line-height:1.25;font-family:'Clear Sans';-inkscape-font-specification:'Clear Sans, Bold';fill:#ffffff;stroke-width:0.264583"
       inkscape:label="512"
       aria-label="512" /><path
       d="m 87.052623,46.752335 v -1.552173 q 1.072052,-0.901049 1.95337,-1.723174 0.881318,-0.822126 1.361439,-1.36144 0.480121,-0.545891 0.743201,-1.039166 0.269658,-0.499852 0.269658,-1.045743 0,-0.427505 -0.322274,-0.677432 -0.322273,-0.249926 -0.887895,-0.249926 -0.611661,0 -0.999704,0.282811 -0.388043,0.282812 -0.644546,0.670855 l -1.499557,-1.052321 q 0.559045,-0.835279 1.321978,-1.190437 0.769509,-0.355158 1.913907,-0.355158 1.407479,0 2.21645,0.6577 0.815548,0.6577 0.815548,1.848138 0,0.874741 -0.322273,1.539018 -0.315696,0.6577 -0.907626,1.282515 -0.585353,0.618239 -1.466672,1.368017 -0.874741,0.749778 -1.078628,0.901049 h 4.071164 v 1.696867 z m 14.456247,-2.992536 q 0,1.486402 -0.95366,2.334835 -0.94709,0.848434 -2.736035,0.848434 -2.229603,0 -3.222731,-1.499557 l 1.479826,-1.045743 q 0.506429,0.887895 1.716597,0.887895 1.815253,0 1.815253,-1.565326 0,-0.6577 -0.480121,-1.03259 -0.473544,-0.381466 -1.321978,-0.381466 -0.907626,0 -1.374593,0.486698 h -1.295669 l 0.539314,-5.143215 h 5.320797 v 1.696866 h -3.840972 l -0.184156,1.598212 q 0.624815,-0.256503 1.387748,-0.256503 1.460094,0 2.30195,0.782663 0.84843,0.782663 0.84843,2.288797 z m 4.78148,3.183269 q -1.64425,0 -2.5453,-1.085206 -0.89447,-1.091782 -0.89447,-3.104345 0,-2.578184 0.96682,-3.933047 0.96682,-1.361439 2.82153,-1.361439 1.75606,0 2.59792,0.743201 l -1.05232,1.42721 q -0.32227,-0.282812 -0.68401,-0.427506 -0.36173,-0.151271 -0.86159,-0.151271 -0.88789,0 -1.29566,0.605085 -0.4012,0.605084 -0.51301,1.723174 0.52616,-0.355158 0.94051,-0.493275 0.42093,-0.138117 0.9997,-0.138117 1.28252,0 2.0323,0.78924 0.75635,0.782663 0.75635,2.262489 0,1.460094 -0.88131,2.30195 -0.88132,0.841857 -2.38746,0.841857 z m 0.0132,-1.591635 q 0.61824,0 1.00628,-0.32885 0.39462,-0.32885 0.39462,-1.177283 0,-0.697162 -0.38804,-1.111514 -0.38805,-0.414351 -1.03917,-0.414351 -0.51301,0 -0.90763,0.171002 -0.38804,0.164425 -0.59193,0.32885 0,1.006282 0.15127,1.479826 0.15128,0.473544 0.48013,0.762932 0.32885,0.289388 0.89447,0.289388 z"
       id="text1-5"
       style="font-weight:bold;font-size:13.4697px;line-height:1.25;font-family:'Clear Sans';-inkscape-font-specification:'Clear Sans, Bold';fill:#ffffff;stroke-width:0.264583"
       inkscape:label="256"
       aria-label="256" /><path
       d="m 61.427132,46.752335 v -6.103458 h -2.209873 v -1.249631 q 0.947088,-0.05919 1.427209,-0.223618 0.486699,-0.171002 0.76951,-0.52616 0.289388,-0.355158 0.453813,-0.999704 h 1.414055 v 9.102571 z m 5.274755,0 v -1.552173 q 1.072051,-0.901049 1.953369,-1.723174 0.881319,-0.822126 1.36144,-1.36144 0.480121,-0.545891 0.743201,-1.039166 0.269657,-0.499852 0.269657,-1.045743 0,-0.427505 -0.322273,-0.677432 -0.322273,-0.249926 -0.887895,-0.249926 -0.611662,0 -0.999705,0.282811 -0.388043,0.282812 -0.644546,0.670855 l -1.499556,-1.052321 q 0.559045,-0.835279 1.321977,-1.190437 0.769509,-0.355158 1.913908,-0.355158 1.407478,0 2.216449,0.6577 0.815548,0.6577 0.815548,1.848138 0,0.874741 -0.322273,1.539018 -0.315696,0.6577 -0.907626,1.282515 -0.585353,0.618239 -1.466671,1.368017 -0.874742,0.749778 -1.078629,0.901049 h 4.071165 v 1.696867 z m 14.574636,-2.466376 q 0,1.262784 -0.881318,1.959946 -0.874741,0.697163 -2.512415,0.697163 -1.617942,0 -2.512414,-0.664278 -0.894473,-0.670854 -0.894473,-1.992831 0,-0.808971 0.453813,-1.414056 0.460391,-0.605084 1.2299,-0.953665 -0.736624,-0.361735 -1.104936,-0.874741 -0.361736,-0.519583 -0.361736,-1.11809 0,-1.203592 0.841857,-1.834984 0.841856,-0.631392 2.347989,-0.631392 1.466672,0 2.321682,0.611661 0.85501,0.611661 0.85501,1.841561 0,0.407774 -0.19731,0.756355 -0.190733,0.348581 -0.499852,0.631392 -0.309119,0.282811 -0.940511,0.631392 0.756355,0.368312 1.11809,0.690585 0.361735,0.322274 0.545891,0.736625 0.190733,0.414351 0.190733,0.927357 z M 79.24423,39.938561 q 0,-0.434082 -0.315696,-0.730048 -0.315696,-0.295965 -1.045744,-0.295965 -0.782663,0 -1.078628,0.295965 -0.295965,0.295966 -0.295965,0.690586 0,0.295965 0.13154,0.499852 0.13154,0.203887 0.434082,0.434082 0.309119,0.223618 0.808971,0.420928 0.76951,-0.335427 1.065475,-0.6577 0.295965,-0.322273 0.295965,-0.6577 z m 0.177579,4.347398 q 0,-0.565622 -0.381466,-0.940511 -0.374889,-0.374889 -1.157553,-0.743202 -0.835279,0.368313 -1.190437,0.743202 -0.355158,0.374889 -0.355158,0.953665 0,0.513006 0.368312,0.841856 0.368312,0.32885 1.177283,0.32885 0.808972,0 1.170707,-0.342004 0.368312,-0.342004 0.368312,-0.841856 z"
       id="text1-1"
       style="font-weight:bold;font-size:13.4697px;line-height:1.25;font-family:'Clear Sans';-inkscape-font-specification:'Clear Sans, Bold';fill:#ffffff;stroke-width:0.264583"
       inkscape:label="128"
       aria-label="128" /><path
       d="m 38.070697,46.943068 q -1.644251,0 -2.5453,-1.085206 -0.894472,-1.091782 -0.894472,-3.104345 0,-2.578184 0.966819,-3.933047 0.966819,-1.361439 2.821534,-1.361439 1.756059,0 2.597916,0.743201 l -1.052321,1.42721 Q 39.6426,39.34663 39.280865,39.201936 38.91913,39.050665 38.419278,39.050665 q -0.887895,0 -1.295669,0.605085 -0.401198,0.605084 -0.513007,1.723174 0.526161,-0.355158 0.940512,-0.493275 0.420928,-0.138117 0.999704,-0.138117 1.282515,0 2.032294,0.78924 0.756355,0.782663 0.756355,2.262489 0,1.460094 -0.881319,2.30195 -0.881318,0.841857 -2.387451,0.841857 z m 0.01315,-1.591635 q 0.618238,0 1.006281,-0.32885 0.39462,-0.32885 0.39462,-1.177283 0,-0.697162 -0.388043,-1.111514 -0.388043,-0.414351 -1.039166,-0.414351 -0.513006,0 -0.907626,0.171002 -0.388044,0.164425 -0.591931,0.32885 0,1.006282 0.151271,1.479826 0.151271,0.473544 0.480122,0.762932 0.32885,0.289388 0.894472,0.289388 z m 10.569242,-0.105232 v 1.506134 h -1.775791 v -1.506134 h -4.571016 v -1.71002 l 4.446053,-5.886417 h 1.900754 v 6.004803 h 1.11809 v 1.591634 z m -1.775791,-5.162946 -2.76234,3.571312 h 2.76234 z"
       id="text1-2"
       style="font-weight:bold;font-size:13.4697px;line-height:1.25;font-family:'Clear Sans';-inkscape-font-specification:'Clear Sans, Bold';fill:#ffffff;stroke-width:0.264583"
       inkscape:label="64"
       aria-label="64" /><path
       d="m 13.300209,44.193881 q 0,1.400901 -0.920781,2.078332 -0.914203,0.670855 -2.5189913,0.670855 -1.1443984,0 -1.9402156,-0.414351 -0.7892402,-0.420929 -1.1246673,-1.058898 l 1.4929794,-1.019435 q 0.2433491,0.374889 0.6050842,0.605084 0.3617351,0.230195 0.9865503,0.230195 0.7892403,0 1.1443983,-0.302542 0.361735,-0.302542 0.361735,-0.927357 0,-1.262785 -1.6705584,-1.262785 H 8.9067714 v -1.591634 h 0.7037392 q 0.8352794,0 1.2167454,-0.32885 0.381466,-0.32885 0.381466,-0.85501 0,-0.388043 -0.276234,-0.644547 -0.276234,-0.256503 -0.907626,-0.256503 -0.6313925,0 -1.0128586,0.203887 -0.3748891,0.197311 -0.6445462,0.605085 L 6.8876318,38.88624 q 0.5393142,-0.730047 1.3022464,-1.078628 0.7695092,-0.348581 1.9731008,-0.348581 0.914203,0 1.591634,0.289388 0.684008,0.282811 1.032589,0.78924 0.348582,0.506429 0.348582,1.157553 0,1.782367 -1.841561,2.23618 0.901049,0.05919 1.453517,0.684008 0.552469,0.618239 0.552469,1.578481 z m 1.677135,2.558454 v -1.552173 q 1.072051,-0.901049 1.95337,-1.723174 0.881318,-0.822126 1.361439,-1.36144 0.480121,-0.545891 0.743201,-1.039166 0.269657,-0.499852 0.269657,-1.045743 0,-0.427505 -0.322273,-0.677432 -0.322273,-0.249926 -0.887895,-0.249926 -0.611661,0 -0.999704,0.282811 -0.388043,0.282812 -0.644546,0.670855 l -1.499557,-1.052321 q 0.559045,-0.835279 1.321977,-1.190437 0.76951,-0.355158 1.913908,-0.355158 1.407478,0 2.21645,0.6577 0.815548,0.6577 0.815548,1.848138 0,0.874741 -0.322273,1.539018 -0.315696,0.6577 -0.907626,1.282515 -0.585354,0.618239 -1.466672,1.368017 -0.874741,0.749778 -1.078628,0.901049 h 4.071164 v 1.696867 z"
       id="text1-9"
       style="font-weight:bold;font-size:13.4697px;line-height:1.25;font-family:'Clear Sans';-inkscape-font-specification:'Clear Sans, Bold';fill:#ffffff;stroke-width:0.264583"
       inkscape:label="32"
       aria-label="32" /><path
       d="m 93.425732,18.706495 v -6.103457 h -2.209873 v -1.249631 q 0.947088,-0.05919 1.427209,-0.223618 0.486699,-0.171002 0.76951,-0.52616 0.289388,-0.355158 0.453813,-0.9997043 h 1.414055 v 9.1025703 z m 8.675068,0.190733 q -1.64425,0 -2.545303,-1.085205 -0.894472,-1.091782 -0.894472,-3.104345 0,-2.578185 0.966819,-3.933047 0.966816,-1.3614394 2.821536,-1.3614394 1.75606,0 2.59791,0.7432014 l -1.05232,1.427209 q -0.32227,-0.282811 -0.684,-0.427505 -0.36174,-0.151271 -0.86159,-0.151271 -0.8879,0 -1.29567,0.605084 -0.4012,0.605084 -0.51301,1.723175 0.52616,-0.355158 0.94051,-0.493275 0.42093,-0.138117 0.99971,-0.138117 1.28251,0 2.03229,0.78924 0.75636,0.782663 0.75636,2.262488 0,1.460095 -0.88132,2.301951 -0.88132,0.841856 -2.38745,0.841856 z m 0.0131,-1.591634 q 0.61824,0 1.00628,-0.32885 0.39462,-0.32885 0.39462,-1.177284 0,-0.697162 -0.38804,-1.111513 -0.38804,-0.414351 -1.03917,-0.414351 -0.513,0 -0.90762,0.171002 -0.38805,0.164425 -0.59193,0.32885 0,1.006281 0.15127,1.479826 0.15127,0.473544 0.48012,0.762932 0.32885,0.289388 0.89447,0.289388 z"
       id="text1-6"
       style="font-weight:bold;font-size:13.4697px;line-height:1.25;font-family:'Clear Sans';-inkscape-font-specification:'Clear Sans, Bold';fill:#ffffff;stroke-width:0.264583"
       inkscape:label="16"
       aria-label="16" /><path
       d="m 73.647194,16.24012 q 0,1.262784 -0.881319,1.959946 -0.874741,0.697162 -2.512414,0.697162 -1.617943,0 -2.512415,-0.664277 -0.894472,-0.670854 -0.894472,-1.992831 0,-0.808972 0.453813,-1.414056 0.46039,-0.605084 1.229899,-0.953665 -0.736624,-0.361735 -1.104936,-0.874741 -0.361735,-0.519583 -0.361735,-1.118091 0,-1.203591 0.841856,-1.834983 0.841856,-0.6313924 2.34799,-0.6313924 1.466671,0 2.321681,0.6116614 0.855011,0.611661 0.855011,1.84156 0,0.407774 -0.19731,0.756356 -0.190734,0.348581 -0.499853,0.631392 -0.309119,0.282811 -0.940511,0.631392 0.756355,0.368312 1.11809,0.690585 0.361736,0.322273 0.545892,0.736624 0.190733,0.414351 0.190733,0.927358 z M 71.6149,11.892721 q 0,-0.434082 -0.315696,-0.730047 -0.315696,-0.295965 -1.045743,-0.295965 -0.782664,0 -1.078629,0.295965 -0.295965,0.295965 -0.295965,0.690585 0,0.295965 0.13154,0.499852 0.13154,0.203888 0.434082,0.434083 0.30912,0.223618 0.808972,0.420928 0.769509,-0.335427 1.065474,-0.6577 0.295965,-0.322274 0.295965,-0.657701 z m 0.177579,4.347399 q 0,-0.565623 -0.381466,-0.940512 -0.374889,-0.374889 -1.157552,-0.743201 -0.83528,0.368312 -1.190438,0.743201 -0.355158,0.374889 -0.355158,0.953666 0,0.513006 0.368312,0.841856 0.368312,0.32885 1.177284,0.32885 0.808971,0 1.170706,-0.342004 0.368312,-0.342004 0.368312,-0.841856 z"
       id="text1-29"
       style="font-weight:bold;font-size:13.4697px;line-height:1.25;font-family:'Clear Sans';-inkscape-font-specification:'Clear Sans, Bold';fill:#ffffff;stroke-width:0.264583"
       inkscape:label="8"
       aria-label="8" /><path
       d="m 44.815407,17.200362 v 1.506133 H 43.039616 V 17.200362 H 38.4686 v -1.710021 l 4.446053,-5.8864163 h 1.900754 v 6.0048023 h 1.11809 v 1.591635 z m -1.775791,-5.162947 -2.762341,3.571312 h 2.762341 z"
       id="text1-29-7"
       style="font-weight:bold;font-size:13.4697px;line-height:1.25;font-family:'Clear Sans';-inkscape-font-specification:'Clear Sans, Bold';fill:#776e65;stroke-width:0.264583"
       inkscape:label="4"
       aria-label="4" /><path
       d="M 10.899597,18.801863 V 17.24969 q 1.072051,-0.901049 1.953369,-1.723174 0.881319,-0.822125 1.36144,-1.36144 0.480121,-0.545891 0.743201,-1.039166 0.269657,-0.499852 0.269657,-1.045743 0,-0.427505 -0.322273,-0.677431 -0.322273,-0.249926 -0.887895,-0.249926 -0.611662,0 -0.999705,0.282811 -0.388043,0.282811 -0.644546,0.670854 l -1.499556,-1.052321 q 0.559045,-0.835279 1.321977,-1.1904368 0.769509,-0.3551581 1.913908,-0.3551581 1.407478,0 2.216449,0.6576999 0.815549,0.6577 0.815549,1.848138 0,0.874741 -0.322274,1.539018 -0.315696,0.6577 -0.907626,1.282516 -0.585353,0.618238 -1.466671,1.368016 -0.874741,0.749778 -1.078629,0.901049 h 4.071165 v 1.696867 z"
       id="text1-29-7-4"
       style="font-weight:bold;font-size:13.4697px;line-height:1.25;font-family:'Clear Sans';-inkscape-font-specification:'Clear Sans, Bold';fill:#776e65;stroke-width:0.264583"
       inkscape:label="2"
       aria-label="2" /></g></svg>
